<svg xmlns="http://www.w3.org/2000/svg" xmlns:xlink="http://www.w3.org/1999/xlink" width="500" zoomAndPan="magnify" viewBox="0 0 375 374.999991" height="500" preserveAspectRatio="xMidYMid meet" version="1.0"><defs><clipPath id="6200aece4a"><path d="M 25 55.566406 L 350 55.566406 L 350 319.566406 L 25 319.566406 Z M 25 55.566406 " clip-rule="nonzero"/></clipPath></defs><path fill="#bbe5e1" d="M 152.984375 207.5 C 156.15625 220.574219 175.550781 314.832031 175.550781 314.832031 L 21.566406 314.832031 C 21.566406 314.832031 3.355469 188.886719 1.777344 176.210938 C 0.195312 163.53125 7.53125 155.421875 18.839844 155.421875 C 18.839844 155.421875 65.109375 155.222656 76.585938 155.222656 C 88.0625 155.222656 94.007812 160.765625 97.5625 172.652344 C 101.128906 184.527344 102.3125 188.492188 102.3125 188.492188 C 102.3125 188.492188 113 188.492188 127.25 188.492188 C 141.5 188.492188 149.824219 194.429688 152.984375 207.5 Z M 356.191406 155.421875 C 356.191406 155.421875 309.921875 155.222656 298.445312 155.222656 C 286.96875 155.222656 281.023438 160.765625 277.46875 172.652344 C 273.902344 184.527344 272.71875 188.492188 272.71875 188.492188 C 272.71875 188.492188 262.03125 188.492188 247.78125 188.492188 C 233.53125 188.492188 225.214844 194.429688 222.054688 207.5 C 218.882812 220.574219 199.488281 314.832031 199.488281 314.832031 L 353.472656 314.832031 C 353.472656 314.832031 371.683594 188.886719 373.261719 176.210938 C 374.84375 163.539062 367.503906 155.421875 356.191406 155.421875 Z M 356.191406 155.421875 " fill-opacity="1" fill-rule="nonzero"/><path fill="#00bfa8" d="M 323.335938 189.53125 L 272.554688 189.652344 L 254.738281 133.644531 L 243.820312 133.824219 C 243.820312 133.824219 244.410156 130.652344 244.875 126.070312 C 245.347656 121.488281 248.042969 116.546875 253.570312 114.789062 C 259.085938 113.027344 259.558594 112.902344 259.558594 112.902344 C 260.382812 110.199219 262.503906 110.800781 262.503906 110.800781 L 266.300781 116.65625 L 266.859375 110.933594 L 281.171875 105.035156 L 287.160156 111.5 C 287.160156 111.5 296.089844 112.089844 302.078125 112.4375 C 308.070312 112.789062 314.882812 115.964844 318.640625 125.953125 C 322.398438 135.9375 327.210938 150.632812 329.566406 160.742188 C 331.914062 170.851562 326.746094 177.785156 326.746094 177.785156 C 329.441406 186.707031 323.335938 189.53125 323.335938 189.53125 Z M 220.269531 180.832031 C 223.175781 185.359375 228.285156 185.125 228.285156 185.125 L 218.0625 159.214844 C 218.0625 159.214844 217.367188 176.292969 220.269531 180.832031 Z M 231.703125 300.992188 C 231.703125 300.992188 233.933594 300.175781 238.226562 304 C 242.519531 304 246.953125 304 246.953125 304 C 246.953125 304 248.964844 300.511719 253.53125 300.269531 C 258.101562 300.03125 261.992188 302.191406 264.394531 304.984375 L 267.65625 305 L 268.625 297.394531 L 231.539062 297.308594 Z M 319.167969 302.875 C 305.535156 305.875 296.847656 311.34375 292.410156 314.832031 L 353.472656 314.832031 C 353.472656 314.832031 357.820312 284.769531 362.445312 252.546875 C 332.890625 264.738281 339.304688 298.441406 319.167969 302.875 Z M 67.660156 295.292969 C 58.160156 278.320312 44.25 271.871094 28.300781 266.777344 C 19.941406 264.109375 15.035156 256.679688 12.261719 250.222656 C 17.011719 283.3125 21.566406 314.832031 21.566406 314.832031 L 94.066406 314.832031 C 87.84375 313.046875 74.734375 307.945312 67.660156 295.292969 Z M 67.660156 295.292969 " fill-opacity="1" fill-rule="nonzero"/><path fill="#ffffff" d="M 119.941406 149.699219 L 104.917969 157.902344 C 104.917969 157.902344 106.871094 168.835938 107.847656 177.433594 C 108.824219 186.03125 105.109375 188.957031 105.109375 188.957031 L 50.070312 188.957031 C 44.992188 187.785156 39.53125 159.074219 39.53125 159.074219 C 31.332031 158.882812 25.867188 159.074219 25.480469 157.902344 C 25.09375 156.734375 25.480469 153.414062 27.039062 142.871094 C 28.59375 132.324219 30.945312 123.144531 40.894531 118.269531 C 50.84375 113.382812 59.234375 117.679688 59.234375 117.679688 L 63.335938 116.316406 L 76.019531 118.851562 L 80.507812 124.710938 L 82.265625 118.65625 C 82.265625 118.65625 84.414062 118.066406 90.660156 116.507812 C 96.90625 114.949219 103.730469 118.65625 107.636719 125.292969 C 111.550781 131.9375 119.941406 149.699219 119.941406 149.699219 Z M 277.824219 192.941406 L 254.730469 133.644531 L 208.042969 133.644531 L 231.136719 192.941406 Z M 141.878906 295.789062 C 141.878906 295.789062 134.417969 296.773438 128.503906 301 L 132.589844 309.3125 L 137.378906 311 C 137.378906 311 139.207031 306.636719 143.996094 305.652344 C 148.785156 304.667969 151.179688 305.789062 151.179688 305.789062 C 151.179688 305.789062 147.097656 302.550781 145.40625 301 C 143.710938 299.457031 141.878906 295.789062 141.878906 295.789062 Z M 160.035156 294.378906 L 147.785156 294.097656 L 145.25 294.945312 L 145.390625 301 L 151.164062 305.789062 L 154.542969 308.890625 L 158.765625 308.753906 C 158.765625 308.753906 160.316406 303.253906 164.398438 302.695312 L 160.316406 300.582031 Z M 254.941406 300.152344 C 248.585938 300.152344 246.945312 304 246.945312 304 L 238.21875 304 C 238.21875 304 234.707031 300.488281 231.695312 300.992188 C 228.6875 301.496094 225.167969 304.835938 219.984375 308.355469 C 214.800781 311.867188 217.140625 314.714844 217.140625 314.714844 L 266.640625 314.714844 L 267.640625 305.007812 L 264.796875 305.007812 C 264.804688 305.007812 261.296875 300.152344 254.941406 300.152344 Z M 266.269531 125.867188 C 267.113281 125.867188 267.796875 125.183594 267.796875 124.339844 C 267.796875 123.496094 267.113281 122.8125 266.269531 122.8125 C 265.425781 122.8125 264.742188 123.496094 264.742188 124.339844 C 264.742188 125.183594 265.425781 125.867188 266.269531 125.867188 Z M 266.410156 140.847656 C 266.410156 141.691406 267.089844 142.375 267.9375 142.375 C 268.78125 142.375 269.464844 141.691406 269.464844 140.847656 C 269.464844 140 268.78125 139.320312 267.9375 139.320312 C 267.097656 139.320312 266.410156 140 266.410156 140.847656 Z M 270.988281 158.988281 C 271.835938 158.988281 272.515625 158.308594 272.515625 157.460938 C 272.515625 156.617188 271.835938 155.933594 270.988281 155.933594 C 270.144531 155.933594 269.464844 156.617188 269.464844 157.460938 C 269.464844 158.308594 270.152344 158.988281 270.988281 158.988281 Z M 270.988281 158.988281 " fill-opacity="1" fill-rule="nonzero"/><path fill="#f79a91" d="M 287.253906 182.023438 C 279.855469 183.109375 270.875 177.582031 270.875 177.582031 C 270.875 177.582031 262.289062 176.101562 259.722656 174.914062 C 257.15625 173.730469 257.550781 171.953125 257.550781 171.953125 C 255.777344 171.261719 256.660156 169.285156 256.660156 169.285156 C 255.082031 168.789062 255.769531 166.820312 255.769531 166.820312 C 255.769531 166.820312 254.1875 165.042969 256.660156 164.152344 C 259.125 163.261719 265.449219 162.175781 268.015625 162.671875 C 270.578125 163.167969 279.957031 165.441406 279.957031 165.441406 Z M 262.496094 110.800781 L 266.292969 116.65625 L 266.851562 110.933594 L 277.675781 106.761719 C 277.675781 106.761719 276.625 104.398438 276.242188 101.226562 C 275.871094 98.054688 280.351562 94.503906 282.839844 85.914062 C 285.324219 77.324219 280.722656 61.957031 263.371094 63.886719 C 246.023438 65.816406 245.457031 78.199219 245.332031 85.355469 C 245.207031 92.511719 245.703125 99.234375 250.058594 103.15625 C 254.414062 107.082031 261.9375 107.207031 261.9375 107.207031 Z M 69.148438 139.933594 C 66.140625 140.964844 62.566406 144.164062 62.566406 144.164062 C 62.566406 144.164062 59.746094 141.910156 56.925781 141.25 C 54.105469 140.589844 51.285156 144.070312 50.152344 146.140625 C 49.023438 148.210938 41.21875 159.074219 41.21875 159.074219 L 27.488281 158.75 C 27.488281 158.75 27.765625 168.0625 28.144531 173.992188 C 28.527344 179.914062 30.78125 185.847656 39.148438 186.785156 C 47.519531 187.722656 51.65625 181.140625 54.191406 175.867188 C 56.734375 170.597656 64.628906 152.539062 64.628906 152.539062 C 64.628906 152.539062 71.113281 152.160156 73.84375 149.335938 C 76.570312 146.515625 78.261719 143.691406 77.136719 142.375 C 76.003906 141.0625 72.152344 138.902344 69.148438 139.933594 Z M 169.46875 136.722656 C 168.652344 137.894531 166.492188 140.871094 166.492188 140.871094 L 159.726562 139.25 C 159.726562 139.25 161.710938 137.535156 161.082031 136.367188 C 160.457031 135.195312 155.039062 136.09375 151.519531 136.457031 C 148.003906 136.824219 144.847656 137.628906 140.339844 140.792969 C 135.828125 143.949219 119.414062 155.050781 119.414062 155.050781 L 117.957031 150.785156 L 104.910156 157.917969 L 107.335938 173.007812 C 107.335938 173.007812 109.683594 175.441406 116.261719 175.265625 C 122.839844 175.085938 126.902344 171.921875 131.503906 167.953125 C 136.109375 163.984375 153.691406 146.390625 153.691406 146.390625 C 153.691406 146.390625 162.4375 146.210938 166.042969 144.769531 C 169.644531 143.328125 171.273438 138.910156 171.816406 137.195312 C 172.359375 135.480469 170.28125 135.550781 169.46875 136.722656 Z M 76.71875 71.128906 C 64.621094 69.941406 55.144531 72.316406 51.585938 80.867188 C 48.03125 89.417969 49.726562 103.21875 63.597656 112.609375 L 64.210938 116.324219 L 74.339844 119.554688 L 80.507812 124.710938 L 82.265625 118.65625 L 82.210938 114.820312 C 82.210938 114.820312 93.046875 112.789062 92.191406 100.171875 C 91.355469 87.558594 88.8125 72.316406 76.71875 71.128906 Z M 76.71875 71.128906 " fill-opacity="1" fill-rule="nonzero"/><g clip-path="url(#6200aece4a)"><path fill="#27407e" d="M 259.792969 87.851562 C 259.34375 87.851562 258.984375 87.488281 258.984375 87.046875 C 258.984375 86.605469 259.351562 86.242188 259.792969 86.242188 C 260.242188 86.242188 260.597656 86.605469 260.597656 87.046875 C 260.597656 87.488281 260.234375 87.851562 259.792969 87.851562 Z M 247.742188 88.386719 C 247.742188 88.835938 248.105469 89.195312 248.546875 89.195312 C 248.996094 89.195312 249.355469 88.828125 249.355469 88.386719 C 249.355469 87.945312 248.988281 87.582031 248.546875 87.582031 C 248.097656 87.582031 247.742188 87.945312 247.742188 88.386719 Z M 299.296875 142.46875 C 299.453125 147.351562 301.367188 152.726562 303.195312 155.886719 C 304.808594 158.679688 304.683594 163.625 304.675781 163.671875 C 304.675781 163.71875 304.683594 163.765625 304.699219 163.8125 L 281.660156 163.8125 C 280.28125 163.8125 279.683594 164.8125 279.550781 165.339844 C 279.5 165.554688 279.628906 165.773438 279.847656 165.828125 C 279.878906 165.835938 279.910156 165.84375 279.949219 165.84375 C 280.125 165.84375 280.289062 165.71875 280.34375 165.542969 C 280.367188 165.449219 280.605469 164.632812 281.667969 164.632812 L 309.742188 164.632812 C 309.96875 164.632812 310.144531 164.457031 310.144531 164.230469 C 310.144531 164.007812 309.96875 163.828125 309.742188 163.828125 L 305.457031 163.828125 C 305.472656 163.789062 305.480469 163.75 305.480469 163.710938 C 305.488281 163.5 305.621094 158.484375 303.890625 155.492188 C 302.171875 152.515625 300.25 147.164062 300.101562 142.453125 C 299.949219 137.417969 296.585938 134.15625 296.4375 134.015625 C 296.273438 133.859375 296.019531 133.867188 295.863281 134.03125 C 295.710938 134.195312 295.71875 134.449219 295.878906 134.605469 C 295.917969 134.628906 299.148438 137.769531 299.296875 142.46875 Z M 287.648438 181.953125 C 287.613281 181.738281 287.402344 181.589844 287.175781 181.628906 C 286.960938 181.667969 286.8125 181.878906 286.851562 182.09375 C 286.859375 182.132812 287.589844 185.957031 291.609375 185.957031 L 314.355469 185.957031 C 323.574219 185.957031 327.070312 178.007812 327.109375 177.929688 C 327.195312 177.730469 327.101562 177.488281 326.898438 177.402344 C 326.699219 177.316406 326.457031 177.410156 326.371094 177.613281 C 326.34375 177.691406 323.039062 185.148438 314.363281 185.148438 L 291.617188 185.148438 C 288.277344 185.148438 287.671875 182.085938 287.648438 181.953125 Z M 276.382812 137.148438 L 289.78125 137.148438 C 289.96875 137.148438 290.128906 137.273438 290.175781 137.449219 C 290.191406 137.496094 291.449219 142.535156 292.410156 146.957031 C 292.964844 149.5 292.578125 151.769531 291.316406 153.335938 C 290.230469 154.6875 288.589844 155.40625 286.574219 155.40625 C 282.0625 155.40625 280.421875 153.390625 278.800781 149.429688 C 277.265625 145.660156 276.035156 137.9375 275.988281 137.613281 C 275.972656 137.496094 276.003906 137.382812 276.082031 137.289062 C 276.152344 137.195312 276.265625 137.148438 276.382812 137.148438 Z M 276.855469 137.953125 C 277.148438 139.707031 278.257812 145.964844 279.542969 149.128906 C 281.054688 152.832031 282.488281 154.601562 286.566406 154.601562 C 288.324219 154.601562 289.75 153.988281 290.679688 152.832031 C 291.789062 151.460938 292.113281 149.4375 291.617188 147.132812 C 290.789062 143.351562 289.75 139.117188 289.464844 137.960938 L 276.855469 137.960938 Z M 255.769531 167.222656 C 255.832031 167.222656 255.894531 167.207031 255.949219 167.175781 C 255.972656 167.167969 258.265625 166.023438 260.882812 165.921875 C 263.582031 165.820312 265.695312 165.8125 265.710938 165.8125 C 265.9375 165.8125 266.117188 165.632812 266.117188 165.410156 C 266.117188 165.183594 265.9375 165.007812 265.710938 165.007812 C 265.6875 165.007812 263.566406 165.007812 260.855469 165.113281 C 258.054688 165.222656 255.683594 166.402344 255.59375 166.457031 C 255.390625 166.558594 255.3125 166.796875 255.414062 167 C 255.476562 167.136719 255.621094 167.222656 255.769531 167.222656 Z M 256.652344 169.6875 C 256.675781 169.6875 256.699219 169.6875 256.722656 169.679688 C 256.746094 169.679688 258.847656 169.308594 260.566406 169.253906 C 262.300781 169.199219 266.269531 169.457031 266.308594 169.464844 C 266.511719 169.472656 266.71875 169.308594 266.734375 169.085938 C 266.75 168.859375 266.582031 168.671875 266.355469 168.65625 C 266.191406 168.648438 262.308594 168.402344 260.535156 168.449219 C 258.753906 168.503906 256.660156 168.867188 256.574219 168.882812 C 256.359375 168.921875 256.210938 169.128906 256.25 169.347656 C 256.289062 169.558594 256.460938 169.6875 256.652344 169.6875 Z M 257.683594 172.332031 C 257.691406 172.332031 258.535156 172.03125 260.527344 172.179688 C 262.628906 172.332031 267.386719 172.898438 267.433594 172.90625 C 267.449219 172.90625 267.464844 172.90625 267.480469 172.90625 C 267.679688 172.90625 267.851562 172.757812 267.882812 172.550781 C 267.90625 172.324219 267.75 172.125 267.527344 172.101562 C 267.480469 172.09375 262.707031 171.527344 260.582031 171.371094 C 258.382812 171.207031 257.4375 171.566406 257.398438 171.582031 C 257.1875 171.660156 257.085938 171.890625 257.164062 172.101562 C 257.242188 172.300781 257.476562 172.410156 257.683594 172.332031 Z M 222.0625 133.769531 L 224.207031 133.769531 L 217.335938 116.128906 C 217.15625 115.664062 216.582031 115.507812 216.1875 115.8125 C 215.9375 116.003906 215.839844 116.347656 215.945312 116.640625 Z M 264.535156 75.671875 C 264.535156 75.671875 265.402344 83.457031 269.433594 88.503906 L 273.757812 82.308594 C 273.757812 82.308594 279.375 83.464844 278.078125 88.503906 C 276.785156 93.550781 272.316406 93.976562 272.316406 93.976562 L 276.242188 101.21875 C 275.871094 98.046875 280.351562 94.496094 282.839844 85.90625 C 285.324219 77.316406 280.722656 61.949219 263.371094 63.878906 C 251.292969 65.222656 247.355469 71.632812 246.03125 77.820312 C 249.492188 78.199219 257.09375 78.550781 264.535156 75.671875 Z M 254.792969 83.070312 C 254.648438 83.238281 254.667969 83.496094 254.839844 83.636719 C 254.917969 83.695312 255.011719 83.734375 255.105469 83.734375 C 255.21875 83.734375 255.328125 83.6875 255.414062 83.597656 C 255.53125 83.457031 258.335938 80.285156 262.613281 83.347656 C 262.789062 83.480469 263.046875 83.433594 263.179688 83.253906 C 263.308594 83.078125 263.261719 82.820312 263.085938 82.6875 C 258.1875 79.183594 254.824219 83.03125 254.792969 83.070312 Z M 246.679688 83.246094 C 246.703125 83.214844 247.214844 82.527344 248.695312 82.71875 C 250.175781 82.914062 250.515625 83.804688 250.53125 83.84375 C 250.585938 84.015625 250.75 84.125 250.910156 84.125 C 250.949219 84.125 250.996094 84.117188 251.035156 84.101562 C 251.246094 84.03125 251.359375 83.796875 251.292969 83.589844 C 251.277344 83.535156 250.804688 82.183594 248.796875 81.921875 C 246.796875 81.65625 246.039062 82.75 246.007812 82.796875 C 245.882812 82.984375 245.9375 83.222656 246.113281 83.347656 C 246.308594 83.472656 246.554688 83.425781 246.679688 83.246094 Z M 253.234375 97.902344 C 253.273438 97.910156 253.722656 97.996094 254.375 97.996094 C 255.273438 97.996094 256.546875 97.832031 257.652344 97.0625 C 257.839844 96.941406 257.886719 96.683594 257.753906 96.496094 C 257.628906 96.3125 257.375 96.265625 257.195312 96.398438 C 255.585938 97.519531 253.421875 97.109375 253.398438 97.109375 C 253.175781 97.0625 252.964844 97.210938 252.925781 97.429688 C 252.878906 97.644531 253.019531 97.855469 253.234375 97.902344 Z M 267.023438 107.027344 C 266.402344 106.40625 265.394531 106.792969 261.9375 107.191406 L 262.355469 109.902344 C 264.425781 108.949219 267.433594 107.445312 267.023438 107.027344 Z M 252.398438 87.867188 C 252.421875 87.644531 252.265625 87.441406 252.042969 87.417969 C 251.824219 87.394531 251.617188 87.550781 251.59375 87.777344 C 251.59375 87.796875 251.285156 90.417969 251.050781 91.945312 C 250.757812 93.886719 252.746094 94.195312 253.707031 94.34375 L 253.816406 93.542969 C 252.390625 93.328125 251.703125 93.039062 251.839844 92.070312 C 252.089844 90.527344 252.398438 87.898438 252.398438 87.867188 Z M 273.601562 116.941406 L 268.820312 111.734375 C 268.664062 111.570312 268.417969 111.5625 268.246094 111.710938 C 268.082031 111.855469 268.066406 112.113281 268.222656 112.285156 L 273.003906 117.492188 C 273.46875 117.996094 274.121094 118.269531 274.777344 118.269531 C 275.144531 118.269531 275.515625 118.183594 275.855469 118.011719 L 286.503906 112.632812 C 286.703125 112.53125 286.78125 112.292969 286.683594 112.089844 C 286.582031 111.886719 286.332031 111.8125 286.140625 111.910156 L 275.492188 117.292969 C 274.863281 117.609375 274.082031 117.46875 273.601562 116.941406 Z M 259.753906 118.199219 C 259.792969 118.214844 259.839844 118.222656 259.878906 118.222656 C 260.046875 118.222656 260.203125 118.113281 260.265625 117.945312 L 262.070312 112.390625 C 262.140625 112.183594 262.023438 111.949219 261.816406 111.878906 C 261.605469 111.8125 261.371094 111.925781 261.304688 112.136719 L 259.496094 117.6875 C 259.429688 117.90625 259.542969 118.128906 259.753906 118.199219 Z M 275.050781 90.125 C 275.113281 90.164062 275.191406 90.179688 275.257812 90.179688 C 275.398438 90.179688 275.53125 90.109375 275.609375 89.984375 C 276.335938 88.777344 276.546875 87.644531 276.25 86.621094 C 275.824219 85.164062 274.507812 84.488281 274.453125 84.457031 C 274.25 84.355469 274.011719 84.441406 273.910156 84.636719 C 273.808594 84.835938 273.894531 85.078125 274.089844 85.179688 C 274.097656 85.1875 275.152344 85.722656 275.476562 86.84375 C 275.707031 87.644531 275.523438 88.566406 274.917969 89.566406 C 274.792969 89.761719 274.855469 90.007812 275.050781 90.125 Z M 55.996094 150.414062 C 55.871094 150.601562 55.933594 150.847656 56.121094 150.972656 C 58.886719 152.75 62.28125 152.972656 63.832031 152.972656 C 64.3125 152.972656 64.621094 152.949219 64.667969 152.949219 C 64.890625 152.933594 65.054688 152.742188 65.039062 152.515625 C 65.023438 152.289062 64.824219 152.128906 64.605469 152.144531 C 64.558594 152.144531 59.957031 152.476562 56.5625 150.296875 C 56.359375 150.167969 56.113281 150.21875 55.996094 150.414062 Z M 71.101562 142.171875 C 72.339844 141.046875 71.742188 140.054688 71.71875 140.015625 C 71.601562 139.832031 71.363281 139.777344 71.175781 139.886719 C 70.992188 139.992188 70.921875 140.242188 71.03125 140.4375 C 71.054688 140.480469 71.269531 140.933594 70.558594 141.574219 C 69.558594 142.492188 65.085938 146.5 65.085938 146.5 L 65.628906 147.105469 C 65.628906 147.105469 70.101562 143.085938 71.101562 142.171875 Z M 73.921875 143.265625 C 75.074219 142.054688 74.417969 141.109375 74.386719 141.070312 C 74.253906 140.894531 74.011719 140.855469 73.835938 140.980469 C 73.65625 141.101562 73.609375 141.351562 73.726562 141.535156 C 73.757812 141.582031 73.996094 142.007812 73.339844 142.707031 C 72.402344 143.683594 68.226562 147.996094 68.226562 147.996094 L 68.804688 148.5625 C 68.804688 148.5625 72.984375 144.25 73.921875 143.265625 Z M 76.46875 144.453125 C 77.625 143.242188 76.964844 142.296875 76.933594 142.257812 C 76.804688 142.078125 76.5625 142.039062 76.382812 142.164062 C 76.207031 142.289062 76.160156 142.535156 76.277344 142.722656 C 76.308594 142.769531 76.546875 143.195312 75.886719 143.894531 C 74.949219 144.871094 70.773438 149.179688 70.773438 149.179688 L 71.355469 149.746094 C 71.355469 149.746094 75.53125 145.4375 76.46875 144.453125 Z M 62.574219 146.492188 C 60.964844 146.3125 57.257812 145.675781 57.222656 145.675781 C 57.003906 145.636719 56.792969 145.785156 56.757812 146.011719 C 56.71875 146.226562 56.863281 146.4375 57.089844 146.476562 C 57.242188 146.5 60.855469 147.121094 62.492188 147.296875 C 62.574219 147.304688 62.660156 147.3125 62.746094 147.3125 C 63.480469 147.3125 64.054688 146.941406 64.242188 146.320312 C 64.464844 145.578125 64.09375 144.515625 62.753906 143.816406 C 62.550781 143.714844 62.3125 143.785156 62.210938 143.988281 C 62.109375 144.1875 62.179688 144.429688 62.382812 144.53125 C 63.3125 145.019531 63.597656 145.675781 63.472656 146.089844 C 63.375 146.390625 63.039062 146.546875 62.574219 146.492188 Z M 81.871094 133.078125 C 80.785156 133.078125 79.894531 132.195312 79.894531 131.101562 C 79.894531 130.007812 80.777344 129.125 81.871094 129.125 C 82.957031 129.125 83.847656 130.007812 83.847656 131.101562 C 83.847656 132.195312 82.957031 133.078125 81.871094 133.078125 Z M 83.035156 131.109375 C 83.035156 130.464844 82.507812 129.9375 81.863281 129.9375 C 81.21875 129.9375 80.691406 130.464844 80.691406 131.109375 C 80.691406 131.753906 81.21875 132.28125 81.863281 132.28125 C 82.515625 132.273438 83.035156 131.753906 83.035156 131.109375 Z M 81.816406 141.171875 C 81.816406 140.085938 82.699219 139.195312 83.792969 139.195312 C 84.886719 139.195312 85.769531 140.078125 85.769531 141.171875 C 85.769531 142.265625 84.886719 143.148438 83.792969 143.148438 C 82.699219 143.148438 81.816406 142.265625 81.816406 141.171875 Z M 82.628906 141.171875 C 82.628906 141.816406 83.15625 142.34375 83.800781 142.34375 C 84.445312 142.34375 84.96875 141.816406 84.96875 141.171875 C 84.96875 140.527344 84.445312 140 83.800781 140 C 83.148438 140.007812 82.628906 140.527344 82.628906 141.171875 Z M 89.394531 126.269531 C 89.746094 126.558594 90.117188 126.703125 90.480469 126.703125 C 90.683594 126.703125 90.875 126.660156 91.0625 126.566406 C 91.695312 126.238281 92.039062 125.441406 91.984375 124.363281 C 91.898438 122.640625 91.8125 118.8125 91.804688 118.773438 C 91.796875 118.554688 91.621094 118.378906 91.402344 118.378906 C 91.402344 118.378906 91.394531 118.378906 91.394531 118.378906 C 91.171875 118.386719 90.992188 118.570312 91 118.789062 C 91 118.828125 91.085938 122.664062 91.179688 124.402344 C 91.222656 125.261719 90.960938 125.710938 90.699219 125.84375 C 90.480469 125.953125 90.195312 125.882812 89.90625 125.648438 C 88.96875 124.882812 84.125 119.953125 84.078125 119.90625 C 83.925781 119.742188 83.667969 119.742188 83.507812 119.898438 C 83.34375 120.050781 83.34375 120.308594 83.5 120.472656 C 83.699219 120.671875 88.425781 125.480469 89.394531 126.269531 Z M 72.113281 128.628906 C 72.496094 128.628906 72.789062 128.519531 72.976562 128.410156 C 73.585938 128.078125 73.960938 127.371094 73.960938 126.566406 C 73.960938 125.371094 74.300781 121.300781 74.308594 121.261719 C 74.324219 121.035156 74.160156 120.84375 73.945312 120.828125 C 73.71875 120.804688 73.523438 120.976562 73.507812 121.191406 C 73.496094 121.363281 73.160156 125.339844 73.160156 126.566406 C 73.160156 127.078125 72.945312 127.511719 72.59375 127.703125 C 72.207031 127.914062 71.664062 127.828125 71.070312 127.449219 C 69.449219 126.425781 60.53125 118.890625 60.4375 118.820312 C 60.265625 118.671875 60.011719 118.695312 59.871094 118.867188 C 59.722656 119.035156 59.746094 119.292969 59.917969 119.433594 C 60.289062 119.742188 68.96875 127.078125 70.632812 128.132812 C 71.214844 128.511719 71.710938 128.628906 72.113281 128.628906 Z M 104.910156 158.308594 C 104.933594 158.308594 104.957031 158.308594 104.980469 158.300781 C 105.195312 158.261719 105.351562 158.050781 105.3125 157.835938 L 103.128906 144.675781 C 103.089844 144.460938 102.886719 144.304688 102.660156 144.34375 C 102.445312 144.382812 102.289062 144.589844 102.328125 144.808594 L 104.515625 157.964844 C 104.546875 158.167969 104.714844 158.308594 104.910156 158.308594 Z M 181.03125 310.0625 C 177.945312 308.589844 164.40625 302.695312 164.40625 302.695312 C 159.59375 303.117188 158.773438 308.753906 158.773438 308.753906 L 154.550781 308.890625 L 151.171875 305.789062 C 140.238281 302.726562 137.371094 311 137.371094 311 L 132.582031 309.3125 C 132.582031 309.3125 130.699219 319.589844 136.070312 319.589844 C 141.4375 319.589844 148.816406 319.589844 154.722656 319.589844 C 160.625 319.589844 160.355469 316.769531 160.355469 316.769531 L 181.511719 316.769531 C 182.648438 316.769531 183.546875 315.800781 183.453125 314.660156 C 183.339844 313.03125 182.8125 310.914062 181.03125 310.0625 Z M 75.035156 94.96875 C 75.453125 94.96875 75.796875 94.628906 75.796875 94.210938 C 75.796875 93.792969 75.453125 93.449219 75.035156 93.449219 C 74.617188 93.449219 74.277344 93.792969 74.277344 94.210938 C 74.277344 94.628906 74.609375 94.96875 75.035156 94.96875 Z M 87.371094 94.96875 C 87.792969 94.96875 88.132812 94.628906 88.132812 94.210938 C 88.132812 93.792969 87.792969 93.449219 87.371094 93.449219 C 86.953125 93.449219 86.613281 93.792969 86.613281 94.210938 C 86.613281 94.628906 86.953125 94.96875 87.371094 94.96875 Z M 51.585938 80.867188 C 55.144531 72.316406 64.613281 69.941406 76.71875 71.128906 C 81.601562 71.609375 84.925781 74.378906 87.210938 78.339844 L 68.15625 83.199219 C 68.15625 83.199219 67.195312 87.378906 66.007812 90.628906 L 69.054688 91 C 69.613281 90.378906 71.695312 88.339844 75.074219 88.257812 C 78.269531 88.171875 79.878906 89.660156 80.398438 90.265625 C 80.886719 90.140625 81.925781 89.953125 82.949219 90.234375 C 83.492188 89.730469 85.273438 88.273438 87.621094 88.25 C 89.316406 88.210938 90.929688 88.96875 92.410156 90.441406 C 92.464844 90.496094 92.503906 90.566406 92.519531 90.644531 C 92.558594 90.839844 93.480469 95.421875 91.652344 97.683594 C 91 98.492188 90.085938 98.910156 88.9375 98.925781 C 88.90625 98.925781 88.875 98.925781 88.84375 98.925781 C 86.898438 98.925781 85.367188 98.320312 84.28125 97.132812 C 84.257812 97.109375 84.242188 97.085938 84.226562 97.0625 C 84.21875 97.589844 84.09375 98.054688 83.738281 98.28125 C 82.988281 98.761719 82.097656 99.375 82.097656 99.375 L 81.636719 98.707031 C 81.636719 98.707031 82.546875 98.078125 83.304688 97.597656 C 83.550781 97.445312 83.40625 96.101562 83.003906 94.894531 C 82.988281 94.839844 82.980469 94.785156 82.988281 94.730469 C 82.660156 93.636719 82.546875 92.375 82.644531 90.984375 C 81.917969 90.816406 81.164062 90.921875 80.738281 91.015625 C 80.972656 92.117188 81.453125 95.304688 79.894531 97.4375 C 79.003906 98.660156 77.601562 99.320312 75.726562 99.398438 C 75.601562 99.40625 75.476562 99.40625 75.363281 99.40625 C 73.609375 99.40625 72.167969 98.855469 71.070312 97.777344 C 69.125 95.855469 68.859375 92.839844 68.828125 91.792969 L 65.722656 91.410156 C 65.550781 91.832031 65.378906 92.234375 65.210938 92.589844 L 68.976562 101.660156 C 68.976562 101.660156 82.589844 98.507812 92.183594 99.917969 C 92.191406 100.003906 92.199219 100.085938 92.199219 100.179688 C 93.046875 112.796875 82.21875 114.828125 82.21875 114.828125 C 71.625 115.121094 68.527344 114.40625 63.605469 112.625 C 49.726562 103.21875 48.03125 89.417969 51.585938 80.867188 Z M 79.375 105.800781 C 81.097656 106.28125 84.132812 105.664062 84.132812 105.664062 L 84.0625 103.730469 C 84.0625 103.730469 81.785156 104.210938 79.304688 103.800781 C 76.828125 103.382812 77.65625 105.3125 79.375 105.800781 Z M 83.453125 90.859375 C 83.226562 93.304688 83.730469 95.335938 84.871094 96.582031 C 85.808594 97.613281 87.179688 98.140625 88.921875 98.109375 C 89.828125 98.101562 90.511719 97.792969 91.015625 97.171875 C 92.457031 95.382812 91.875 91.628906 91.742188 90.914062 C 90.464844 89.675781 89.101562 89.039062 87.675781 89.039062 C 87.660156 89.039062 87.644531 89.039062 87.628906 89.039062 C 85.511719 89.070312 83.855469 90.480469 83.453125 90.859375 Z M 69.621094 91.574219 C 69.628906 92.265625 69.765625 95.367188 71.617188 97.195312 C 72.625 98.1875 73.996094 98.652344 75.671875 98.582031 C 77.285156 98.515625 78.484375 97.972656 79.222656 96.957031 C 80.746094 94.878906 79.996094 91.417969 79.863281 90.890625 C 79.632812 90.574219 78.261719 88.96875 75.082031 89.054688 C 71.992188 89.140625 70.046875 91.101562 69.621094 91.574219 Z M 57.359375 98.1875 C 59.390625 102.011719 63.984375 100.226562 63.984375 100.226562 L 59.808594 91.054688 C 59.800781 91.054688 54.710938 93.195312 57.359375 98.1875 Z M 83.40625 86.117188 C 83.203125 86.210938 83.117188 86.449219 83.21875 86.652344 C 83.3125 86.851562 83.550781 86.9375 83.753906 86.84375 C 83.824219 86.8125 85.480469 86.054688 87.605469 87.117188 C 87.660156 87.148438 87.722656 87.15625 87.785156 87.15625 C 87.929688 87.15625 88.078125 87.070312 88.148438 86.929688 C 88.25 86.730469 88.164062 86.488281 87.96875 86.386719 C 85.472656 85.148438 83.492188 86.078125 83.40625 86.117188 Z M 70.929688 87.675781 C 70.75 87.804688 70.710938 88.0625 70.84375 88.242188 C 70.921875 88.347656 71.046875 88.402344 71.167969 88.402344 C 71.253906 88.402344 71.339844 88.378906 71.410156 88.324219 C 71.433594 88.308594 73.648438 86.714844 76.476562 87.226562 C 76.703125 87.269531 76.910156 87.117188 76.949219 86.898438 C 76.988281 86.683594 76.839844 86.472656 76.625 86.425781 C 73.457031 85.851562 71.03125 87.597656 70.929688 87.675781 Z M 116.160156 157.460938 L 119.089844 155.507812 C 119.277344 155.382812 119.324219 155.136719 119.199219 154.949219 C 119.074219 154.765625 118.828125 154.71875 118.640625 154.839844 L 115.710938 156.796875 C 115.527344 156.917969 115.480469 157.167969 115.601562 157.355469 C 115.679688 157.46875 115.8125 157.53125 115.9375 157.53125 C 116.015625 157.53125 116.089844 157.507812 116.160156 157.460938 Z M 266.710938 311.101562 L 238.914062 311.101562 C 239.558594 310.535156 240.425781 309.914062 241.582031 309.085938 L 242.226562 308.621094 C 245.960938 305.929688 247.214844 304.316406 247.261719 304.253906 C 247.402344 304.078125 247.363281 303.828125 247.183594 303.6875 C 247.003906 303.550781 246.757812 303.589844 246.617188 303.757812 C 246.601562 303.773438 245.363281 305.355469 241.746094 307.960938 L 241.101562 308.425781 C 239.558594 309.535156 238.464844 310.328125 237.738281 311.101562 L 217.257812 311.101562 C 217.03125 311.101562 216.855469 311.28125 216.855469 311.503906 C 216.855469 311.730469 217.03125 311.90625 217.257812 311.90625 L 237.109375 311.90625 C 236.722656 312.550781 236.542969 313.265625 236.542969 314.195312 C 236.542969 314.421875 236.722656 314.597656 236.949219 314.597656 C 237.171875 314.597656 237.351562 314.421875 237.351562 314.195312 C 237.351562 313.25 237.574219 312.574219 238.109375 311.90625 L 266.703125 311.90625 C 266.929688 311.90625 267.105469 311.730469 267.105469 311.503906 C 267.105469 311.28125 266.9375 311.101562 266.710938 311.101562 Z M 349.148438 188.980469 C 348.457031 191.925781 347.101562 194.933594 342.34375 194.933594 L 324.746094 194.933594 C 324.667969 194.933594 324.605469 194.910156 324.542969 194.871094 L 319.296875 194.871094 C 319.296875 194.871094 307.0625 194.234375 296.421875 202.820312 C 287.085938 210.347656 284.347656 223.621094 283.820312 226.769531 C 283.828125 226.832031 283.835938 226.886719 283.820312 226.945312 C 283.820312 226.960938 283.792969 227.0625 283.753906 227.203125 C 283.730469 227.359375 283.714844 227.449219 283.714844 227.449219 L 283.683594 227.449219 C 282.777344 230.894531 277.351562 251.5 274.816406 262.03125 C 274.816406 262.386719 274.808594 262.582031 274.808594 262.582031 C 272.269531 274.824219 268.609375 297.394531 268.609375 297.394531 L 249.878906 297.394531 L 250.191406 300.519531 C 250.214844 300.742188 250.050781 300.9375 249.828125 300.960938 C 249.8125 300.960938 249.796875 300.960938 249.789062 300.960938 C 249.585938 300.960938 249.40625 300.804688 249.386719 300.597656 L 249.066406 297.386719 L 230.003906 297.386719 C 230.003906 297.386719 215.863281 252.554688 213.320312 239.839844 C 210.777344 227.125 209.34375 213.929688 215.070312 205.5 C 220.789062 197.074219 231.128906 192.917969 231.128906 192.917969 L 277.816406 192.917969 L 276.484375 189.507812 L 323.335938 189.507812 C 324.96875 190.800781 325.535156 192.972656 325.722656 194.105469 L 342.351562 194.105469 C 346.535156 194.105469 347.714844 191.546875 348.363281 188.777344 C 348.417969 188.5625 348.628906 188.421875 348.851562 188.476562 C 349.070312 188.546875 349.203125 188.761719 349.148438 188.980469 Z M 282.847656 227.457031 L 272.585938 227.457031 C 274.46875 236.988281 274.777344 251.632812 274.816406 258.621094 C 277.5 247.796875 281.894531 231.078125 282.847656 227.457031 Z M 107.503906 259.683594 L 98.53125 259.683594 C 102.160156 279.140625 106.496094 302.324219 107.210938 305.496094 C 108.496094 311.21875 106.785156 314.28125 106.707031 314.40625 C 106.628906 314.535156 106.496094 314.605469 106.359375 314.605469 C 106.289062 314.605469 106.21875 314.589844 106.15625 314.550781 C 105.964844 314.441406 105.894531 314.195312 106.007812 314 C 106.023438 313.96875 107.636719 311.054688 106.429688 305.675781 C 105.714844 302.488281 101.34375 279.148438 97.710938 259.652344 C 97.5625 259.589844 97.460938 259.449219 97.460938 259.277344 C 97.460938 259.164062 97.507812 259.0625 97.585938 258.984375 C 94.929688 244.695312 92.695312 232.628906 92.640625 232.34375 C 92.625 232.273438 92.640625 232.210938 92.65625 232.148438 C 92.085938 229.769531 90.613281 223.882812 87.535156 212.78125 C 83.320312 197.554688 67.796875 191.675781 59.964844 191.675781 C 55.742188 191.675781 53.417969 191.675781 52.152344 191.675781 C 52.082031 191.800781 51.960938 191.886719 51.804688 191.886719 L 32.277344 191.886719 C 28.570312 191.886719 26.71875 190.453125 25.683594 186.769531 C 25.621094 186.550781 25.742188 186.335938 25.960938 186.273438 C 26.175781 186.210938 26.394531 186.335938 26.457031 186.550781 C 27.394531 189.902344 28.921875 191.082031 32.269531 191.082031 L 50.601562 191.082031 L 50.0625 188.964844 L 105.09375 188.964844 L 106.054688 191.683594 C 106.054688 191.683594 132.574219 196.359375 147.492188 198.773438 C 162.40625 201.183594 166.027344 215.054688 165.570312 227.714844 C 165.121094 240.375 163.003906 294.347656 163.003906 294.347656 L 147.777344 294.113281 L 126.242188 302.039062 C 126.242188 302.039062 113.070312 274.792969 107.511719 259.6875 C 107.519531 259.675781 107.511719 259.683594 107.503906 259.683594 Z M 132.457031 230.722656 L 136.355469 245.964844 L 136.355469 230.722656 Z M 98.382812 258.867188 L 107.234375 258.867188 C 106.855469 257.804688 106.503906 256.804688 106.21875 255.890625 C 101.847656 242.175781 99.136719 233.429688 99.136719 233.429688 L 93.65625 233.429688 C 94.300781 236.878906 96.191406 247.121094 98.382812 258.867188 Z M 211.738281 89.867188 C 211.753906 92.527344 209.601562 94.722656 206.949219 94.761719 L 126.730469 96.039062 C 124.839844 96.085938 123.28125 94.621094 123.167969 92.746094 L 123.003906 90.054688 C 122.957031 89.339844 122.554688 88.730469 121.917969 88.402344 C 121.285156 88.078125 120.546875 88.125 119.949219 88.511719 L 106.496094 97.21875 C 106.429688 97.265625 106.351562 97.28125 106.28125 97.28125 C 106.171875 97.28125 106.0625 97.234375 105.988281 97.148438 C 105.855469 97 105.847656 96.785156 105.964844 96.628906 L 120.453125 78.066406 C 121.554688 76.65625 122.128906 74.890625 122.074219 73.097656 L 121.671875 61.460938 C 121.640625 60.515625 121.972656 59.625 122.625 58.933594 C 123.265625 58.242188 124.144531 57.855469 125.089844 57.832031 L 206.585938 55.644531 C 207.894531 55.605469 209.152344 56.09375 210.105469 57.019531 C 211.050781 57.941406 211.578125 59.171875 211.585938 60.492188 Z M 210.933594 89.867188 L 210.777344 60.492188 C 210.769531 59.390625 210.335938 58.359375 209.539062 57.589844 C 208.75 56.824219 207.671875 56.414062 206.609375 56.453125 L 125.113281 58.636719 C 124.382812 58.652344 123.707031 58.957031 123.210938 59.492188 C 122.71875 60.019531 122.453125 60.707031 122.476562 61.4375 L 122.871094 73.074219 C 122.941406 75.050781 122.304688 77.007812 121.082031 78.570312 L 108.070312 95.242188 L 119.507812 87.835938 C 119.972656 87.535156 120.492188 87.386719 121.019531 87.386719 C 121.445312 87.386719 121.878906 87.488281 122.28125 87.691406 C 123.183594 88.140625 123.746094 89.007812 123.808594 90.007812 L 123.972656 92.699219 C 124.058594 94.132812 125.242188 95.242188 126.667969 95.242188 C 126.683594 95.242188 126.699219 95.242188 126.714844 95.242188 L 206.933594 93.96875 C 209.152344 93.921875 210.941406 92.085938 210.933594 89.867188 Z M 201.875 65.492188 L 130.992188 66.796875 C 130.769531 66.800781 130.589844 66.980469 130.597656 67.207031 C 130.605469 67.421875 130.785156 67.601562 131 67.601562 C 131 67.601562 131.007812 67.601562 131.007812 67.601562 L 201.890625 66.296875 C 202.113281 66.289062 202.292969 66.113281 202.285156 65.886719 C 202.285156 65.664062 202.113281 65.484375 201.875 65.492188 Z M 201.875 73.6875 L 130.992188 74.988281 C 130.769531 74.996094 130.589844 75.175781 130.597656 75.402344 C 130.605469 75.617188 130.785156 75.796875 131 75.796875 C 131 75.796875 131.007812 75.796875 131.007812 75.796875 L 201.890625 74.492188 C 202.113281 74.484375 202.292969 74.308594 202.285156 74.082031 C 202.285156 73.859375 202.113281 73.679688 201.875 73.6875 Z M 201.875 81.363281 L 130.992188 82.664062 C 130.769531 82.671875 130.589844 82.851562 130.597656 83.078125 C 130.605469 83.292969 130.785156 83.472656 131 83.472656 C 131 83.472656 131.007812 83.472656 131.007812 83.472656 L 201.890625 82.167969 C 202.113281 82.160156 202.292969 81.984375 202.285156 81.757812 C 202.285156 81.542969 202.113281 81.363281 201.875 81.363281 Z M 201.875 81.363281 " fill-opacity="1" fill-rule="nonzero"/></g></svg>