<svg xmlns="http://www.w3.org/2000/svg" xmlns:xlink="http://www.w3.org/1999/xlink" width="500" zoomAndPan="magnify" viewBox="0 0 375 374.999991" height="500" preserveAspectRatio="xMidYMid meet" version="1.0"><defs><clipPath id="b755fd7c40"><path d="M 18 23.523438 L 375 23.523438 L 375 351.273438 L 18 351.273438 Z M 18 23.523438 " clip-rule="nonzero"/></clipPath></defs><path fill="#bbe5e1" d="M 102.191406 159.8125 L 107.898438 150.78125 L 106.597656 149.285156 C 106.597656 149.285156 124.167969 143.738281 128.027344 142.144531 C 131.898438 140.550781 129.742188 132.210938 127.085938 132.558594 C 124.433594 132.910156 113.160156 134.636719 113.160156 134.636719 L 108.488281 133.214844 L 113.574219 123.210938 L 122.402344 104.289062 L 167.175781 104.289062 L 142.195312 160.199219 Z M 331.59375 101.449219 C 327.5625 94.199219 327.5625 94.199219 327.5625 94.199219 L 302.566406 99.839844 L 303.375 103.871094 C 303.375 103.871094 290.921875 114.730469 284.886719 127.113281 C 279.710938 137.75 278.644531 142.011719 278.644531 142.011719 L 261.441406 169.675781 L 253.378906 164.300781 L 236.96875 178.582031 C 236.96875 178.582031 237.132812 178.753906 237.421875 179.058594 L 1.207031 179.058594 L 1.207031 347.6875 L 335.5625 347.6875 L 335.5625 179.058594 L 327.257812 179.058594 C 331.21875 164.820312 335.734375 148.539062 337.773438 140.929688 C 341.804688 125.894531 335.625 108.699219 331.59375 101.449219 Z M 331.59375 101.449219 " fill-opacity="1" fill-rule="nonzero"/><path fill="#00bfa8" d="M 193.75 217.339844 L 335.570312 217.339844 L 335.570312 347.695312 L 151.675781 347.695312 Z M 236.96875 178.582031 L 244.746094 171.816406 L 0.171875 171.816406 L 0.171875 181.128906 L 239.390625 181.128906 C 237.902344 179.5625 236.96875 178.582031 236.96875 178.582031 Z M 329.273438 171.816406 C 328.394531 174.964844 327.523438 178.109375 326.683594 181.128906 L 335.5625 181.128906 L 335.5625 171.816406 Z M 329.273438 171.816406 " fill-opacity="1" fill-rule="nonzero"/><path fill="#ffffff" d="M 107.625 134.839844 L 97.894531 138.347656 L 107.898438 150.78125 L 102.488281 159.695312 L 110.328125 159.695312 L 112.957031 171.902344 L 46.996094 171.902344 L 47.066406 165.910156 C 47.066406 165.910156 30.570312 142.945312 23.003906 130.25 C 15.4375 117.554688 20.03125 105.121094 27.332031 100.257812 C 34.632812 95.398438 48.691406 93.773438 48.691406 93.773438 L 53.019531 89.183594 L 69.515625 92.960938 L 75.1875 103.230469 L 75.1875 91.609375 L 81.136719 94.851562 C 90.601562 95.125 96.8125 99.714844 101.6875 106.46875 C 106.550781 113.21875 113.582031 123.21875 113.582031 123.21875 Z M 257.683594 200.832031 C 257.683594 200.832031 225.332031 189.894531 217.601562 187.6875 C 209.863281 185.476562 199.914062 183.632812 188.496094 189.15625 C 177.078125 194.679688 174.867188 209.039062 174.867188 209.039062 C 174.867188 209.039062 166.398438 213.460938 164.550781 223.027344 C 163.9375 226.21875 161.9375 237.660156 159.53125 251.507812 L 144.820312 290.847656 L 152.742188 290.847656 C 150.238281 305.4375 148.335938 316.539062 148.335938 316.539062 L 184.074219 316.539062 L 201.761719 235.539062 L 238.96875 246.949219 L 289.972656 246.949219 C 299.757812 246.949219 308.429688 240.648438 311.449219 231.34375 L 320.019531 204.910156 L 280.707031 204.910156 C 280.699219 204.925781 263.0625 207.011719 257.683594 200.832031 Z M 320.277344 204.070312 C 320.238281 204.203125 320.207031 204.316406 320.175781 204.417969 L 320.285156 204.070312 Z M 320.277344 204.070312 " fill-opacity="1" fill-rule="nonzero"/><path fill="#f79a91" d="M 253.789062 164.464844 C 253.789062 164.464844 245.617188 171.078125 240.9375 175.363281 C 236.851562 175.75 231.597656 172.25 231.597656 172.25 C 231.597656 172.25 221.859375 172.25 215.4375 172.25 C 209.015625 172.25 212.128906 168.945312 216.605469 167 C 221.082031 165.054688 231.597656 160.582031 236.851562 159.804688 C 242.113281 159.011719 253.789062 164.464844 253.789062 164.464844 Z M 326.519531 44.605469 C 308.351562 31.753906 286.820312 39.019531 282.761719 49.21875 C 278.707031 59.417969 280.109375 68.355469 278.289062 70.035156 C 276.472656 71.707031 273.671875 75.34375 274.933594 76.460938 C 276.195312 77.582031 278.988281 77.863281 278.988281 77.863281 C 278.988281 77.863281 280.941406 87.921875 283.324219 90.996094 C 285.707031 94.066406 289.332031 96.160156 295.621094 95.609375 C 301.914062 95.046875 306.386719 94.066406 306.386719 94.066406 L 307.734375 98.742188 L 326.238281 94.742188 L 324.425781 86.527344 C 324.425781 86.511719 344.695312 57.457031 326.519531 44.605469 Z M 162.636719 316.382812 L 148.335938 316.546875 L 152.984375 290.917969 L 151.722656 291.097656 C 151.722656 291.097656 148.625 298.132812 146.375 304.324219 C 144.125 310.515625 134.519531 319.976562 129.671875 323.367188 C 124.820312 326.757812 122.882812 334.515625 132.09375 334.996094 C 138.691406 335.347656 148.648438 333.214844 153.761719 331.988281 C 155.460938 333.199219 157.132812 334.820312 158.292969 336.941406 C 163.4375 336.941406 172.46875 336.941406 172.46875 336.941406 L 177.824219 316.453125 L 162.574219 316.5625 Z M 127.085938 132.566406 C 123.886719 132.566406 120.640625 133.246094 120.640625 133.246094 C 120.640625 133.246094 119.636719 130.738281 112.800781 132 C 107.570312 132.964844 102.652344 134.628906 97.894531 138.347656 L 106.597656 149.285156 C 106.597656 149.285156 123.140625 144.402344 128.027344 142.144531 C 132.910156 139.894531 130.277344 132.566406 127.085938 132.566406 Z M 181.007812 87.9375 C 179.488281 88.636719 173.988281 91.5625 173.988281 91.5625 C 173.988281 91.5625 171.878906 91.5625 165.554688 91.796875 C 159.234375 92.027344 153.847656 93.3125 151.273438 96.472656 C 149.164062 99.0625 146.265625 102.976562 145.292969 104.3125 L 158.207031 104.3125 C 161.851562 101.207031 171.660156 101.628906 174.445312 99.394531 C 177.371094 97.054688 182.050781 92.144531 183.808594 89.804688 C 185.570312 87.46875 182.527344 87.238281 181.007812 87.9375 Z M 59.152344 39.183594 C 45.789062 45.0625 44.582031 54.28125 45.117188 61.898438 C 45.65625 69.515625 56.078125 78.734375 56.078125 78.734375 L 56.484375 90.09375 L 69.515625 92.960938 L 75.1875 103.230469 L 75.1875 91.609375 L 75.066406 87.152344 C 75.066406 87.152344 87.769531 86.613281 90.976562 77 C 94.183594 67.375 91.242188 56.6875 89.109375 49.210938 C 86.960938 41.726562 72.519531 33.308594 59.152344 39.183594 Z M 59.152344 39.183594 " fill-opacity="1" fill-rule="nonzero"/><g clip-path="url(#b755fd7c40)"><path fill="#27407e" d="M 275.59375 34.796875 C 280.492188 31.394531 284.429688 32.890625 284.429688 32.890625 C 284.429688 32.890625 285.378906 27.453125 291.09375 27.589844 C 296.804688 27.722656 299.117188 30.851562 299.117188 30.851562 C 299.117188 30.851562 302.105469 27.179688 306.730469 27.863281 C 311.355469 28.546875 313.394531 31.808594 313.394531 31.808594 C 313.394531 31.808594 328.214844 30.445312 336.101562 42.949219 C 343.984375 55.449219 333.011719 81.84375 324.425781 86.519531 C 317.605469 83.582031 311.214844 76.246094 311.214844 76.246094 C 311.214844 76.246094 316.109375 71.625 314.890625 67.273438 C 313.667969 62.925781 308.636719 60.886719 304.964844 62.925781 L 302.652344 71.078125 C 302.652344 71.078125 298.84375 71.753906 297.078125 66.871094 C 295.3125 61.984375 294.222656 51.925781 294.222656 51.925781 C 294.222656 51.925781 282.933594 48.667969 277.765625 47.445312 C 272.605469 46.207031 270.699219 38.1875 275.59375 34.796875 Z M 283.089844 68.902344 C 283.089844 69.492188 283.566406 69.964844 284.15625 69.964844 C 284.75 69.964844 285.222656 69.492188 285.222656 68.902344 C 285.222656 68.308594 284.75 67.835938 284.15625 67.835938 C 283.566406 67.835938 283.089844 68.308594 283.089844 68.902344 Z M 288.304688 65.34375 C 288.421875 65.34375 288.546875 65.304688 288.648438 65.222656 C 288.867188 65.035156 288.890625 64.707031 288.695312 64.488281 C 285.863281 61.246094 280.839844 63.199219 280.628906 63.285156 C 280.367188 63.394531 280.234375 63.6875 280.34375 63.953125 C 280.453125 64.21875 280.746094 64.347656 281.011719 64.242188 C 281.058594 64.226562 285.566406 62.476562 287.910156 65.167969 C 288.019531 65.28125 288.164062 65.34375 288.304688 65.34375 Z M 283.136719 82.957031 C 283.191406 82.972656 283.699219 83.074219 284.421875 83.074219 C 285.675781 83.074219 287.597656 82.753906 288.960938 81.050781 C 289.136719 80.828125 289.101562 80.5 288.882812 80.320312 C 288.65625 80.140625 288.335938 80.179688 288.148438 80.398438 C 286.40625 82.578125 283.488281 81.96875 283.363281 81.9375 C 283.082031 81.875 282.808594 82.054688 282.746094 82.335938 C 282.683594 82.617188 282.863281 82.894531 283.136719 82.957031 Z M 310.578125 67.074219 C 311.316406 67.8125 311.660156 68.871094 311.597656 70.222656 C 311.582031 70.511719 311.796875 70.753906 312.085938 70.769531 C 312.09375 70.769531 312.101562 70.769531 312.109375 70.769531 C 312.382812 70.769531 312.617188 70.550781 312.625 70.277344 C 312.703125 68.621094 312.257812 67.296875 311.308594 66.339844 C 309.671875 64.699219 307.136719 64.800781 307.027344 64.800781 C 306.738281 64.816406 306.519531 65.058594 306.535156 65.34375 C 306.550781 65.632812 306.792969 65.859375 307.074219 65.835938 C 307.097656 65.835938 309.253906 65.75 310.578125 67.074219 Z M 147.394531 328.875 C 154.621094 323.296875 153.699219 316.605469 153.699219 316.605469 L 148.34375 316.546875 L 149.070312 310.984375 L 144.25 308.328125 C 140.492188 314.03125 133.554688 320.644531 129.671875 323.367188 C 124.820312 326.757812 122.882812 334.515625 132.09375 334.996094 C 133.773438 335.082031 135.679688 334.996094 137.65625 334.828125 C 132.589844 337.820312 126.699219 341.121094 122.976562 342.605469 C 115.347656 345.65625 117.746094 351.320312 122.105469 351.320312 L 166.738281 351.320312 C 169.363281 351.320312 171.566406 349.328125 171.824219 346.714844 L 172.796875 336.933594 L 158.285156 336.933594 C 155.242188 330.617188 147.394531 328.875 147.394531 328.875 Z M 349.785156 163.007812 C 340.546875 164.644531 328.929688 176.03125 325.808594 184.371094 C 323.863281 189.550781 317.007812 212.640625 312.09375 229.375 C 308.964844 240.042969 299.132812 247.347656 288.011719 247.277344 L 239.484375 246.964844 C 239.484375 246.785156 239.398438 246.613281 239.234375 246.515625 L 175.132812 208.589844 C 174.882812 208.449219 174.570312 208.527344 174.421875 208.769531 C 174.273438 209.015625 174.359375 209.328125 174.601562 209.476562 L 237.996094 246.980469 C 223.082031 247.546875 221.523438 261.234375 218.972656 275.507812 C 217.027344 286.421875 211.28125 322.402344 208.507812 339.835938 C 207.707031 344.894531 211.617188 349.476562 216.746094 349.476562 L 361.648438 349.476562 C 368.910156 349.476562 374.804688 343.59375 374.804688 336.328125 L 374.804688 184.363281 C 374.804688 165.613281 361.773438 160.894531 349.785156 163.007812 Z M 120.898438 133.921875 C 120.992188 133.648438 120.875 133.324219 120.601562 133.222656 C 120.328125 133.121094 120.058594 133.230469 119.957031 133.5 C 119.949219 133.507812 119.566406 133.992188 117.457031 134.300781 C 114.875 134.683594 111.394531 134.964844 111.355469 134.972656 C 111.066406 134.996094 110.855469 135.242188 110.878906 135.53125 C 110.902344 135.804688 111.128906 136.007812 111.394531 136.007812 C 111.410156 136.007812 111.425781 136.007812 111.433594 136.007812 C 111.472656 136.007812 114.980469 135.71875 117.605469 135.328125 C 120.269531 134.933594 120.796875 134.21875 120.898438 133.921875 Z M 128.667969 134.171875 C 128.746094 133.898438 128.589844 133.59375 128.316406 133.515625 C 128.042969 133.4375 127.757812 133.585938 127.679688 133.859375 C 127.273438 134.589844 122.191406 136.222656 117.707031 137.320312 C 117.425781 137.390625 117.261719 137.671875 117.324219 137.945312 C 117.378906 138.175781 117.597656 138.339844 117.832031 138.339844 C 117.871094 138.339844 117.917969 138.332031 117.957031 138.324219 C 121.785156 137.390625 128.253906 135.601562 128.667969 134.171875 Z M 119.417969 140.667969 C 123.242188 139.734375 129.71875 137.945312 130.128906 136.503906 C 130.207031 136.230469 130.050781 135.929688 129.78125 135.851562 C 129.507812 135.773438 129.226562 135.921875 129.140625 136.191406 C 128.738281 136.925781 123.652344 138.558594 119.171875 139.65625 C 118.890625 139.726562 118.726562 140.003906 118.789062 140.277344 C 118.84375 140.511719 119.0625 140.675781 119.292969 140.675781 C 119.339844 140.683594 119.378906 140.675781 119.417969 140.667969 Z M 119.488281 143.40625 C 119.527344 143.40625 119.574219 143.398438 119.613281 143.390625 C 123.4375 142.457031 129.914062 140.667969 130.324219 139.226562 C 130.402344 138.953125 130.246094 138.652344 129.972656 138.574219 C 129.703125 138.496094 129.414062 138.644531 129.335938 138.914062 C 128.929688 139.648438 123.847656 141.28125 119.363281 142.378906 C 119.085938 142.449219 118.921875 142.726562 118.984375 143 C 119.046875 143.25 119.261719 143.40625 119.488281 143.40625 Z M 56.476562 90.09375 L 56.070312 78.734375 C 56.070312 78.734375 59.566406 77.402344 61.140625 72.695312 C 62.710938 67.992188 60.421875 63.992188 60.421875 63.992188 C 60.421875 63.992188 63.707031 63.703125 66.417969 59.714844 C 69.132812 55.714844 67.988281 50.578125 67.988281 50.578125 C 77.84375 47.4375 78.304688 40.949219 78.304688 40.949219 C 85.113281 43.390625 89.09375 49.210938 89.09375 49.210938 C 89.09375 49.210938 90.835938 47.15625 89.832031 43.734375 C 88.835938 40.3125 86.117188 38.171875 86.117188 38.171875 C 86.117188 38.171875 86.117188 36.746094 83.691406 34.171875 C 81.261719 31.605469 77.121094 32.601562 77.121094 32.601562 C 77.121094 32.601562 75.40625 29.320312 71.40625 28.75 C 67.40625 28.183594 64.40625 31.179688 64.40625 31.179688 C 64.40625 31.179688 61.980469 29.179688 57.269531 29.464844 C 52.558594 29.753906 50.273438 33.746094 50.273438 33.746094 C 50.273438 33.746094 44.988281 33.027344 41.703125 35.316406 C 38.417969 37.597656 38.558594 42.164062 38.558594 42.164062 C 38.558594 42.164062 34.84375 42.164062 32.84375 45.585938 C 30.84375 49.007812 32.703125 52.578125 32.703125 52.578125 C 32.703125 52.578125 28.132812 53.722656 26.5625 57.144531 C 24.988281 60.570312 26.703125 64.996094 26.703125 64.996094 C 26.703125 64.996094 22.988281 66.417969 21.84375 70.558594 C 20.699219 74.695312 22.699219 78.257812 22.699219 78.257812 C 22.699219 78.257812 18.988281 80.828125 18.847656 85.53125 C 18.707031 90.238281 21.84375 92.808594 21.84375 92.808594 C 21.84375 92.808594 21.414062 100.082031 27.300781 100.242188 C 37.039062 95.273438 48.660156 93.757812 48.660156 93.757812 L 52.988281 89.167969 Z M 87.199219 56.789062 C 90.476562 56.789062 93.140625 59.449219 93.140625 62.722656 C 93.140625 63.640625 92.921875 64.496094 92.554688 65.273438 C 93.441406 66 94.222656 66.957031 94.625 68.285156 C 96.042969 72.90625 92.828125 75.605469 92.828125 75.605469 C 92.828125 75.605469 95.53125 76.507812 96.167969 80.359375 C 96.8125 84.210938 93.34375 87.9375 93.34375 87.9375 C 93.34375 87.9375 97.453125 89.21875 97.964844 93.71875 C 98.417969 97.683594 96.472656 99.847656 96.011719 100.296875 C 92.082031 97.054688 87.300781 95.03125 81.136719 94.859375 L 75.1875 91.617188 L 75.15625 90.386719 C 71.71875 89.296875 65.464844 87.105469 66.339844 85.796875 C 67.660156 83.820312 70.636719 86.753906 75.074219 87.160156 C 75.074219 87.160156 87.777344 86.621094 90.984375 77.007812 C 92.214844 73.320312 92.523438 69.476562 92.339844 65.71875 C 91.308594 67.476562 89.402344 68.667969 87.214844 68.667969 C 85.90625 68.667969 84.703125 68.238281 83.722656 67.515625 C 83.699219 67.742188 83.652344 67.945312 83.582031 68.089844 C 83.292969 68.738281 82.609375 69.25 81.75 69.46875 C 80.777344 69.710938 79.019531 69.941406 78.949219 69.957031 C 78.925781 69.957031 78.902344 69.964844 78.878906 69.964844 C 78.621094 69.964844 78.402344 69.78125 78.367188 69.515625 C 78.328125 69.234375 78.527344 68.96875 78.808594 68.929688 C 78.824219 68.929688 80.582031 68.691406 81.496094 68.464844 C 81.921875 68.355469 82.445312 68.089844 82.632812 67.671875 C 82.761719 67.375 82.707031 67.011719 82.484375 66.582031 C 82.421875 66.472656 82.414062 66.347656 82.4375 66.238281 C 81.765625 65.328125 81.347656 64.21875 81.285156 63.019531 C 80.519531 62.519531 79.410156 62.863281 78.917969 63.074219 C 78.738281 66.183594 76.15625 68.667969 73 68.667969 C 69.726562 68.667969 67.0625 66.007812 67.0625 62.730469 C 67.0625 59.457031 69.726562 56.796875 73 56.796875 C 76.023438 56.796875 78.511719 59.058594 78.886719 61.976562 C 79.515625 61.765625 80.476562 61.570312 81.347656 61.882812 C 81.742188 59.003906 84.21875 56.789062 87.199219 56.789062 Z M 77.890625 62.722656 C 77.890625 60.023438 75.6875 57.824219 72.984375 57.824219 C 70.285156 57.824219 68.082031 60.023438 68.082031 62.722656 C 68.082031 65.421875 70.285156 67.625 72.984375 67.625 C 75.6875 67.625 77.890625 65.421875 77.890625 62.722656 Z M 87.199219 57.824219 C 84.5 57.824219 82.296875 60.023438 82.296875 62.722656 C 82.296875 65.421875 84.5 67.625 87.199219 67.625 C 89.902344 67.625 92.105469 65.421875 92.105469 62.722656 C 92.105469 60.023438 89.910156 57.824219 87.199219 57.824219 Z M 73.796875 61.921875 C 73.234375 61.921875 72.785156 62.375 72.785156 62.933594 C 72.785156 63.492188 73.234375 63.945312 73.796875 63.945312 C 74.355469 63.945312 74.808594 63.492188 74.808594 62.933594 C 74.808594 62.375 74.355469 61.921875 73.796875 61.921875 Z M 86.273438 62.933594 C 86.273438 63.492188 86.726562 63.945312 87.285156 63.945312 C 87.847656 63.945312 88.296875 63.492188 88.296875 62.933594 C 88.296875 62.375 87.847656 61.921875 87.285156 61.921875 C 86.726562 61.921875 86.273438 62.375 86.273438 62.933594 Z M 79.609375 75.535156 C 80.203125 75.535156 80.855469 75.433594 81.558594 75.171875 C 81.820312 75.070312 81.960938 74.773438 81.859375 74.507812 C 81.757812 74.246094 81.464844 74.105469 81.199219 74.207031 C 78.363281 75.257812 76.589844 73.25 76.519531 73.164062 C 76.332031 72.945312 76.007812 72.921875 75.789062 73.109375 C 75.570312 73.296875 75.546875 73.621094 75.734375 73.832031 C 75.75 73.847656 77.214844 75.535156 79.609375 75.535156 Z M 82.894531 56.71875 C 82.980469 56.648438 85.121094 55.023438 88.585938 56.429688 C 88.851562 56.539062 89.152344 56.40625 89.261719 56.140625 C 89.371094 55.878906 89.238281 55.574219 88.976562 55.464844 C 84.917969 53.816406 82.359375 55.816406 82.25 55.902344 C 82.023438 56.078125 81.992188 56.398438 82.171875 56.625 C 82.273438 56.757812 82.429688 56.820312 82.578125 56.820312 C 82.683594 56.828125 82.800781 56.789062 82.894531 56.71875 Z M 68.875 56.980469 C 68.992188 56.914062 71.6875 55.238281 74.964844 56.664062 C 75.226562 56.78125 75.53125 56.65625 75.640625 56.390625 C 75.757812 56.125 75.632812 55.824219 75.367188 55.714844 C 71.578125 54.074219 68.449219 56.027344 68.316406 56.109375 C 68.074219 56.265625 68.003906 56.585938 68.160156 56.828125 C 68.261719 56.980469 68.425781 57.066406 68.597656 57.066406 C 68.695312 57.066406 68.789062 57.035156 68.875 56.980469 Z M 90.042969 109.261719 C 89.777344 109.160156 89.472656 109.292969 89.371094 109.554688 C 89.269531 109.820312 89.402344 110.125 89.667969 110.226562 C 89.699219 110.242188 92.789062 111.453125 95.855469 115.101562 C 98.691406 118.480469 102.089844 124.679688 102.175781 135.082031 C 102.175781 135.367188 102.410156 135.59375 102.691406 135.59375 C 102.691406 135.59375 102.691406 135.59375 102.699219 135.59375 C 102.988281 135.59375 103.210938 135.359375 103.210938 135.074219 C 103.050781 114.464844 90.167969 109.316406 90.042969 109.261719 Z M 98.308594 138.042969 C 98.136719 137.8125 97.816406 137.765625 97.585938 137.9375 L 74.675781 154.667969 C 74.660156 154.589844 74.636719 154.515625 74.582031 154.445312 L 50.894531 123.433594 C 50.722656 123.210938 50.398438 123.164062 50.171875 123.332031 C 49.945312 123.503906 49.898438 123.832031 50.070312 124.058594 L 73.765625 155.074219 C 73.8125 155.136719 73.875 155.175781 73.9375 155.214844 L 71.703125 156.847656 C 71.46875 157.019531 71.421875 157.335938 71.59375 157.570312 C 71.695312 157.710938 71.851562 157.78125 72.011719 157.78125 C 72.121094 157.78125 72.222656 157.75 72.316406 157.679688 L 98.207031 138.777344 C 98.433594 138.597656 98.480469 138.277344 98.308594 138.042969 Z M 106.988281 148.953125 C 106.800781 148.734375 106.472656 148.710938 106.257812 148.90625 C 106.039062 149.089844 106.015625 149.417969 106.210938 149.636719 L 107.269531 150.859375 C 106.015625 153.082031 99 165.257812 92.6875 170.8125 C 92.46875 171 92.453125 171.324219 92.640625 171.542969 C 92.742188 171.660156 92.882812 171.722656 93.03125 171.722656 C 93.15625 171.722656 93.273438 171.683594 93.375 171.589844 C 100.363281 165.4375 108 151.683594 108.351562 151.042969 C 108.453125 150.859375 108.429688 150.617188 108.289062 150.453125 Z M 78.488281 108.492188 C 79.742188 108.492188 80.761719 109.507812 80.761719 110.761719 C 80.761719 112.015625 79.742188 113.035156 78.488281 113.035156 C 77.238281 113.035156 76.214844 112.015625 76.214844 110.761719 C 76.214844 109.507812 77.238281 108.492188 78.488281 108.492188 Z M 78.488281 109.523438 C 77.804688 109.523438 77.253906 110.085938 77.253906 110.761719 C 77.253906 111.445312 77.804688 112 78.488281 112 C 79.175781 112 79.726562 111.4375 79.726562 110.761719 C 79.734375 110.078125 79.175781 109.523438 78.488281 109.523438 Z M 86.964844 127.503906 C 88.21875 127.503906 89.238281 128.523438 89.238281 129.773438 C 89.238281 131.027344 88.21875 132.046875 86.964844 132.046875 C 85.714844 132.046875 84.695312 131.027344 84.695312 129.773438 C 84.6875 128.523438 85.707031 127.503906 86.964844 127.503906 Z M 86.964844 128.539062 C 86.28125 128.539062 85.730469 129.097656 85.730469 129.773438 C 85.730469 130.460938 86.289062 131.011719 86.964844 131.011719 C 87.644531 131.011719 88.203125 130.453125 88.203125 129.773438 C 88.203125 129.097656 87.652344 128.539062 86.964844 128.539062 Z M 64.097656 101.691406 C 64.261719 101.691406 64.414062 101.613281 64.515625 101.480469 L 68.835938 95.570312 C 69.007812 95.335938 68.953125 95.015625 68.726562 94.84375 C 68.496094 94.675781 68.175781 94.726562 68.003906 94.953125 L 63.917969 100.554688 L 49.734375 95.414062 C 49.46875 95.320312 49.167969 95.453125 49.074219 95.722656 C 48.980469 95.996094 49.113281 96.292969 49.382812 96.386719 L 63.933594 101.660156 C 63.980469 101.683594 64.042969 101.691406 64.097656 101.691406 Z M 120.875 72.617188 L 109.679688 77.949219 C 109.609375 77.980469 109.535156 77.996094 109.457031 77.996094 C 109.308594 77.996094 109.160156 77.933594 109.058594 77.808594 C 108.910156 77.628906 108.894531 77.371094 109.027344 77.179688 L 115.261719 68.230469 C 117.089844 65.609375 118.082031 62.535156 118.121094 59.339844 L 118.476562 30.640625 C 118.507812 28.453125 120.238281 26.679688 122.425781 26.59375 L 202.445312 23.601562 C 203.582031 23.554688 204.648438 23.972656 205.464844 24.765625 C 206.277344 25.5625 206.71875 26.617188 206.703125 27.753906 L 206.113281 68.738281 C 206.097656 69.835938 205.652344 70.859375 204.859375 71.632812 C 204.066406 72.394531 203.03125 72.789062 201.925781 72.773438 L 128.097656 71.078125 C 125.617188 71.015625 123.117188 71.554688 120.875 72.617188 Z M 120.429688 71.6875 C 122.8125 70.550781 125.46875 69.980469 128.113281 70.042969 L 201.941406 71.738281 C 202.765625 71.761719 203.542969 71.453125 204.136719 70.882812 C 204.726562 70.316406 205.0625 69.546875 205.078125 68.722656 L 205.667969 27.738281 C 205.683594 26.890625 205.347656 26.097656 204.742188 25.507812 C 204.167969 24.9375 203.410156 24.636719 202.601562 24.636719 C 202.5625 24.636719 202.523438 24.636719 202.484375 24.636719 L 122.460938 27.636719 C 120.828125 27.699219 119.535156 29.03125 119.511719 30.65625 L 119.15625 59.355469 C 119.109375 62.761719 118.058594 66.03125 116.109375 68.824219 L 110.996094 76.167969 Z M 131.195312 35.945312 C 131.195312 35.945312 131.203125 35.945312 131.195312 35.945312 L 194.320312 35.011719 C 194.605469 35.003906 194.832031 34.773438 194.832031 34.492188 C 194.824219 34.203125 194.589844 33.984375 194.3125 33.976562 L 131.195312 34.910156 C 130.910156 34.917969 130.683594 35.152344 130.683594 35.433594 C 130.683594 35.722656 130.917969 35.945312 131.195312 35.945312 Z M 192.210938 45.1875 C 192.210938 45.1875 192.203125 45.1875 192.210938 45.1875 L 131.898438 45.421875 C 131.609375 45.421875 131.382812 45.65625 131.382812 45.941406 C 131.382812 46.230469 131.617188 46.457031 131.898438 46.457031 L 192.210938 46.222656 C 192.496094 46.222656 192.722656 45.988281 192.722656 45.703125 C 192.722656 45.421875 192.488281 45.1875 192.210938 45.1875 Z M 173.035156 56.164062 L 132.363281 56.164062 C 132.078125 56.164062 131.851562 56.398438 131.851562 56.679688 C 131.851562 56.957031 132.085938 57.191406 132.363281 57.191406 L 173.035156 57.191406 C 173.324219 57.191406 173.550781 56.957031 173.550781 56.679688 C 173.550781 56.398438 173.324219 56.164062 173.035156 56.164062 Z M 307.492188 97.957031 C 312.171875 94.175781 312.15625 92.605469 306.394531 94.066406 Z M 254.933594 199.113281 C 259.347656 203.78125 267.777344 205.835938 274.691406 205.835938 C 277.585938 205.835938 280.210938 205.476562 282.164062 204.792969 C 291.480469 201.539062 297.570312 182.792969 297.808594 182.023438 L 313.355469 141.125 C 313.457031 140.859375 313.324219 140.558594 313.050781 140.457031 C 312.785156 140.355469 312.484375 140.488281 312.382812 140.757812 L 296.828125 181.679688 C 296.765625 181.867188 290.648438 200.730469 281.8125 203.8125 C 275.445312 206.03125 261.667969 204.730469 255.675781 198.398438 C 249.726562 192.113281 239.863281 180.902344 239.769531 180.785156 C 239.585938 180.566406 239.257812 180.550781 239.039062 180.738281 C 238.820312 180.925781 238.804688 181.25 238.992188 181.46875 C 239.101562 181.585938 248.972656 192.8125 254.933594 199.113281 Z M 265.171875 172.953125 C 265.1875 172.957031 265.210938 172.957031 265.226562 172.964844 L 263 178.304688 C 262.890625 178.566406 263.015625 178.871094 263.28125 178.980469 C 263.339844 179.003906 263.410156 179.019531 263.480469 179.019531 C 263.683594 179.019531 263.878906 178.902344 263.957031 178.699219 L 278.304688 144.246094 C 278.410156 143.980469 278.289062 143.675781 278.023438 143.566406 C 277.757812 143.460938 277.453125 143.582031 277.34375 143.847656 L 265.621094 172.003906 L 261.746094 169.25 C 261.511719 169.085938 261.191406 169.140625 261.023438 169.371094 C 260.859375 169.605469 260.914062 169.925781 261.148438 170.097656 Z M 212.90625 170.390625 C 212.96875 170.390625 213.03125 170.382812 213.085938 170.359375 C 213.148438 170.335938 219.058594 168.199219 227.542969 169.007812 C 227.824219 169.046875 228.078125 168.828125 228.109375 168.539062 C 228.132812 168.253906 227.929688 168.003906 227.644531 167.980469 C 218.902344 167.148438 212.976562 169.300781 212.730469 169.394531 C 212.464844 169.496094 212.324219 169.792969 212.425781 170.058594 C 212.503906 170.265625 212.699219 170.390625 212.90625 170.390625 Z M 219.695312 166.65625 C 219.765625 166.65625 219.835938 166.640625 219.898438 166.617188 C 219.9375 166.601562 223.992188 164.875 229.339844 165.414062 C 229.621094 165.4375 229.878906 165.234375 229.910156 164.945312 C 229.941406 164.660156 229.730469 164.410156 229.449219 164.378906 C 223.835938 163.816406 219.671875 165.589844 219.492188 165.660156 C 219.226562 165.777344 219.113281 166.082031 219.222656 166.339844 C 219.304688 166.539062 219.5 166.65625 219.695312 166.65625 Z M 304.949219 100.976562 C 304.878906 100.695312 304.597656 100.53125 304.316406 100.601562 C 304.039062 100.671875 303.875 100.953125 303.945312 101.230469 L 305.28125 106.601562 C 305.320312 106.761719 305.445312 106.894531 305.601562 106.957031 C 305.664062 106.980469 305.726562 106.988281 305.789062 106.988281 C 305.890625 106.988281 305.992188 106.957031 306.078125 106.902344 C 306.179688 106.832031 316.015625 100.265625 328.960938 99.613281 C 329.25 99.597656 329.46875 99.355469 329.453125 99.070312 C 329.4375 98.78125 329.21875 98.570312 328.90625 98.578125 C 317.535156 99.15625 308.496094 104.195312 306.109375 105.652344 Z M 304.949219 100.976562 " fill-opacity="1" fill-rule="nonzero"/></g></svg>