<svg xmlns="http://www.w3.org/2000/svg" xmlns:xlink="http://www.w3.org/1999/xlink" width="500" zoomAndPan="magnify" viewBox="0 0 375 374.999991" height="500" preserveAspectRatio="xMidYMid meet" version="1.0"><path fill="#bbe5e1" d="M 335.90625 181.328125 C 336.621094 177.484375 337.035156 172.402344 336.429688 166.035156 C 334.890625 149.675781 332.105469 131.773438 329.023438 117.578125 C 325.929688 103.378906 316.667969 94.433594 304.9375 92.273438 C 293.199219 90.113281 283.164062 90.757812 283.164062 90.757812 L 274.921875 139.125 L 271.734375 135.6875 L 257.523438 149.332031 L 247.351562 99.753906 C 247.351562 99.753906 229.9375 102.121094 223.800781 117.578125 C 217.675781 133.039062 218.230469 144.320312 217.675781 160.472656 C 217.382812 168.941406 217.214844 175.707031 218.375 181.328125 L 9.234375 181.328125 L 9.234375 351.148438 L 347.007812 351.148438 L 347.007812 181.328125 Z M 268.191406 181.304688 C 268.191406 181.304688 268.207031 181.320312 268.214844 181.328125 L 268.164062 181.328125 Z M 203.296875 173.835938 L 71.078125 174.15625 L 71.078125 166.84375 L 120.574219 166.84375 L 145.320312 111.144531 L 225.230469 111.585938 L 203.3125 166.964844 L 203.3125 173.835938 Z M 203.296875 173.835938 " fill-opacity="1" fill-rule="nonzero"/><path fill="#00bfa8" d="M 228.648438 351.148438 L 118.550781 351.148438 C 118.886719 351.042969 119.222656 350.9375 119.566406 350.828125 C 169.285156 335.332031 180.691406 280.621094 180.691406 280.621094 Z M 217.542969 173.164062 L 203.296875 173.164062 L 203.296875 169.269531 L 122.296875 169.167969 L 121.382812 167.957031 L 120.628906 173.164062 L 0 173.164062 L 0 181.960938 L 218.300781 181.960938 C 218.300781 181.960938 217.796875 177.941406 217.542969 173.164062 Z M 217.542969 173.164062 " fill-opacity="1" fill-rule="nonzero"/><path fill="#ffffff" d="M 340.902344 214.777344 C 340.902344 214.777344 333.324219 214.777344 321.773438 214.777344 C 310.21875 214.777344 295.039062 214.601562 283.691406 226.324219 C 271.117188 239.316406 273.648438 254.917969 273.648438 254.917969 L 258.304688 254.917969 L 248.640625 273.09375 L 196.160156 273.09375 C 196.160156 273.09375 192.558594 244.882812 191.804688 230.300781 C 191.046875 215.71875 198.816406 200.761719 213.78125 197.167969 C 228.746094 193.566406 257.996094 188.480469 257.996094 188.480469 L 268.199219 181.296875 L 272.359375 185.941406 C 272.359375 185.941406 281.59375 198.496094 295.222656 199.339844 C 308.851562 200.195312 318.972656 190.328125 318.972656 190.328125 L 332.882812 190.328125 C 340.925781 194.949219 340.902344 214.777344 340.902344 214.777344 Z M 128.535156 82.761719 C 117.773438 81.039062 117.773438 81.039062 117.773438 81.039062 L 112.277344 108.664062 L 76.890625 79.964844 C 76.890625 79.964844 60.324219 82.328125 50.425781 86.628906 C 40.53125 90.929688 37.300781 106.199219 39.667969 119.53125 C 42.03125 132.863281 46.550781 152.222656 48.488281 161.039062 C 50.425781 169.855469 62.691406 173.402344 62.691406 173.402344 L 71.085938 173.402344 L 71.085938 166.851562 L 120.574219 166.851562 L 145.320312 111.152344 L 154.402344 110.816406 C 154.402344 110.816406 151.929688 101.929688 147.246094 94.773438 C 142.535156 87.613281 139.292969 84.480469 128.535156 82.761719 Z M 258.9375 129.1875 L 268.476562 139.261719 L 271.621094 136.121094 L 274.921875 139.125 L 283.164062 90.757812 C 283.164062 90.757812 279.015625 87.011719 271.253906 89.847656 C 263.492188 92.679688 261.851562 97.589844 261.914062 102.667969 C 259.371094 97.230469 255.785156 95.453125 251.777344 96.179688 C 247.773438 96.910156 247.351562 99.753906 247.351562 99.753906 L 252.328125 125.175781 C 252.328125 125.175781 256.355469 126.601562 258.9375 129.1875 Z M 177.855469 148.757812 C 181.777344 148.757812 184.957031 145.527344 184.957031 141.535156 C 184.957031 137.546875 181.777344 134.3125 177.855469 134.3125 C 173.929688 134.3125 170.75 137.546875 170.75 141.535156 C 170.757812 145.527344 173.929688 148.757812 177.855469 148.757812 Z M 237.195312 336.558594 L 205.753906 349.378906 L 209.921875 343.902344 L 183.667969 340 C 183.667969 340 175.496094 344.179688 169.597656 347.550781 C 163.699219 350.921875 163.277344 359.625 172.824219 359.347656 C 182.378906 359.066406 200.640625 357.527344 200.640625 357.527344 C 200.640625 357.527344 197.96875 360.613281 199.800781 363.421875 C 201.625 366.226562 206.96875 365.808594 214.554688 363.003906 C 222.136719 360.195312 230.027344 357.28125 235.003906 354.878906 C 239.980469 352.46875 241.109375 350.082031 240.964844 346.855469 C 240.828125 343.628906 237.195312 336.558594 237.195312 336.558594 Z M 9.523438 350.660156 L 42.179688 350.660156 L 42.179688 182.875 L 9.523438 182.875 Z M 9.523438 350.660156 " fill-opacity="1" fill-rule="nonzero"/><path fill="#f79a91" d="M 248.640625 273.09375 L 230.179688 306.410156 C 230.179688 306.410156 231.355469 315.003906 232.921875 322.816406 C 234.484375 330.625 237.21875 336.679688 237.21875 336.679688 L 205.753906 349.378906 L 208.9375 344.027344 C 186.660156 350.273438 183.675781 340.007812 183.675781 340.007812 C 183.675781 340.007812 194.03125 333.171875 195.007812 327.308594 C 195.984375 321.441406 199.503906 297.8125 199.503906 297.8125 L 196.167969 273.09375 Z M 306.355469 161.390625 C 304.175781 158.851562 302.542969 156.121094 298 153.398438 C 293.460938 150.671875 285.277344 151.398438 285.277344 151.398438 L 294.183594 159.75 C 294.183594 159.75 296.910156 169.917969 298.542969 170.824219 C 300.175781 171.730469 305.265625 173.546875 308.171875 172.824219 C 311.082031 172.105469 308.53125 163.9375 306.355469 161.390625 Z M 244.894531 125.535156 C 240.390625 126.929688 231.296875 133.328125 231.296875 133.328125 C 231.296875 133.328125 222.992188 130.933594 219.300781 131.035156 C 215.597656 131.132812 213.402344 134.03125 213.996094 136.632812 C 214.597656 139.234375 221.992188 142.933594 224.695312 144.625 C 227.394531 146.328125 234.292969 146.128906 237.996094 145.824219 C 241.695312 145.527344 246.398438 144.425781 249.097656 147.019531 C 251.800781 149.621094 254.699219 152.214844 254.699219 152.214844 L 268.902344 138.523438 C 268.902344 138.523438 262.003906 131.925781 258.105469 128.328125 C 254.195312 124.734375 249.398438 124.140625 244.894531 125.535156 Z M 280.59375 57.722656 C 280.59375 44.429688 274.894531 27.496094 251.777344 29.238281 C 228.664062 30.976562 224.703125 45.695312 225.335938 57.875 C 225.96875 70.0625 228.183594 82.71875 235.78125 86.675781 C 243.382812 90.632812 250.191406 88.253906 250.191406 88.253906 L 251.769531 96.164062 C 251.769531 96.164062 257.632812 95.21875 261.90625 102.652344 C 261.90625 102.652344 261.109375 92.84375 271.246094 89.832031 L 269.183594 82.078125 C 269.191406 82.089844 280.59375 71.007812 280.59375 57.722656 Z M 117.734375 72.640625 C 115.660156 71.605469 113.40625 72.296875 114.101562 74.199219 C 114.796875 76.105469 119.644531 81.121094 119.644531 81.121094 C 119.644531 81.121094 114.363281 81.121094 110.890625 81.121094 L 110.371094 73.511719 C 110.371094 73.511719 117.871094 71.480469 121.789062 65.007812 C 125.703125 58.53125 124.085938 47.601562 124.085938 47.601562 C 124.085938 47.601562 127.191406 41.125 121.789062 35.460938 C 121.789062 35.460938 115.574219 18.863281 97.351562 19.128906 C 79.128906 19.398438 65.222656 39.90625 71.703125 56.777344 C 71.703125 56.777344 76.792969 68.089844 87.140625 67.964844 L 87.765625 73.785156 L 103.28125 94.714844 C 102.953125 96.453125 102.695312 99.144531 103.539062 101.378906 C 104.929688 105.011719 110.292969 111.9375 110.292969 111.9375 L 123.800781 105.1875 C 123.800781 105.1875 127.089844 90.128906 127.785156 86.84375 C 128.480469 83.554688 126.921875 80.789062 124.496094 78.363281 C 122.0625 75.929688 119.8125 73.679688 117.734375 72.640625 Z M 117.734375 72.640625 " fill-opacity="1" fill-rule="nonzero"/><path fill="#27407e" d="M 199.496094 297.8125 C 199.496094 297.8125 197.183594 313.585938 196.300781 319.550781 C 195.414062 325.515625 196.078125 329.046875 191.214844 333.90625 C 186.355469 338.761719 180.328125 342.082031 180.328125 342.082031 C 180.328125 342.082031 180.328125 268.214844 180.328125 248.628906 C 180.328125 229.042969 192.972656 218.613281 192.972656 218.613281 C 191.1875 231.648438 199.496094 297.8125 199.496094 297.8125 Z M 352.054688 168.375 C 337.148438 168.375 336.570312 168.375 336.570312 168.375 C 336.570312 168.375 337.132812 187.472656 332.296875 190.339844 C 332.296875 190.339844 340.171875 196.054688 340.902344 214.777344 C 340.902344 214.777344 338.363281 214.777344 317.695312 214.777344 C 288.605469 214.777344 273.902344 225.464844 272.886719 254.917969 L 259.523438 254.917969 C 259.972656 254.125 260.546875 253.074219 261.097656 251.96875 C 262.058594 250.046875 264.132812 250 264.21875 250 C 264.5 250 264.726562 249.765625 264.726562 249.480469 C 264.726562 249.199219 264.5 248.96875 264.21875 248.96875 C 264.101562 248.96875 261.429688 249 260.171875 251.503906 C 259.5 252.84375 258.792969 254.109375 258.332031 254.910156 L 258.289062 254.910156 L 230.167969 306.402344 C 230.167969 306.402344 230.179688 306.53125 230.203125 306.746094 L 200.878906 356.085938 C 200.734375 356.328125 200.816406 356.640625 201.0625 356.785156 C 201.144531 356.832031 201.234375 356.855469 201.320312 356.855469 C 201.496094 356.855469 201.664062 356.761719 201.761719 356.601562 L 230.417969 308.394531 C 231.136719 313.714844 233.371094 328.414062 237.203125 336.671875 C 241.683594 346.34375 242.261719 351.425781 234.988281 354.871094 L 374.945312 354.871094 C 374.945312 354.871094 374.945312 221.613281 374.945312 198.992188 C 374.960938 176.375 366.957031 168.375 352.054688 168.375 Z M 270.863281 136.632812 C 270.664062 136.433594 270.335938 136.425781 270.140625 136.632812 L 248.03125 158.582031 L 226.242188 169.292969 C 225.992188 169.414062 225.886719 169.726562 226.007812 169.976562 C 226.097656 170.160156 226.28125 170.265625 226.464844 170.265625 C 226.542969 170.265625 226.617188 170.253906 226.695312 170.214844 L 248.214844 159.644531 L 267.261719 180.296875 C 267.359375 180.402344 267.5 180.464844 267.644531 180.464844 C 267.765625 180.464844 267.894531 180.417969 267.996094 180.328125 C 268.199219 180.136719 268.214844 179.808594 268.023438 179.601562 L 249.054688 159.03125 L 270.871094 137.371094 C 271.0625 137.160156 271.0625 136.839844 270.863281 136.632812 Z M 296.96875 152.601562 C 297.261719 152.601562 297.488281 152.367188 297.480469 152.085938 L 297.296875 126.046875 C 297.296875 125.765625 297.070312 125.535156 296.789062 125.535156 C 296.789062 125.535156 296.789062 125.535156 296.78125 125.535156 C 296.496094 125.535156 296.269531 125.769531 296.269531 126.054688 L 296.453125 152.09375 C 296.460938 152.375 296.6875 152.601562 296.96875 152.601562 Z M 320.285156 189.5625 C 320.445312 189.5625 320.605469 189.488281 320.703125 189.351562 C 321.023438 188.90625 328.449219 178.367188 328.632812 169.03125 C 328.816406 159.855469 329.714844 123.515625 329.722656 123.148438 C 329.730469 122.867188 329.503906 122.628906 329.21875 122.621094 C 329.210938 122.621094 329.210938 122.621094 329.203125 122.621094 C 328.921875 122.621094 328.695312 122.84375 328.695312 123.125 C 328.6875 123.492188 327.777344 159.832031 327.601562 169.007812 C 327.425781 178.023438 319.941406 188.640625 319.863281 188.746094 C 319.695312 188.976562 319.757812 189.296875 319.984375 189.464844 C 320.078125 189.535156 320.183594 189.5625 320.285156 189.5625 Z M 243.023438 195.71875 C 253.625 193.636719 272.128906 189.449219 272.3125 189.402344 C 272.589844 189.34375 272.765625 189.066406 272.703125 188.785156 C 272.640625 188.511719 272.367188 188.328125 272.085938 188.398438 C 271.902344 188.441406 253.410156 192.628906 242.828125 194.703125 C 232.042969 196.816406 219.316406 205.390625 216.972656 217.097656 C 214.707031 228.4375 199.902344 294.824219 199.753906 295.496094 C 199.695312 295.769531 199.871094 296.042969 200.144531 296.113281 C 200.183594 296.121094 200.222656 296.128906 200.257812 296.128906 C 200.496094 296.128906 200.710938 295.96875 200.761719 295.722656 C 200.914062 295.054688 215.710938 228.652344 217.988281 217.304688 C 220.230469 206.03125 232.5625 197.769531 243.023438 195.71875 Z M 239.171875 129.308594 C 239.347656 129.089844 239.308594 128.761719 239.085938 128.585938 C 238.859375 128.410156 238.539062 128.449219 238.363281 128.675781 C 238.339844 128.699219 236.265625 131.355469 234.546875 133.414062 C 233.394531 134.792969 233.515625 136.296875 234.21875 137.066406 C 234.539062 137.417969 235.035156 137.675781 235.667969 137.675781 C 236.234375 137.675781 236.90625 137.472656 237.667969 136.945312 C 240.285156 135.121094 247.871094 130.523438 247.945312 130.476562 C 248.191406 130.332031 248.269531 130.011719 248.121094 129.769531 C 247.976562 129.523438 247.65625 129.449219 247.414062 129.59375 C 247.335938 129.636719 239.722656 134.253906 237.082031 136.089844 C 236.195312 136.707031 235.386719 136.808594 234.980469 136.367188 C 234.585938 135.929688 234.578125 134.984375 235.339844 134.070312 C 237.058594 132.003906 239.148438 129.332031 239.171875 129.308594 Z M 225.800781 137.5625 C 222.953125 136.082031 216.523438 132.0625 216.453125 132.027344 C 216.214844 131.875 215.894531 131.949219 215.742188 132.1875 C 215.589844 132.429688 215.667969 132.742188 215.902344 132.894531 C 216.171875 133.0625 222.445312 136.976562 225.320312 138.46875 C 226.710938 139.195312 228.777344 139.394531 230.632812 139.394531 C 232.785156 139.394531 234.644531 139.125 234.785156 139.101562 C 235.066406 139.066406 235.257812 138.796875 235.21875 138.515625 C 235.179688 138.234375 234.914062 138.042969 234.628906 138.082031 C 234.578125 138.105469 228.519531 138.980469 225.800781 137.5625 Z M 229.480469 143.792969 C 232.25 143.792969 234.9375 143.421875 235.132812 143.390625 C 235.417969 143.351562 235.613281 143.09375 235.570312 142.808594 C 235.53125 142.527344 235.265625 142.328125 234.988281 142.375 C 232.785156 142.6875 226.640625 143.230469 224.679688 141.988281 C 222.175781 140.390625 215.277344 135.34375 215.210938 135.289062 C 214.980469 135.121094 214.660156 135.167969 214.492188 135.398438 C 214.324219 135.625 214.371094 135.945312 214.597656 136.113281 C 214.882812 136.320312 221.589844 141.238281 224.121094 142.847656 C 225.273438 143.589844 227.394531 143.792969 229.480469 143.792969 Z M 224.3125 39.753906 C 224.3125 39.753906 222.136719 32.042969 231.242188 31.25 C 231.242188 31.25 233.019531 23.929688 241.925781 26.308594 C 241.925781 26.308594 247.070312 19.582031 253.402344 24.53125 C 253.402344 24.53125 258.945312 21.367188 263.101562 26.308594 C 263.101562 26.308594 267.847656 23.539062 271.414062 28.480469 C 271.414062 28.480469 275.769531 25.515625 280.515625 28.085938 C 285.265625 30.65625 285.066406 34.414062 285.066406 34.414062 C 285.066406 34.414062 291.996094 34.414062 293.375 39.753906 C 294.765625 45.09375 291.003906 49.050781 291.003906 49.050781 C 291.003906 49.050781 294.566406 52.414062 293.175781 56.960938 C 291.789062 61.507812 288.429688 61.507812 288.429688 61.507812 C 288.429688 61.507812 287.4375 67.636719 283.683594 69.019531 C 279.921875 70.40625 277.945312 68.820312 277.945312 68.820312 C 277.945312 68.820312 275.96875 76.5 269.191406 82.078125 L 268.550781 68.570312 C 268.550781 68.570312 275.273438 63.617188 274.328125 57.722656 C 273.382812 51.828125 266.894531 52.886719 266.894531 52.886719 L 265.246094 63.382812 C 265.246094 63.382812 262.1875 61.429688 259.59375 57.996094 L 254.578125 59.5625 C 254.882812 61.261719 254.523438 63.664062 252.992188 65.664062 C 251.890625 67.097656 249.785156 68.789062 246.015625 68.789062 C 245.964844 68.789062 245.902344 68.789062 245.847656 68.789062 C 239.132812 68.699219 238.308594 62.007812 238.21875 60.546875 C 236.066406 59.148438 234.796875 59.964844 234.433594 60.285156 C 234.332031 61.558594 233.546875 68.132812 228.105469 68.226562 C 226.578125 68.242188 225.367188 67.761719 224.457031 66.777344 C 222.359375 64.496094 222.75 60.378906 222.765625 60.203125 C 222.765625 60.164062 222.773438 60.132812 222.785156 60.09375 C 222.800781 60.058594 224.023438 56.328125 228.296875 56.214844 C 231.601562 56.144531 233.371094 58.304688 234.011719 59.324219 C 234.753906 58.820312 236.347656 58.179688 238.628906 59.585938 C 239.308594 58.363281 241.332031 55.734375 246.191406 55.480469 C 251.296875 55.222656 253.535156 57.648438 254.210938 58.601562 L 258.972656 57.113281 C 258.148438 55.894531 257.410156 54.519531 256.882812 53.003906 C 254.640625 46.519531 255.785156 36.390625 255.785156 36.390625 L 225.902344 48.851562 C 225.894531 48.851562 219.167969 44.894531 224.3125 39.753906 Z M 233.394531 60.347656 C 233.378906 60.324219 233.371094 60.300781 233.355469 60.277344 C 233.296875 60.148438 231.890625 57.144531 228.320312 57.25 C 225 57.335938 223.929688 59.949219 223.777344 60.363281 C 223.742188 60.84375 223.550781 64.28125 225.214844 66.089844 C 225.921875 66.859375 226.878906 67.234375 228.082031 67.203125 C 232.5625 67.121094 233.289062 61.710938 233.394531 60.347656 Z M 253.511719 59.410156 C 253.28125 59.011719 251.472656 56.242188 246.246094 56.519531 C 240.75 56.808594 239.371094 60.398438 239.308594 60.554688 C 239.292969 60.589844 239.277344 60.628906 239.253906 60.660156 C 239.371094 62.207031 240.171875 67.691406 245.871094 67.769531 C 245.925781 67.769531 245.972656 67.769531 246.023438 67.769531 C 249.375 67.769531 251.222656 66.289062 252.183594 65.039062 C 253.625 63.160156 253.875 60.820312 253.511719 59.410156 Z M 270.648438 62.023438 C 270.726562 62.070312 270.816406 62.09375 270.902344 62.09375 C 271.078125 62.09375 271.253906 62.003906 271.351562 61.835938 C 272.351562 60.074219 272.574219 58.546875 272.015625 57.304688 C 271.214844 55.519531 269.117188 55.054688 269.03125 55.03125 C 268.75 54.96875 268.484375 55.144531 268.421875 55.425781 C 268.359375 55.703125 268.535156 55.976562 268.8125 56.039062 C 268.828125 56.046875 270.496094 56.425781 271.078125 57.730469 C 271.488281 58.660156 271.285156 59.867188 270.460938 61.324219 C 270.3125 61.566406 270.398438 61.878906 270.648438 62.023438 Z M 242.359375 52.941406 C 242.558594 52.8125 247.304688 49.792969 251.304688 53.003906 C 251.402344 53.078125 251.511719 53.117188 251.625 53.117188 C 251.777344 53.117188 251.921875 53.046875 252.03125 52.925781 C 252.207031 52.703125 252.175781 52.375 251.953125 52.203125 C 247.367188 48.515625 241.859375 52.042969 241.804688 52.078125 C 241.566406 52.230469 241.5 52.550781 241.652344 52.789062 C 241.804688 53.023438 242.125 53.09375 242.359375 52.941406 Z M 227.328125 53.992188 C 227.464844 53.902344 230.792969 51.789062 233.578125 54.03125 C 233.675781 54.109375 233.785156 54.144531 233.898438 54.144531 C 234.050781 54.144531 234.195312 54.078125 234.300781 53.957031 C 234.476562 53.734375 234.449219 53.40625 234.226562 53.230469 C 230.851562 50.515625 226.808594 53.109375 226.761719 53.132812 C 226.527344 53.285156 226.457031 53.605469 226.609375 53.839844 C 226.769531 54.085938 227.089844 54.144531 227.328125 53.992188 Z M 244.933594 59.027344 C 244.253906 59.027344 243.703125 59.578125 243.703125 60.253906 C 243.703125 60.933594 244.253906 61.484375 244.933594 61.484375 C 245.613281 61.484375 246.160156 60.933594 246.160156 60.253906 C 246.160156 59.578125 245.613281 59.027344 244.933594 59.027344 Z M 229.699219 58.644531 C 229.023438 58.644531 228.472656 59.195312 228.472656 59.875 C 228.472656 60.554688 229.023438 61.101562 229.699219 61.101562 C 230.378906 61.101562 230.929688 60.554688 230.929688 59.875 C 230.929688 59.195312 230.378906 58.644531 229.699219 58.644531 Z M 236.148438 62.003906 L 235.164062 61.703125 C 235.164062 61.703125 234.308594 64.542969 233.746094 66.632812 C 233.371094 67.996094 233.730469 68.859375 234.089844 69.332031 C 234.722656 70.164062 235.890625 70.582031 237.546875 70.582031 C 237.828125 70.582031 238.058594 70.355469 238.058594 70.070312 C 238.058594 69.789062 237.828125 69.558594 237.546875 69.558594 C 236.242188 69.558594 235.332031 69.269531 234.90625 68.714844 C 234.578125 68.285156 234.523438 67.683594 234.730469 66.90625 C 235.300781 64.832031 236.148438 62.007812 236.148438 62.003906 Z M 243.734375 72.792969 C 240.867188 73.625 237.765625 74.191406 237.738281 74.199219 C 237.453125 74.25 237.269531 74.519531 237.324219 74.792969 C 237.378906 75.074219 237.644531 75.257812 237.925781 75.203125 C 237.957031 75.195312 241.101562 74.625 244.023438 73.777344 C 245.320312 73.40625 245.839844 73.558594 245.949219 73.703125 C 246.054688 73.847656 246.007812 74.359375 245.445312 75.160156 C 244.605469 76.339844 241.285156 77.324219 240.078125 77.597656 C 239.804688 77.660156 239.628906 77.941406 239.691406 78.21875 C 239.742188 78.453125 239.957031 78.613281 240.195312 78.613281 C 240.230469 78.613281 240.269531 78.605469 240.308594 78.597656 C 240.796875 78.492188 245.070312 77.46875 246.285156 75.746094 C 247.046875 74.664062 247.230469 73.726562 246.789062 73.097656 C 246.3125 72.449219 245.285156 72.34375 243.734375 72.792969 Z M 257.480469 87.878906 C 256.945312 86.484375 255.761719 86.164062 250.191406 88.261719 L 251.289062 93.738281 C 254.351562 91.449219 257.785156 88.667969 257.480469 87.878906 Z M 265.253906 110.105469 C 265.253906 111.5 264.117188 112.636719 262.722656 112.636719 C 261.324219 112.636719 260.1875 111.5 260.1875 110.105469 C 260.1875 108.710938 261.324219 107.574219 262.722656 107.574219 C 264.117188 107.574219 265.253906 108.710938 265.253906 110.105469 Z M 264.226562 110.105469 C 264.226562 109.273438 263.554688 108.601562 262.722656 108.601562 C 261.890625 108.601562 261.21875 109.273438 261.21875 110.105469 C 261.21875 110.9375 261.890625 111.609375 262.722656 111.609375 C 263.554688 111.609375 264.226562 110.9375 264.226562 110.105469 Z M 264.011719 125.480469 C 265.40625 125.480469 266.542969 126.617188 266.542969 128.015625 C 266.542969 129.410156 265.40625 130.546875 264.011719 130.546875 C 262.613281 130.546875 261.476562 129.410156 261.476562 128.015625 C 261.476562 126.617188 262.613281 125.480469 264.011719 125.480469 Z M 264.011719 126.511719 C 263.179688 126.511719 262.507812 127.183594 262.507812 128.015625 C 262.507812 128.84375 263.179688 129.515625 264.011719 129.515625 C 264.84375 129.515625 265.515625 128.84375 265.515625 128.015625 C 265.515625 127.183594 264.835938 126.511719 264.011719 126.511719 Z M 75.617188 62.476562 C 75.617188 62.476562 70.445312 52.582031 78.707031 51.15625 L 84.1875 54.617188 L 102.503906 25.796875 C 102.503906 25.796875 111.875 36.460938 122.261719 38.335938 C 122.261719 38.335938 121.679688 22.769531 108.128906 18.734375 C 100.214844 16.378906 92.332031 15.300781 85.460938 17.046875 C 84.460938 14.761719 80.867188 8.542969 71.640625 10.085938 C 60.394531 11.960938 59.8125 23.777344 61.546875 28.390625 C 62.828125 31.8125 65.46875 33.644531 68.222656 34.132812 C 63.460938 49.417969 75.617188 62.476562 75.617188 62.476562 Z M 112.75 55.953125 C 112.507812 56.097656 112.421875 56.410156 112.5625 56.65625 C 112.652344 56.824219 112.828125 56.914062 113.003906 56.914062 C 113.085938 56.914062 113.179688 56.890625 113.261719 56.847656 C 113.339844 56.800781 115.195312 55.71875 115.550781 54.246094 C 115.691406 53.664062 115.589844 53.101562 115.253906 52.582031 C 114.070312 50.765625 111.949219 48.195312 111.859375 48.089844 C 111.675781 47.871094 111.355469 47.839844 111.132812 48.023438 C 110.914062 48.203125 110.882812 48.523438 111.066406 48.746094 C 111.089844 48.769531 113.242188 51.378906 114.386719 53.148438 C 114.566406 53.421875 114.621094 53.703125 114.546875 54.007812 C 114.347656 54.871094 113.1875 55.703125 112.75 55.953125 Z M 112.074219 62.582031 C 112.027344 62.300781 111.765625 62.109375 111.484375 62.15625 C 108.339844 62.648438 106.128906 60.667969 106.105469 60.652344 C 105.890625 60.460938 105.570312 60.476562 105.378906 60.683594 C 105.1875 60.886719 105.203125 61.214844 105.410156 61.40625 C 105.503906 61.492188 107.464844 63.269531 110.453125 63.269531 C 110.835938 63.269531 111.242188 63.238281 111.652344 63.175781 C 111.921875 63.125 112.109375 62.863281 112.074219 62.582031 Z M 116.101562 48.417969 C 116.101562 49.121094 116.675781 49.691406 117.375 49.691406 C 118.078125 49.691406 118.652344 49.121094 118.652344 48.417969 C 118.652344 47.714844 118.078125 47.144531 117.375 47.144531 C 116.675781 47.144531 116.101562 47.714844 116.101562 48.417969 Z M 100.9375 51.5 C 101.640625 51.5 102.214844 50.925781 102.214844 50.226562 C 102.214844 49.523438 101.640625 48.953125 100.9375 48.953125 C 100.238281 48.953125 99.664062 49.523438 99.664062 50.226562 C 99.671875 50.933594 100.238281 51.5 100.9375 51.5 Z M 120.421875 43.8125 C 120.582031 43.574219 120.527344 43.253906 120.300781 43.09375 C 116.039062 40.097656 111.738281 43.4375 111.691406 43.476562 C 111.46875 43.652344 111.429688 43.980469 111.605469 44.199219 C 111.707031 44.332031 111.859375 44.398438 112.011719 44.398438 C 112.125 44.398438 112.242188 44.359375 112.332031 44.285156 C 112.371094 44.253906 116.0625 41.378906 119.703125 43.941406 C 119.941406 44.101562 120.261719 44.046875 120.421875 43.8125 Z M 107.433594 44.46875 C 107.652344 44.636719 107.980469 44.597656 108.15625 44.375 C 108.332031 44.148438 108.289062 43.828125 108.066406 43.652344 C 108.011719 43.613281 102.496094 39.457031 97.0625 44.214844 C 96.847656 44.40625 96.824219 44.726562 97.015625 44.941406 C 97.117188 45.054688 97.261719 45.117188 97.40625 45.117188 C 97.527344 45.117188 97.648438 45.070312 97.742188 44.984375 C 102.527344 40.800781 107.234375 44.324219 107.433594 44.46875 Z M 77.863281 54.457031 C 77.59375 54.375 77.304688 54.519531 77.214844 54.792969 C 77.175781 54.925781 76.230469 57.953125 77.554688 60.339844 C 78.234375 61.566406 79.371094 62.390625 80.9375 62.796875 C 80.984375 62.808594 81.019531 62.808594 81.066406 62.808594 C 81.296875 62.808594 81.5 62.65625 81.5625 62.421875 C 81.632812 62.148438 81.472656 61.863281 81.195312 61.796875 C 79.921875 61.46875 79 60.8125 78.464844 59.84375 C 77.359375 57.84375 78.191406 55.128906 78.199219 55.097656 C 78.28125 54.832031 78.128906 54.542969 77.863281 54.457031 Z M 122.777344 159.003906 C 122.878906 159.164062 123.046875 159.253906 123.222656 159.253906 C 123.3125 159.253906 123.40625 159.230469 123.488281 159.179688 C 123.734375 159.03125 123.808594 158.710938 123.664062 158.46875 C 123.441406 158.101562 101.832031 122.042969 101.191406 120.761719 C 100.671875 119.722656 101.113281 118.839844 101.136719 118.800781 C 101.230469 118.625 101.207031 118.417969 101.097656 118.265625 L 110.285156 111.921875 C 110.285156 111.921875 104.867188 104.507812 103.535156 101.363281 C 102.199219 98.214844 103.707031 92.882812 103.707031 92.882812 L 105.769531 87.742188 C 105.875 87.476562 105.746094 87.179688 105.480469 87.070312 C 105.21875 86.964844 104.914062 87.09375 104.808594 87.363281 L 102.824219 92.3125 C 101.066406 90.792969 100.902344 87.851562 100.894531 87.035156 C 101.289062 86.460938 103.433594 83.417969 105.363281 82.601562 C 107.539062 81.6875 109.875 81.558594 109.867188 81.558594 L 112.402344 81.558594 C 112.683594 81.558594 112.910156 81.328125 112.910156 81.046875 C 112.910156 80.765625 112.683594 80.535156 112.402344 80.535156 L 109.84375 80.535156 C 109.746094 80.542969 107.3125 80.671875 104.96875 81.65625 C 102.992188 82.488281 100.96875 85.148438 100.246094 86.171875 L 87.757812 73.769531 L 76.890625 79.964844 L 100.410156 118.128906 C 100.335938 118.175781 100.265625 118.226562 100.230469 118.3125 C 100.199219 118.367188 99.496094 119.683594 100.265625 121.21875 C 100.457031 121.597656 102.359375 124.808594 104.96875 129.203125 L 75.410156 138.898438 L 69.375 110.210938 C 69.316406 109.9375 69.039062 109.753906 68.765625 109.816406 C 68.492188 109.875 68.308594 110.144531 68.367188 110.425781 L 74.425781 139.226562 L 72.984375 139.699219 C 72.71875 139.789062 72.566406 140.078125 72.65625 140.347656 C 72.726562 140.558594 72.933594 140.699219 73.144531 140.699219 C 73.199219 140.699219 73.253906 140.691406 73.304688 140.675781 L 105.328125 130.171875 C 105.386719 130.148438 105.449219 130.117188 105.496094 130.074219 C 109.785156 137.273438 115.710938 147.179688 119.398438 153.34375 C 119.382812 153.351562 119.359375 153.351562 119.34375 153.367188 L 98.582031 165.925781 C 98.335938 166.074219 98.261719 166.394531 98.40625 166.636719 C 98.503906 166.796875 98.671875 166.890625 98.847656 166.890625 C 98.9375 166.890625 99.03125 166.867188 99.113281 166.8125 L 119.878906 154.25 C 119.894531 154.242188 119.902344 154.226562 119.917969 154.210938 C 121.503906 156.875 122.589844 158.683594 122.777344 159.003906 Z M 123.902344 105.683594 L 125.609375 105.324219 L 138.386719 125.046875 C 138.484375 125.199219 138.652344 125.285156 138.820312 125.285156 C 138.917969 125.285156 139.011719 125.261719 139.101562 125.199219 C 139.339844 125.046875 139.40625 124.726562 139.253906 124.488281 L 135.148438 118.152344 C 135.195312 118.074219 135.234375 117.992188 135.234375 117.894531 C 135.402344 111.769531 131.570312 103.410156 131.410156 103.058594 C 131.289062 102.800781 130.984375 102.683594 130.722656 102.804688 C 130.464844 102.929688 130.347656 103.234375 130.472656 103.492188 C 130.511719 103.570312 133.859375 110.90625 134.179688 116.664062 L 126.28125 104.476562 C 126.167969 104.300781 125.953125 104.210938 125.738281 104.253906 L 123.6875 104.691406 C 123.414062 104.75 123.230469 105.019531 123.289062 105.300781 C 123.34375 105.558594 123.617188 105.742188 123.902344 105.683594 Z M 202.945312 169.710938 C 203.226562 169.710938 203.457031 169.480469 203.457031 169.199219 C 203.457031 168.917969 203.226562 168.6875 202.945312 168.6875 L 123.191406 168.6875 L 147.269531 113.714844 L 223.710938 113.714844 C 223.992188 113.714844 224.222656 113.484375 224.222656 113.203125 C 224.222656 112.921875 223.992188 112.691406 223.710938 112.691406 L 146.933594 112.691406 C 146.726562 112.691406 146.542969 112.8125 146.460938 112.996094 L 122.277344 168.207031 L 120.976562 166.546875 C 120.804688 166.324219 120.480469 166.277344 120.253906 166.453125 C 120.03125 166.628906 119.984375 166.949219 120.160156 167.179688 L 121.992188 169.527344 C 122 169.535156 122.007812 169.535156 122.007812 169.542969 C 122.039062 169.582031 122.085938 169.613281 122.128906 169.640625 C 122.144531 169.648438 122.160156 169.671875 122.183594 169.679688 C 122.183594 169.679688 122.191406 169.6875 122.191406 169.6875 C 122.261719 169.71875 122.328125 169.734375 122.398438 169.734375 L 202.945312 169.734375 Z M 110.738281 78.957031 L 110.363281 73.511719 C 105.945312 73.890625 102.28125 72.625 102.03125 73.761719 C 101.792969 74.816406 105.90625 77.820312 110.738281 78.957031 Z M 227.152344 329.472656 C 226.945312 329.664062 226.929688 329.992188 227.121094 330.199219 C 227.144531 330.222656 229.378906 332.691406 229.195312 335.636719 C 229.183594 335.917969 229.394531 336.164062 229.679688 336.183594 C 229.6875 336.183594 229.699219 336.183594 229.707031 336.183594 C 229.976562 336.183594 230.203125 335.972656 230.21875 335.703125 C 230.433594 332.3125 227.984375 329.617188 227.878906 329.503906 C 227.6875 329.296875 227.367188 329.28125 227.152344 329.472656 Z M 217.484375 173.9375 C 217.214844 173.90625 216.964844 174.15625 216.964844 174.4375 C 216.957031 175.003906 216.8125 188.417969 221.296875 195.148438 C 221.398438 195.300781 221.558594 195.375 221.726562 195.375 C 221.824219 195.375 221.925781 195.34375 222.007812 195.292969 C 222.246094 195.132812 222.304688 194.8125 222.152344 194.574219 C 217.847656 188.113281 217.996094 174.59375 217.996094 174.453125 C 217.996094 174.171875 217.765625 173.9375 217.484375 173.9375 Z M 300.214844 170.519531 C 300.023438 170.734375 300.046875 171.0625 300.257812 171.242188 C 300.359375 171.328125 300.480469 171.375 300.59375 171.375 C 300.738281 171.375 300.878906 171.3125 300.984375 171.199219 C 302.449219 169.519531 300.527344 160.421875 300.121094 158.621094 C 300.0625 158.347656 299.785156 158.171875 299.503906 158.230469 C 299.230469 158.292969 299.054688 158.566406 299.113281 158.851562 C 300.25 163.90625 300.96875 169.65625 300.214844 170.519531 Z M 304.089844 171.9375 C 303.929688 172.175781 304 172.496094 304.234375 172.65625 C 304.320312 172.714844 304.425781 172.738281 304.519531 172.738281 C 304.6875 172.738281 304.847656 172.65625 304.945312 172.511719 C 306.171875 170.664062 304.738281 162.738281 304.433594 161.167969 C 304.378906 160.886719 304.105469 160.710938 303.832031 160.757812 C 303.546875 160.808594 303.367188 161.078125 303.417969 161.359375 C 304.089844 164.84375 304.859375 170.785156 304.089844 171.9375 Z M 307.097656 173.058594 C 307.195312 173.058594 307.289062 173.035156 307.378906 172.976562 C 309.011719 171.921875 308.730469 167.195312 308.652344 166.253906 C 308.632812 165.972656 308.378906 165.765625 308.105469 165.78125 C 307.820312 165.804688 307.609375 166.050781 307.632812 166.339844 C 307.792969 168.421875 307.652344 171.585938 306.824219 172.113281 C 306.585938 172.265625 306.515625 172.585938 306.667969 172.824219 C 306.761719 172.976562 306.929688 173.058594 307.097656 173.058594 Z M 307.097656 173.058594 " fill-opacity="1" fill-rule="nonzero"/></svg>