<svg xmlns="http://www.w3.org/2000/svg" xmlns:xlink="http://www.w3.org/1999/xlink" width="500" zoomAndPan="magnify" viewBox="0 0 375 374.999991" height="500" preserveAspectRatio="xMidYMid meet" version="1.0"><path fill="#caddff" d="M 354.734375 80.371094 C 343.191406 57.03125 320.125 44.417969 305.820312 36.601562 C 243.984375 2.804688 159.730469 11.828125 103.722656 43.367188 C 48.441406 74.503906 0.0390625 155.394531 20.210938 235.453125 C 40.464844 315.8125 119.558594 349.925781 179.230469 358.671875 C 273.980469 372.5625 353.605469 309.246094 357.972656 287.277344 C 359.316406 280.503906 358.964844 274.5 358.964844 274.5 C 357.289062 258.644531 344.273438 249.226562 341.25 213.085938 C 335.6875 146.585938 374.972656 121.308594 354.734375 80.371094 " fill-opacity="1" fill-rule="nonzero"/><path fill="#99b9ff" d="M 162.753906 308.699219 L 210.640625 308.699219 C 211.488281 308.699219 212.175781 308.007812 212.175781 307.164062 L 212.175781 41.988281 C 212.175781 41.179688 211.519531 40.527344 210.714844 40.527344 L 162.753906 40.527344 L 162.753906 308.699219 " fill-opacity="1" fill-rule="nonzero"/><path fill="#000000" d="M 206.804688 309.320312 L 162.753906 309.320312 C 162.410156 309.320312 162.128906 309.042969 162.128906 308.699219 L 162.128906 40.527344 C 162.128906 40.183594 162.410156 39.902344 162.753906 39.902344 L 209.136719 39.902344 C 211.15625 39.902344 212.796875 41.546875 212.796875 43.566406 L 212.902344 72.097656 C 212.90625 72.441406 212.625 72.722656 212.28125 72.726562 C 211.9375 72.726562 211.65625 72.449219 211.65625 72.105469 L 211.550781 43.570312 C 211.550781 42.234375 210.46875 41.152344 209.136719 41.152344 L 163.375 41.152344 L 163.375 308.074219 L 206.804688 308.074219 C 207.152344 308.074219 207.429688 308.351562 207.429688 308.699219 C 207.429688 309.042969 207.152344 309.320312 206.804688 309.320312 " fill-opacity="1" fill-rule="nonzero"/><path fill="#000000" d="M 38.914062 298.480469 L 177.40625 298.480469 L 177.40625 61.398438 L 38.914062 61.398438 L 38.914062 298.480469 " fill-opacity="1" fill-rule="nonzero"/><path fill="#99b9ff" d="M 32.222656 82.273438 L 184.097656 82.273438 L 184.097656 40.527344 L 32.222656 40.527344 L 32.222656 82.273438 " fill-opacity="1" fill-rule="nonzero"/><path fill="#000000" d="M 32.847656 81.648438 L 183.472656 81.648438 L 183.472656 41.152344 L 32.847656 41.152344 Z M 184.722656 82.898438 L 31.597656 82.898438 L 31.597656 39.902344 L 184.722656 39.902344 L 184.722656 82.898438 " fill-opacity="1" fill-rule="nonzero"/><path fill="#5479f7" d="M 35.335938 49.613281 C 35.335938 46.3125 38.007812 43.640625 41.300781 43.640625 L 175.019531 43.640625 C 178.316406 43.640625 180.988281 46.3125 180.988281 49.613281 L 180.988281 73.179688 C 180.988281 76.480469 178.316406 79.15625 175.019531 79.15625 L 41.300781 79.15625 C 38.007812 79.15625 35.335938 76.480469 35.335938 73.179688 L 35.335938 49.613281 " fill-opacity="1" fill-rule="nonzero"/><path fill="#99b9ff" d="M 160.046875 61.398438 C 160.046875 63.445312 161.703125 65.101562 163.75 65.101562 C 165.789062 65.101562 167.449219 63.445312 167.449219 61.398438 C 167.449219 59.351562 165.789062 57.691406 163.75 57.691406 C 161.703125 57.691406 160.046875 59.351562 160.046875 61.398438 " fill-opacity="1" fill-rule="nonzero"/><path fill="#99b9ff" d="M 148.222656 61.398438 C 148.222656 63.445312 149.875 65.101562 151.921875 65.101562 C 153.964844 65.101562 155.621094 63.445312 155.621094 61.398438 C 155.621094 59.351562 153.964844 57.691406 151.921875 57.691406 C 149.875 57.691406 148.222656 59.351562 148.222656 61.398438 " fill-opacity="1" fill-rule="nonzero"/><path fill="#99b9ff" d="M 136.394531 61.398438 C 136.394531 63.445312 138.050781 65.101562 140.09375 65.101562 C 142.136719 65.101562 143.796875 63.445312 143.796875 61.398438 C 143.796875 59.351562 142.136719 57.691406 140.09375 57.691406 C 138.050781 57.691406 136.394531 59.351562 136.394531 61.398438 " fill-opacity="1" fill-rule="nonzero"/><path fill="#99b9ff" d="M 119.730469 73.609375 L 125.796875 73.609375 L 125.796875 49.1875 L 119.730469 49.1875 L 119.730469 73.609375 " fill-opacity="1" fill-rule="nonzero"/><path fill="#99b9ff" d="M 110.859375 73.609375 L 116.929688 73.609375 L 116.929688 49.1875 L 110.859375 49.1875 L 110.859375 73.609375 " fill-opacity="1" fill-rule="nonzero"/><path fill="#99b9ff" d="M 101.992188 73.609375 L 108.058594 73.609375 L 108.058594 49.1875 L 101.992188 49.1875 L 101.992188 73.609375 " fill-opacity="1" fill-rule="nonzero"/><path fill="#99b9ff" d="M 93.121094 73.609375 L 99.191406 73.609375 L 99.191406 49.1875 L 93.121094 49.1875 L 93.121094 73.609375 " fill-opacity="1" fill-rule="nonzero"/><path fill="#99b9ff" d="M 84.253906 73.609375 L 90.320312 73.609375 L 90.320312 49.1875 L 84.253906 49.1875 L 84.253906 73.609375 " fill-opacity="1" fill-rule="nonzero"/><path fill="#99b9ff" d="M 75.382812 73.609375 L 81.453125 73.609375 L 81.453125 49.1875 L 75.382812 49.1875 L 75.382812 73.609375 " fill-opacity="1" fill-rule="nonzero"/><path fill="#99b9ff" d="M 66.515625 73.609375 L 72.582031 73.609375 L 72.582031 49.1875 L 66.515625 49.1875 L 66.515625 73.609375 " fill-opacity="1" fill-rule="nonzero"/><path fill="#99b9ff" d="M 57.644531 73.609375 L 63.714844 73.609375 L 63.714844 49.1875 L 57.644531 49.1875 L 57.644531 73.609375 " fill-opacity="1" fill-rule="nonzero"/><path fill="#99b9ff" d="M 48.777344 73.609375 L 54.84375 73.609375 L 54.84375 49.1875 L 48.777344 49.1875 L 48.777344 73.609375 " fill-opacity="1" fill-rule="nonzero"/><path fill="#99b9ff" d="M 32.222656 127.503906 L 184.097656 127.503906 L 184.097656 85.757812 L 32.222656 85.757812 L 32.222656 127.503906 " fill-opacity="1" fill-rule="nonzero"/><path fill="#5479f7" d="M 41.300781 88.871094 L 175.019531 88.871094 C 178.316406 88.871094 180.988281 91.546875 180.988281 94.847656 L 180.988281 118.414062 C 180.988281 121.714844 178.316406 124.386719 175.019531 124.386719 L 41.300781 124.386719 C 38.007812 124.386719 35.335938 121.714844 35.335938 118.414062 L 35.335938 94.847656 C 35.335938 91.546875 38.007812 88.871094 41.300781 88.871094 " fill-opacity="1" fill-rule="nonzero"/><path fill="#99b9ff" d="M 160.046875 106.628906 C 160.046875 108.675781 161.703125 110.335938 163.75 110.335938 C 165.792969 110.335938 167.449219 108.675781 167.449219 106.628906 C 167.449219 104.585938 165.792969 102.925781 163.75 102.925781 C 161.703125 102.925781 160.046875 104.585938 160.046875 106.628906 " fill-opacity="1" fill-rule="nonzero"/><path fill="#99b9ff" d="M 148.222656 106.628906 C 148.222656 108.675781 149.875 110.335938 151.921875 110.335938 C 153.964844 110.335938 155.621094 108.675781 155.621094 106.628906 C 155.621094 104.585938 153.964844 102.925781 151.921875 102.925781 C 149.875 102.925781 148.222656 104.585938 148.222656 106.628906 " fill-opacity="1" fill-rule="nonzero"/><path fill="#99b9ff" d="M 136.394531 106.628906 C 136.394531 108.675781 138.050781 110.335938 140.09375 110.335938 C 142.136719 110.335938 143.796875 108.675781 143.796875 106.628906 C 143.796875 104.585938 142.136719 102.925781 140.09375 102.925781 C 138.050781 102.925781 136.394531 104.585938 136.394531 106.628906 " fill-opacity="1" fill-rule="nonzero"/><path fill="#99b9ff" d="M 119.730469 118.84375 L 125.796875 118.84375 L 125.796875 94.417969 L 119.730469 94.417969 L 119.730469 118.84375 " fill-opacity="1" fill-rule="nonzero"/><path fill="#99b9ff" d="M 110.859375 118.84375 L 116.929688 118.84375 L 116.929688 94.417969 L 110.859375 94.417969 L 110.859375 118.84375 " fill-opacity="1" fill-rule="nonzero"/><path fill="#99b9ff" d="M 101.992188 118.84375 L 108.058594 118.84375 L 108.058594 94.417969 L 101.992188 94.417969 L 101.992188 118.84375 " fill-opacity="1" fill-rule="nonzero"/><path fill="#99b9ff" d="M 93.121094 118.84375 L 99.191406 118.84375 L 99.191406 94.417969 L 93.121094 94.417969 L 93.121094 118.84375 " fill-opacity="1" fill-rule="nonzero"/><path fill="#99b9ff" d="M 84.253906 118.84375 L 90.320312 118.84375 L 90.320312 94.417969 L 84.253906 94.417969 L 84.253906 118.84375 " fill-opacity="1" fill-rule="nonzero"/><path fill="#99b9ff" d="M 75.382812 118.84375 L 81.453125 118.84375 L 81.453125 94.417969 L 75.382812 94.417969 L 75.382812 118.84375 " fill-opacity="1" fill-rule="nonzero"/><path fill="#99b9ff" d="M 66.515625 118.84375 L 72.582031 118.84375 L 72.582031 94.417969 L 66.515625 94.417969 L 66.515625 118.84375 " fill-opacity="1" fill-rule="nonzero"/><path fill="#99b9ff" d="M 57.644531 118.84375 L 63.714844 118.84375 L 63.714844 94.417969 L 57.644531 94.417969 L 57.644531 118.84375 " fill-opacity="1" fill-rule="nonzero"/><path fill="#99b9ff" d="M 48.777344 118.84375 L 54.84375 118.84375 L 54.84375 94.417969 L 48.777344 94.417969 L 48.777344 118.84375 " fill-opacity="1" fill-rule="nonzero"/><path fill="#000000" d="M 154.609375 128.128906 L 32.222656 128.128906 C 31.878906 128.128906 31.597656 127.847656 31.597656 127.503906 L 31.597656 85.757812 C 31.597656 85.414062 31.878906 85.132812 32.222656 85.132812 L 184.097656 85.132812 C 184.441406 85.132812 184.722656 85.414062 184.722656 85.757812 L 184.722656 109.570312 C 184.722656 109.914062 184.441406 110.191406 184.097656 110.191406 C 183.753906 110.191406 183.472656 109.914062 183.472656 109.570312 L 183.472656 86.382812 L 32.847656 86.382812 L 32.847656 126.878906 L 154.609375 126.878906 C 154.957031 126.878906 155.234375 127.160156 155.234375 127.503906 C 155.234375 127.847656 154.957031 128.128906 154.609375 128.128906 " fill-opacity="1" fill-rule="nonzero"/><path fill="#99b9ff" d="M 32.222656 172.738281 L 184.097656 172.738281 L 184.097656 130.988281 L 32.222656 130.988281 L 32.222656 172.738281 " fill-opacity="1" fill-rule="nonzero"/><path fill="#000000" d="M 32.847656 172.109375 L 183.472656 172.109375 L 183.472656 131.613281 L 32.847656 131.613281 Z M 184.722656 173.359375 L 31.597656 173.359375 L 31.597656 130.367188 L 184.722656 130.367188 L 184.722656 173.359375 " fill-opacity="1" fill-rule="nonzero"/><path fill="#5479f7" d="M 41.300781 134.105469 L 175.019531 134.105469 C 178.316406 134.105469 180.988281 136.78125 180.988281 140.078125 L 180.988281 163.648438 C 180.988281 166.945312 178.316406 169.621094 175.019531 169.621094 L 41.300781 169.621094 C 38.007812 169.621094 35.335938 166.945312 35.335938 163.648438 L 35.335938 140.078125 C 35.335938 136.78125 38.007812 134.105469 41.300781 134.105469 " fill-opacity="1" fill-rule="nonzero"/><path fill="#99b9ff" d="M 160.046875 151.863281 C 160.046875 153.910156 161.703125 155.566406 163.746094 155.566406 C 165.789062 155.566406 167.449219 153.910156 167.449219 151.863281 C 167.449219 149.816406 165.789062 148.160156 163.746094 148.160156 C 161.703125 148.160156 160.046875 149.816406 160.046875 151.863281 " fill-opacity="1" fill-rule="nonzero"/><path fill="#99b9ff" d="M 148.21875 151.863281 C 148.21875 153.910156 149.875 155.566406 151.921875 155.566406 C 153.964844 155.566406 155.621094 153.910156 155.621094 151.863281 C 155.621094 149.816406 153.964844 148.160156 151.921875 148.160156 C 149.875 148.160156 148.21875 149.816406 148.21875 151.863281 " fill-opacity="1" fill-rule="nonzero"/><path fill="#99b9ff" d="M 136.394531 151.863281 C 136.394531 153.910156 138.050781 155.566406 140.09375 155.566406 C 142.136719 155.566406 143.792969 153.910156 143.792969 151.863281 C 143.792969 149.816406 142.136719 148.160156 140.09375 148.160156 C 138.050781 148.160156 136.394531 149.816406 136.394531 151.863281 " fill-opacity="1" fill-rule="nonzero"/><path fill="#99b9ff" d="M 119.730469 164.074219 L 125.796875 164.074219 L 125.796875 139.652344 L 119.730469 139.652344 L 119.730469 164.074219 " fill-opacity="1" fill-rule="nonzero"/><path fill="#99b9ff" d="M 110.859375 164.074219 L 116.929688 164.074219 L 116.929688 139.652344 L 110.859375 139.652344 L 110.859375 164.074219 " fill-opacity="1" fill-rule="nonzero"/><path fill="#99b9ff" d="M 101.992188 164.074219 L 108.058594 164.074219 L 108.058594 139.652344 L 101.992188 139.652344 L 101.992188 164.074219 " fill-opacity="1" fill-rule="nonzero"/><path fill="#99b9ff" d="M 93.121094 164.074219 L 99.191406 164.074219 L 99.191406 139.652344 L 93.121094 139.652344 L 93.121094 164.074219 " fill-opacity="1" fill-rule="nonzero"/><path fill="#99b9ff" d="M 84.253906 164.074219 L 90.320312 164.074219 L 90.320312 139.652344 L 84.253906 139.652344 L 84.253906 164.074219 " fill-opacity="1" fill-rule="nonzero"/><path fill="#99b9ff" d="M 75.382812 164.074219 L 81.453125 164.074219 L 81.453125 139.652344 L 75.382812 139.652344 L 75.382812 164.074219 " fill-opacity="1" fill-rule="nonzero"/><path fill="#99b9ff" d="M 66.515625 164.074219 L 72.582031 164.074219 L 72.582031 139.652344 L 66.515625 139.652344 L 66.515625 164.074219 " fill-opacity="1" fill-rule="nonzero"/><path fill="#99b9ff" d="M 57.644531 164.074219 L 63.714844 164.074219 L 63.714844 139.652344 L 57.644531 139.652344 L 57.644531 164.074219 " fill-opacity="1" fill-rule="nonzero"/><path fill="#99b9ff" d="M 48.777344 164.074219 L 54.84375 164.074219 L 54.84375 139.652344 L 48.777344 139.652344 L 48.777344 164.074219 " fill-opacity="1" fill-rule="nonzero"/><path fill="#99b9ff" d="M 32.222656 217.96875 L 184.097656 217.96875 L 184.097656 176.222656 L 32.222656 176.222656 L 32.222656 217.96875 " fill-opacity="1" fill-rule="nonzero"/><path fill="#000000" d="M 32.847656 217.34375 L 183.472656 217.34375 L 183.472656 176.847656 L 32.847656 176.847656 Z M 184.722656 218.59375 L 31.597656 218.59375 L 31.597656 175.597656 L 184.722656 175.597656 L 184.722656 218.59375 " fill-opacity="1" fill-rule="nonzero"/><path fill="#5479f7" d="M 41.300781 179.335938 L 175.019531 179.335938 C 178.316406 179.335938 180.988281 182.011719 180.988281 185.3125 L 180.988281 208.878906 C 180.988281 212.179688 178.316406 214.851562 175.019531 214.851562 L 41.300781 214.851562 C 38.007812 214.851562 35.335938 212.179688 35.335938 208.878906 L 35.335938 185.3125 C 35.335938 182.011719 38.007812 179.335938 41.300781 179.335938 " fill-opacity="1" fill-rule="nonzero"/><path fill="#99b9ff" d="M 160.046875 197.09375 C 160.046875 199.140625 161.703125 200.800781 163.746094 200.800781 C 165.789062 200.800781 167.449219 199.140625 167.449219 197.09375 C 167.449219 195.050781 165.789062 193.390625 163.746094 193.390625 C 161.703125 193.390625 160.046875 195.050781 160.046875 197.09375 " fill-opacity="1" fill-rule="nonzero"/><path fill="#99b9ff" d="M 148.21875 197.09375 C 148.21875 199.140625 149.875 200.800781 151.921875 200.800781 C 153.964844 200.800781 155.621094 199.140625 155.621094 197.09375 C 155.621094 195.050781 153.964844 193.390625 151.921875 193.390625 C 149.875 193.390625 148.21875 195.050781 148.21875 197.09375 " fill-opacity="1" fill-rule="nonzero"/><path fill="#99b9ff" d="M 136.394531 197.09375 C 136.394531 199.140625 138.050781 200.800781 140.09375 200.800781 C 142.136719 200.800781 143.792969 199.140625 143.792969 197.09375 C 143.792969 195.050781 142.136719 193.390625 140.09375 193.390625 C 138.050781 193.390625 136.394531 195.050781 136.394531 197.09375 " fill-opacity="1" fill-rule="nonzero"/><path fill="#99b9ff" d="M 119.730469 209.304688 L 125.796875 209.304688 L 125.796875 184.882812 L 119.730469 184.882812 L 119.730469 209.304688 " fill-opacity="1" fill-rule="nonzero"/><path fill="#99b9ff" d="M 110.859375 209.304688 L 116.929688 209.304688 L 116.929688 184.882812 L 110.859375 184.882812 L 110.859375 209.304688 " fill-opacity="1" fill-rule="nonzero"/><path fill="#99b9ff" d="M 101.992188 209.304688 L 108.058594 209.304688 L 108.058594 184.882812 L 101.992188 184.882812 L 101.992188 209.304688 " fill-opacity="1" fill-rule="nonzero"/><path fill="#99b9ff" d="M 93.121094 209.304688 L 99.191406 209.304688 L 99.191406 184.882812 L 93.121094 184.882812 L 93.121094 209.304688 " fill-opacity="1" fill-rule="nonzero"/><path fill="#99b9ff" d="M 84.253906 209.304688 L 90.320312 209.304688 L 90.320312 184.882812 L 84.253906 184.882812 L 84.253906 209.304688 " fill-opacity="1" fill-rule="nonzero"/><path fill="#99b9ff" d="M 75.382812 209.304688 L 81.453125 209.304688 L 81.453125 184.882812 L 75.382812 184.882812 L 75.382812 209.304688 " fill-opacity="1" fill-rule="nonzero"/><path fill="#99b9ff" d="M 66.515625 209.304688 L 72.582031 209.304688 L 72.582031 184.882812 L 66.515625 184.882812 L 66.515625 209.304688 " fill-opacity="1" fill-rule="nonzero"/><path fill="#99b9ff" d="M 57.644531 209.304688 L 63.714844 209.304688 L 63.714844 184.882812 L 57.644531 184.882812 L 57.644531 209.304688 " fill-opacity="1" fill-rule="nonzero"/><path fill="#99b9ff" d="M 48.777344 209.304688 L 54.84375 209.304688 L 54.84375 184.882812 L 48.777344 184.882812 L 48.777344 209.304688 " fill-opacity="1" fill-rule="nonzero"/><path fill="#99b9ff" d="M 32.039062 263.191406 L 183.914062 263.191406 L 183.914062 221.445312 L 32.039062 221.445312 L 32.039062 263.191406 " fill-opacity="1" fill-rule="nonzero"/><path fill="#000000" d="M 32.664062 262.566406 L 183.289062 262.566406 L 183.289062 222.070312 L 32.664062 222.070312 Z M 184.535156 263.816406 L 31.414062 263.816406 L 31.414062 220.820312 L 184.535156 220.820312 L 184.535156 263.816406 " fill-opacity="1" fill-rule="nonzero"/><path fill="#5479f7" d="M 41.117188 224.5625 L 174.835938 224.5625 C 178.128906 224.5625 180.800781 227.234375 180.800781 230.535156 L 180.800781 254.105469 C 180.800781 257.402344 178.128906 260.074219 174.835938 260.074219 L 41.117188 260.074219 C 37.820312 260.074219 35.152344 257.402344 35.152344 254.105469 L 35.152344 230.535156 C 35.152344 227.234375 37.820312 224.5625 41.117188 224.5625 " fill-opacity="1" fill-rule="nonzero"/><path fill="#99b9ff" d="M 159.859375 242.320312 C 159.859375 244.363281 161.519531 246.023438 163.5625 246.023438 C 165.605469 246.023438 167.261719 244.363281 167.261719 242.320312 C 167.261719 240.273438 165.605469 238.613281 163.5625 238.613281 C 161.519531 238.613281 159.859375 240.273438 159.859375 242.320312 " fill-opacity="1" fill-rule="nonzero"/><path fill="#99b9ff" d="M 148.035156 242.320312 C 148.035156 244.363281 149.691406 246.023438 151.734375 246.023438 C 153.777344 246.023438 155.4375 244.363281 155.4375 242.320312 C 155.4375 240.273438 153.777344 238.613281 151.734375 238.613281 C 149.691406 238.613281 148.035156 240.273438 148.035156 242.320312 " fill-opacity="1" fill-rule="nonzero"/><path fill="#99b9ff" d="M 136.210938 242.320312 C 136.210938 244.363281 137.867188 246.023438 139.910156 246.023438 C 141.953125 246.023438 143.609375 244.363281 143.609375 242.320312 C 143.609375 240.273438 141.953125 238.613281 139.910156 238.613281 C 137.867188 238.613281 136.210938 240.273438 136.210938 242.320312 " fill-opacity="1" fill-rule="nonzero"/><path fill="#99b9ff" d="M 119.546875 254.53125 L 125.613281 254.53125 L 125.613281 230.109375 L 119.546875 230.109375 L 119.546875 254.53125 " fill-opacity="1" fill-rule="nonzero"/><path fill="#99b9ff" d="M 110.675781 254.53125 L 116.742188 254.53125 L 116.742188 230.109375 L 110.675781 230.109375 L 110.675781 254.53125 " fill-opacity="1" fill-rule="nonzero"/><path fill="#99b9ff" d="M 101.808594 254.53125 L 107.875 254.53125 L 107.875 230.109375 L 101.808594 230.109375 L 101.808594 254.53125 " fill-opacity="1" fill-rule="nonzero"/><path fill="#99b9ff" d="M 92.9375 254.53125 L 99.003906 254.53125 L 99.003906 230.109375 L 92.9375 230.109375 L 92.9375 254.53125 " fill-opacity="1" fill-rule="nonzero"/><path fill="#99b9ff" d="M 84.066406 254.53125 L 90.136719 254.53125 L 90.136719 230.109375 L 84.066406 230.109375 L 84.066406 254.53125 " fill-opacity="1" fill-rule="nonzero"/><path fill="#99b9ff" d="M 75.199219 254.53125 L 81.265625 254.53125 L 81.265625 230.109375 L 75.199219 230.109375 L 75.199219 254.53125 " fill-opacity="1" fill-rule="nonzero"/><path fill="#99b9ff" d="M 66.328125 254.53125 L 72.398438 254.53125 L 72.398438 230.109375 L 66.328125 230.109375 L 66.328125 254.53125 " fill-opacity="1" fill-rule="nonzero"/><path fill="#99b9ff" d="M 57.460938 254.53125 L 63.527344 254.53125 L 63.527344 230.109375 L 57.460938 230.109375 L 57.460938 254.53125 " fill-opacity="1" fill-rule="nonzero"/><path fill="#99b9ff" d="M 48.589844 254.53125 L 54.660156 254.53125 L 54.660156 230.109375 L 48.589844 230.109375 L 48.589844 254.53125 " fill-opacity="1" fill-rule="nonzero"/><path fill="#99b9ff" d="M 32.039062 308.425781 L 183.914062 308.425781 L 183.914062 266.679688 L 32.039062 266.679688 L 32.039062 308.425781 " fill-opacity="1" fill-rule="nonzero"/><path fill="#5479f7" d="M 41.117188 269.792969 L 174.835938 269.792969 C 178.128906 269.792969 180.800781 272.46875 180.800781 275.765625 L 180.800781 299.335938 C 180.800781 302.636719 178.128906 305.308594 174.835938 305.308594 L 41.117188 305.308594 C 37.820312 305.308594 35.152344 302.636719 35.152344 299.335938 L 35.152344 275.765625 C 35.152344 272.46875 37.820312 269.792969 41.117188 269.792969 " fill-opacity="1" fill-rule="nonzero"/><path fill="#99b9ff" d="M 159.859375 287.550781 C 159.859375 289.597656 161.519531 291.253906 163.5625 291.253906 C 165.605469 291.253906 167.261719 289.597656 167.261719 287.550781 C 167.261719 285.503906 165.605469 283.847656 163.5625 283.847656 C 161.519531 283.847656 159.859375 285.503906 159.859375 287.550781 " fill-opacity="1" fill-rule="nonzero"/><path fill="#99b9ff" d="M 148.035156 287.550781 C 148.035156 289.597656 149.691406 291.253906 151.734375 291.253906 C 153.777344 291.253906 155.4375 289.597656 155.4375 287.550781 C 155.4375 285.503906 153.777344 283.847656 151.734375 283.847656 C 149.691406 283.847656 148.035156 285.503906 148.035156 287.550781 " fill-opacity="1" fill-rule="nonzero"/><path fill="#99b9ff" d="M 136.210938 287.550781 C 136.210938 289.597656 137.867188 291.253906 139.910156 291.253906 C 141.953125 291.253906 143.609375 289.597656 143.609375 287.550781 C 143.609375 285.503906 141.953125 283.847656 139.910156 283.847656 C 137.867188 283.847656 136.210938 285.503906 136.210938 287.550781 " fill-opacity="1" fill-rule="nonzero"/><path fill="#99b9ff" d="M 119.546875 299.761719 L 125.613281 299.761719 L 125.613281 275.339844 L 119.546875 275.339844 L 119.546875 299.761719 " fill-opacity="1" fill-rule="nonzero"/><path fill="#99b9ff" d="M 110.675781 299.761719 L 116.742188 299.761719 L 116.742188 275.339844 L 110.675781 275.339844 L 110.675781 299.761719 " fill-opacity="1" fill-rule="nonzero"/><path fill="#99b9ff" d="M 101.808594 299.761719 L 107.875 299.761719 L 107.875 275.339844 L 101.808594 275.339844 L 101.808594 299.761719 " fill-opacity="1" fill-rule="nonzero"/><path fill="#99b9ff" d="M 92.9375 299.761719 L 99.003906 299.761719 L 99.003906 275.339844 L 92.9375 275.339844 L 92.9375 299.761719 " fill-opacity="1" fill-rule="nonzero"/><path fill="#99b9ff" d="M 84.066406 299.761719 L 90.136719 299.761719 L 90.136719 275.339844 L 84.066406 275.339844 L 84.066406 299.761719 " fill-opacity="1" fill-rule="nonzero"/><path fill="#99b9ff" d="M 75.199219 299.761719 L 81.265625 299.761719 L 81.265625 275.339844 L 75.199219 275.339844 L 75.199219 299.761719 " fill-opacity="1" fill-rule="nonzero"/><path fill="#99b9ff" d="M 66.328125 299.761719 L 72.398438 299.761719 L 72.398438 275.339844 L 66.328125 275.339844 L 66.328125 299.761719 " fill-opacity="1" fill-rule="nonzero"/><path fill="#99b9ff" d="M 57.460938 299.761719 L 63.527344 299.761719 L 63.527344 275.339844 L 57.460938 275.339844 L 57.460938 299.761719 " fill-opacity="1" fill-rule="nonzero"/><path fill="#99b9ff" d="M 48.589844 299.761719 L 54.660156 299.761719 L 54.660156 275.339844 L 48.589844 275.339844 L 48.589844 299.761719 " fill-opacity="1" fill-rule="nonzero"/><path fill="#000000" d="M 322.476562 66.304688 C 322.347656 66.304688 322.214844 66.265625 322.101562 66.179688 C 303.988281 52.464844 272.417969 36.792969 242.710938 32.699219 C 242.367188 32.648438 242.128906 32.335938 242.175781 31.992188 C 242.222656 31.652344 242.535156 31.414062 242.878906 31.460938 C 272.808594 35.585938 304.613281 51.371094 322.855469 65.183594 C 323.128906 65.390625 323.183594 65.785156 322.976562 66.058594 C 322.855469 66.222656 322.664062 66.304688 322.476562 66.304688 " fill-opacity="1" fill-rule="nonzero"/><path fill="#000000" d="M 309.367188 48.625 C 309.230469 48.625 309.097656 48.582031 308.984375 48.496094 C 300.117188 41.546875 274.542969 27.835938 252.820312 26.0625 C 252.472656 26.035156 252.21875 25.734375 252.246094 25.386719 C 252.277344 25.046875 252.574219 24.789062 252.917969 24.816406 C 276.199219 26.71875 301.695312 41.195312 309.75 47.511719 C 310.023438 47.722656 310.070312 48.113281 309.855469 48.386719 C 309.734375 48.542969 309.550781 48.625 309.367188 48.625 " fill-opacity="1" fill-rule="nonzero"/><path fill="#ffffff" d="M 234.046875 106.917969 C 233.886719 106.917969 233.722656 106.851562 233.601562 106.730469 C 233.359375 106.484375 233.363281 106.089844 233.609375 105.84375 L 259.617188 80.214844 C 259.863281 79.972656 260.257812 79.976562 260.5 80.222656 C 260.742188 80.46875 260.738281 80.863281 260.492188 81.105469 L 234.484375 106.734375 C 234.363281 106.855469 234.203125 106.917969 234.046875 106.917969 " fill-opacity="1" fill-rule="nonzero"/><path fill="#ffffff" d="M 278.957031 99.425781 C 278.796875 99.425781 278.636719 99.363281 278.515625 99.238281 C 278.273438 98.992188 278.277344 98.597656 278.523438 98.355469 L 304.53125 72.722656 C 304.773438 72.480469 305.167969 72.484375 305.410156 72.730469 C 305.65625 72.976562 305.648438 73.371094 305.40625 73.613281 L 279.398438 99.246094 C 279.273438 99.367188 279.117188 99.425781 278.957031 99.425781 " fill-opacity="1" fill-rule="nonzero"/><path fill="#ffffff" d="M 246.191406 80.695312 C 246.027344 80.695312 245.867188 80.636719 245.746094 80.511719 C 245.503906 80.265625 245.507812 79.871094 245.753906 79.628906 L 259.441406 66.136719 C 259.683594 65.894531 260.082031 65.898438 260.324219 66.144531 C 260.5625 66.390625 260.558594 66.785156 260.3125 67.027344 L 246.625 80.515625 C 246.503906 80.636719 246.347656 80.695312 246.191406 80.695312 " fill-opacity="1" fill-rule="nonzero"/><path fill="#000000" d="M 342.085938 79.34375 C 341.75 79.34375 341.472656 79.078125 341.464844 78.738281 C 341.457031 78.394531 341.726562 78.105469 342.070312 78.097656 L 344.90625 78.019531 C 345.253906 78.007812 345.539062 78.28125 345.550781 78.628906 C 345.558594 78.972656 345.285156 79.257812 344.941406 79.265625 L 342.105469 79.34375 C 342.097656 79.34375 342.09375 79.34375 342.085938 79.34375 " fill-opacity="1" fill-rule="nonzero"/><path fill="#000000" d="M 332.152344 79.609375 C 331.816406 79.609375 331.539062 79.339844 331.53125 79.003906 C 331.523438 78.660156 331.792969 78.371094 332.136719 78.363281 L 334.976562 78.285156 C 335.320312 78.277344 335.609375 78.546875 335.617188 78.890625 C 335.625 79.238281 335.355469 79.523438 335.011719 79.535156 L 332.171875 79.609375 C 332.164062 79.609375 332.160156 79.609375 332.152344 79.609375 " fill-opacity="1" fill-rule="nonzero"/><path fill="#000000" d="M 338.496094 75.941406 C 338.15625 75.941406 337.878906 75.664062 337.871094 75.324219 L 337.839844 72.523438 C 337.835938 72.175781 338.109375 71.894531 338.457031 71.890625 C 338.457031 71.890625 338.457031 71.890625 338.460938 71.890625 C 338.804688 71.890625 339.085938 72.164062 339.085938 72.507812 L 339.121094 75.308594 C 339.125 75.652344 338.847656 75.9375 338.503906 75.941406 C 338.5 75.941406 338.5 75.941406 338.496094 75.941406 " fill-opacity="1" fill-rule="nonzero"/><path fill="#000000" d="M 338.617188 85.742188 C 338.277344 85.742188 337.996094 85.464844 337.992188 85.125 L 337.957031 82.324219 C 337.957031 81.976562 338.230469 81.695312 338.574219 81.691406 C 338.898438 81.6875 339.203125 81.964844 339.207031 82.308594 L 339.238281 85.109375 C 339.246094 85.453125 338.96875 85.734375 338.625 85.742188 C 338.621094 85.742188 338.617188 85.742188 338.617188 85.742188 " fill-opacity="1" fill-rule="nonzero"/><path fill="#000000" d="M 230.929688 26.425781 L 230.933594 26.425781 Z M 232.238281 26.765625 C 231.878906 26.765625 231.523438 26.84375 231.1875 26.996094 C 229.855469 27.59375 229.246094 29.195312 229.839844 30.5625 C 230.125 31.226562 230.644531 31.734375 231.308594 31.996094 C 231.957031 32.246094 232.660156 32.226562 233.292969 31.941406 C 234.625 31.34375 235.230469 29.742188 234.640625 28.378906 C 234.355469 27.710938 233.832031 27.203125 233.167969 26.941406 C 232.867188 26.824219 232.550781 26.765625 232.238281 26.765625 Z M 232.238281 33.417969 C 231.773438 33.417969 231.304688 33.332031 230.855469 33.15625 C 229.878906 32.78125 229.109375 32.03125 228.691406 31.058594 C 227.835938 29.066406 228.722656 26.734375 230.675781 25.855469 C 231.613281 25.433594 232.660156 25.40625 233.621094 25.78125 C 234.597656 26.160156 235.367188 26.90625 235.789062 27.882812 C 236.640625 29.871094 235.753906 32.203125 233.804688 33.082031 C 233.304688 33.308594 232.773438 33.417969 232.238281 33.417969 " fill-opacity="1" fill-rule="nonzero"/><path fill="#99b9ff" d="M 279.472656 313.816406 C 272.648438 308.933594 265.578125 304.378906 258.398438 300.035156 C 243.820312 291.21875 228.707031 283.339844 213.488281 275.707031 C 205.480469 271.6875 197.265625 268.054688 189.125 264.316406 C 180.9375 260.554688 172.738281 256.828125 164.535156 253.105469 C 157.035156 249.703125 149.539062 246.300781 142.050781 242.878906 C 117.113281 189.894531 89.585938 129.828125 92.964844 129.828125 L 348.394531 122.578125 C 354.4375 122.578125 359.355469 127.5 359.355469 133.546875 L 359.355469 311.101562 C 359.355469 317.148438 354.4375 322.070312 348.394531 322.070312 L 291.269531 322.070312 C 287.40625 319.230469 283.375 316.605469 279.472656 313.816406 " fill-opacity="1" fill-rule="nonzero"/><path fill="#000000" d="M 93 130.457031 L 92.984375 130.457031 C 92.988281 130.457031 92.996094 130.457031 93 130.457031 Z M 291.476562 321.445312 L 348.394531 321.445312 C 354.09375 321.445312 358.730469 316.804688 358.730469 311.101562 L 358.730469 133.546875 C 358.730469 127.84375 354.09375 123.203125 348.394531 123.203125 L 93.289062 130.445312 C 93.199219 133.132812 99.902344 151.859375 142.519531 242.40625 C 150.101562 245.871094 157.902344 249.410156 164.792969 252.539062 C 173.140625 256.328125 181.304688 260.039062 189.386719 263.75 C 191.226562 264.59375 193.066406 265.433594 194.910156 266.269531 C 201.128906 269.105469 207.5625 272.035156 213.765625 275.148438 C 227.355469 281.964844 243.316406 290.1875 258.71875 299.503906 C 266.621094 304.28125 273.53125 308.796875 279.835938 313.308594 C 281.535156 314.523438 283.289062 315.730469 284.988281 316.894531 C 287.128906 318.363281 289.339844 319.882812 291.476562 321.445312 Z M 348.394531 322.695312 L 291.066406 322.695312 L 290.902344 322.574219 C 288.734375 320.980469 286.46875 319.425781 284.28125 317.925781 C 282.578125 316.757812 280.820312 315.546875 279.109375 314.324219 C 272.828125 309.832031 265.949219 305.335938 258.074219 300.570312 C 242.710938 291.277344 226.773438 283.070312 213.210938 276.265625 C 207.019531 273.160156 200.601562 270.238281 194.394531 267.410156 C 192.550781 266.566406 190.707031 265.726562 188.867188 264.886719 C 180.785156 261.171875 172.625 257.464844 164.277344 253.675781 C 157.324219 250.519531 149.441406 246.941406 141.792969 243.445312 L 141.585938 243.351562 L 141.488281 243.144531 C 89.835938 133.40625 91.585938 130.644531 92.242188 129.605469 C 92.402344 129.351562 92.667969 129.207031 92.964844 129.207031 L 348.378906 121.953125 C 354.78125 121.953125 359.976562 127.152344 359.976562 133.546875 L 359.976562 311.101562 C 359.976562 317.492188 354.78125 322.695312 348.394531 322.695312 " fill-opacity="1" fill-rule="nonzero"/><path fill="#ffffff" d="M 84.476562 123.199219 L 343.183594 123.199219 C 348.894531 123.199219 353.523438 127.832031 353.523438 133.546875 L 353.523438 311.101562 C 353.523438 316.816406 348.894531 321.449219 343.183594 321.449219 L 84.476562 321.449219 C 78.765625 321.449219 74.136719 316.816406 74.136719 311.101562 L 74.136719 133.546875 C 74.136719 127.832031 78.765625 123.199219 84.476562 123.199219 " fill-opacity="1" fill-rule="nonzero"/><path fill="#99b9ff" d="M 344.171875 322.242188 L 24.660156 322.242188 C 20.394531 322.242188 16.9375 325.703125 16.9375 329.972656 C 16.9375 334.238281 20.394531 337.699219 24.660156 337.699219 L 344.171875 337.699219 C 348.425781 337.699219 351.890625 334.234375 351.890625 329.972656 C 351.890625 325.707031 348.425781 322.242188 344.171875 322.242188 " fill-opacity="1" fill-rule="nonzero"/><path fill="#99b9ff" d="M 92.054688 130.273438 L 335.742188 130.273438 C 341.121094 130.273438 345.480469 134.574219 345.480469 139.882812 L 345.480469 304.761719 C 345.480469 310.070312 341.121094 314.371094 335.742188 314.371094 L 92.054688 314.371094 C 86.675781 314.371094 82.316406 310.070312 82.316406 304.761719 L 82.316406 139.882812 C 82.316406 134.574219 86.675781 130.273438 92.054688 130.273438 " fill-opacity="1" fill-rule="nonzero"/><path fill="#000000" d="M 343.179688 322.074219 L 84.476562 322.074219 C 78.429688 322.074219 73.511719 317.152344 73.511719 311.101562 L 73.511719 133.546875 C 73.511719 127.496094 78.429688 122.574219 84.476562 122.574219 L 197.308594 122.679688 C 197.65625 122.683594 197.933594 122.960938 197.933594 123.308594 C 197.933594 123.652344 197.652344 123.929688 197.308594 123.929688 L 84.472656 123.824219 C 79.117188 123.824219 74.761719 128.183594 74.761719 133.546875 L 74.761719 311.101562 C 74.761719 316.460938 79.117188 320.824219 84.476562 320.824219 L 343.179688 320.824219 C 348.539062 320.824219 352.898438 316.460938 352.898438 311.101562 L 352.898438 133.546875 C 352.898438 128.183594 348.539062 123.824219 343.179688 123.824219 L 268.148438 123.824219 C 267.800781 123.824219 267.523438 123.542969 267.523438 123.199219 C 267.523438 122.855469 267.800781 122.574219 268.148438 122.574219 L 343.179688 122.574219 C 349.230469 122.574219 354.144531 127.496094 354.144531 133.546875 L 354.144531 311.101562 C 354.144531 317.152344 349.230469 322.074219 343.179688 322.074219 " fill-opacity="1" fill-rule="nonzero"/><path fill="#99b9ff" d="M 345.105469 146.308594 L 345.382812 140.300781 C 345.382812 134.996094 340.875 130.765625 335.542969 130.765625 L 93.910156 130.765625 C 88.574219 130.765625 84.210938 134.996094 84.210938 140.300781 L 83.933594 147.695312 L 345.105469 146.308594 " fill-opacity="1" fill-rule="nonzero"/><path fill="#caddff" d="M 99.386719 140.550781 C 99.386719 142.277344 97.992188 143.671875 96.269531 143.671875 C 94.546875 143.671875 93.148438 142.277344 93.148438 140.550781 C 93.148438 138.828125 94.546875 137.429688 96.269531 137.429688 C 97.992188 137.429688 99.386719 138.828125 99.386719 140.550781 " fill-opacity="1" fill-rule="nonzero"/><path fill="#caddff" d="M 109.371094 140.34375 C 109.371094 142.066406 107.972656 143.464844 106.25 143.464844 C 104.527344 143.464844 103.128906 142.066406 103.128906 140.34375 C 103.128906 138.617188 104.527344 137.222656 106.25 137.222656 C 107.972656 137.222656 109.371094 138.617188 109.371094 140.34375 " fill-opacity="1" fill-rule="nonzero"/><path fill="#caddff" d="M 120.183594 140.757812 C 120.183594 142.484375 118.785156 143.882812 117.0625 143.882812 C 115.339844 143.882812 113.945312 142.484375 113.945312 140.757812 C 113.945312 139.035156 115.339844 137.636719 117.0625 137.636719 C 118.785156 137.636719 120.183594 139.035156 120.183594 140.757812 " fill-opacity="1" fill-rule="nonzero"/><path fill="#caddff" d="M 333.511719 314.804688 L 95.003906 314.597656 L 96.25 147.453125 L 334.550781 146.410156 L 334.550781 313.765625 C 334.550781 314.339844 334.085938 314.804688 333.511719 314.804688 " fill-opacity="1" fill-rule="nonzero"/><path fill="#ffffff" d="M 144.097656 211.753906 L 108.167969 211.753906 L 108.167969 202.628906 L 144.097656 202.628906 L 144.097656 211.753906 " fill-opacity="1" fill-rule="nonzero"/><path fill="#ffffff" d="M 293.816406 212.160156 L 166.140625 212.160156 L 166.140625 203.03125 L 293.816406 203.03125 L 293.816406 212.160156 " fill-opacity="1" fill-rule="nonzero"/><path fill="#ffffff" d="M 143.683594 257.191406 L 107.753906 257.191406 L 107.753906 248.0625 L 143.683594 248.0625 L 143.683594 257.191406 " fill-opacity="1" fill-rule="nonzero"/><path fill="#ffffff" d="M 293.398438 257.597656 L 165.726562 257.597656 L 165.726562 248.46875 L 293.398438 248.46875 L 293.398438 257.597656 " fill-opacity="1" fill-rule="nonzero"/><path fill="#ffffff" d="M 142.851562 301.816406 L 106.921875 301.816406 L 106.921875 292.6875 L 142.851562 292.6875 L 142.851562 301.816406 " fill-opacity="1" fill-rule="nonzero"/><path fill="#ffffff" d="M 292.566406 302.222656 L 164.890625 302.222656 L 164.890625 293.09375 L 292.566406 293.09375 L 292.566406 302.222656 " fill-opacity="1" fill-rule="nonzero"/><path fill="#ffffff" d="M 199.4375 227.578125 L 165.988281 227.578125 L 165.988281 218.449219 L 199.4375 218.449219 L 199.4375 227.578125 " fill-opacity="1" fill-rule="nonzero"/><path fill="#ffffff" d="M 322.925781 227.980469 L 204.070312 227.980469 L 204.070312 218.855469 L 322.925781 218.855469 L 322.925781 227.980469 " fill-opacity="1" fill-rule="nonzero"/><path fill="#ffffff" d="M 199.019531 242.585938 L 165.570312 242.585938 L 165.570312 233.457031 L 199.019531 233.457031 L 199.019531 242.585938 " fill-opacity="1" fill-rule="nonzero"/><path fill="#ffffff" d="M 322.511719 242.992188 L 203.65625 242.992188 L 203.65625 233.863281 L 322.511719 233.863281 L 322.511719 242.992188 " fill-opacity="1" fill-rule="nonzero"/><path fill="#ffffff" d="M 144.101562 167.628906 L 108.171875 167.628906 L 108.171875 158.5 L 144.101562 158.5 L 144.101562 167.628906 " fill-opacity="1" fill-rule="nonzero"/><path fill="#ffffff" d="M 293.816406 168.03125 L 166.140625 168.03125 L 166.140625 158.90625 L 293.816406 158.90625 L 293.816406 168.03125 " fill-opacity="1" fill-rule="nonzero"/><path fill="#ffffff" d="M 199.4375 183.449219 L 165.988281 183.449219 L 165.988281 174.320312 L 199.4375 174.320312 L 199.4375 183.449219 " fill-opacity="1" fill-rule="nonzero"/><path fill="#ffffff" d="M 322.929688 183.851562 L 204.070312 183.851562 L 204.070312 174.726562 L 322.929688 174.726562 L 322.929688 183.851562 " fill-opacity="1" fill-rule="nonzero"/><path fill="#ffffff" d="M 199.019531 198.457031 L 165.570312 198.457031 L 165.570312 189.332031 L 199.019531 189.332031 L 199.019531 198.457031 " fill-opacity="1" fill-rule="nonzero"/><path fill="#ffffff" d="M 322.511719 198.863281 L 203.65625 198.863281 L 203.65625 189.734375 L 322.511719 189.734375 L 322.511719 198.863281 " fill-opacity="1" fill-rule="nonzero"/><path fill="#ffffff" d="M 199.019531 272.605469 L 165.570312 272.605469 L 165.570312 263.476562 L 199.019531 263.476562 L 199.019531 272.605469 " fill-opacity="1" fill-rule="nonzero"/><path fill="#ffffff" d="M 322.511719 273.011719 L 203.65625 273.011719 L 203.65625 263.882812 L 322.511719 263.882812 L 322.511719 273.011719 " fill-opacity="1" fill-rule="nonzero"/><path fill="#ffffff" d="M 198.605469 287.617188 L 165.15625 287.617188 L 165.15625 278.488281 L 198.605469 278.488281 L 198.605469 287.617188 " fill-opacity="1" fill-rule="nonzero"/><path fill="#ffffff" d="M 322.097656 288.023438 L 203.238281 288.023438 L 203.238281 278.890625 L 322.097656 278.890625 L 322.097656 288.023438 " fill-opacity="1" fill-rule="nonzero"/><path fill="#000000" d="M 257.472656 338.324219 L 24.660156 338.324219 C 20.058594 338.324219 16.3125 334.574219 16.3125 329.96875 C 16.3125 325.363281 20.058594 321.617188 24.660156 321.617188 L 344.171875 321.617188 C 348.777344 321.617188 352.519531 325.363281 352.519531 329.96875 C 352.519531 333.90625 349.730469 337.34375 345.878906 338.148438 L 345.625 336.925781 C 348.898438 336.242188 351.273438 333.316406 351.273438 329.96875 C 351.273438 326.054688 348.085938 322.863281 344.171875 322.863281 L 24.660156 322.863281 C 20.746094 322.863281 17.5625 326.054688 17.5625 329.96875 C 17.5625 333.886719 20.746094 337.074219 24.660156 337.074219 L 257.472656 337.074219 L 257.472656 338.324219 " fill-opacity="1" fill-rule="nonzero"/><path fill="#5479f7" d="M 278.199219 160.238281 C 278.199219 183.113281 259.671875 201.660156 236.816406 201.660156 C 213.964844 201.660156 195.4375 183.113281 195.4375 160.238281 C 195.4375 137.359375 213.964844 118.816406 236.816406 118.816406 C 259.671875 118.816406 278.199219 137.359375 278.199219 160.238281 " fill-opacity="1" fill-rule="nonzero"/><path fill="#ffffff" d="M 241.378906 138.582031 C 241.378906 141.367188 239.125 143.625 236.339844 143.625 C 233.558594 143.625 231.304688 141.367188 231.304688 138.582031 C 231.304688 135.796875 233.558594 133.539062 236.339844 133.539062 C 239.125 133.539062 241.378906 135.796875 241.378906 138.582031 " fill-opacity="1" fill-rule="nonzero"/><path fill="#ffffff" d="M 242.375 183.960938 L 242.410156 183.960938 L 242.410156 146.710938 C 242.410156 146.523438 242.242188 146.371094 242.03125 146.371094 L 225.621094 146.289062 L 225.71875 147.355469 C 225.734375 147.507812 225.875 147.621094 226.042969 147.625 C 228.128906 147.667969 230.03125 147.996094 231.609375 148.597656 C 231.738281 148.644531 231.8125 148.757812 231.8125 148.878906 L 231.8125 184.089844 L 229.695312 184.46875 L 229.695312 185.484375 L 244.101562 185.484375 L 244.101562 184.339844 L 242.375 183.960938 " fill-opacity="1" fill-rule="nonzero"/><path fill="#000000" d="M 236.816406 202.285156 C 213.65625 202.285156 194.8125 183.421875 194.8125 160.238281 C 194.8125 137.054688 213.65625 118.191406 236.816406 118.191406 C 259.980469 118.191406 278.820312 137.054688 278.820312 160.238281 C 278.820312 168.207031 276.582031 175.964844 272.351562 182.667969 C 272.167969 182.960938 271.78125 183.046875 271.492188 182.863281 C 271.199219 182.679688 271.113281 182.292969 271.296875 182 C 275.402344 175.496094 277.574219 167.96875 277.574219 160.238281 C 277.574219 137.742188 259.292969 119.441406 236.816406 119.441406 C 214.34375 119.441406 196.058594 137.742188 196.058594 160.238281 C 196.058594 182.734375 214.34375 201.035156 236.816406 201.035156 C 238.496094 201.035156 240.1875 200.933594 241.84375 200.730469 C 242.1875 200.6875 242.496094 200.929688 242.539062 201.273438 C 242.582031 201.613281 242.335938 201.925781 241.996094 201.96875 C 240.289062 202.179688 238.550781 202.285156 236.816406 202.285156 " fill-opacity="1" fill-rule="nonzero"/><path fill="#ffffff" d="M 282.449219 341.269531 L 282.15625 351.765625 L 277.199219 351.765625 L 275.53125 340.308594 L 282.449219 341.269531 " fill-opacity="1" fill-rule="nonzero"/><path fill="#000000" d="M 277.734375 351.140625 L 281.546875 351.140625 L 281.808594 341.8125 L 276.265625 341.042969 Z M 282.15625 352.390625 L 277.195312 352.390625 C 276.886719 352.390625 276.625 352.164062 276.578125 351.855469 L 274.914062 340.398438 C 274.882812 340.203125 274.949219 340.007812 275.089844 339.867188 C 275.226562 339.730469 275.421875 339.664062 275.617188 339.691406 L 282.535156 340.652344 C 282.851562 340.695312 283.082031 340.96875 283.070312 341.289062 L 282.777344 351.785156 C 282.769531 352.121094 282.492188 352.390625 282.15625 352.390625 " fill-opacity="1" fill-rule="nonzero"/><path fill="#000000" d="M 256.863281 360.523438 L 282.582031 360.523438 C 283.921875 360.523438 284.953125 359.335938 284.757812 358.007812 C 284.316406 355 283.53125 350.113281 282.855469 348.121094 C 281.851562 345.144531 278.597656 349.886719 278.597656 349.886719 L 276.691406 348.28125 C 276.691406 348.28125 259.738281 353.253906 255.847656 358.484375 C 255.222656 359.328125 255.8125 360.523438 256.863281 360.523438 " fill-opacity="1" fill-rule="nonzero"/><path fill="#ffffff" d="M 282.449219 359.191406 L 258.421875 359.191406 C 258.074219 359.191406 257.796875 358.910156 257.796875 358.566406 C 257.796875 358.21875 258.074219 357.941406 258.421875 357.941406 L 282.449219 357.941406 C 282.792969 357.941406 283.070312 358.21875 283.070312 358.566406 C 283.070312 358.910156 282.792969 359.191406 282.449219 359.191406 " fill-opacity="1" fill-rule="nonzero"/><path fill="#ffffff" d="M 319.199219 330.109375 L 328.628906 342.0625 L 333.617188 338.320312 L 325.546875 325.136719 L 319.199219 330.109375 " fill-opacity="1" fill-rule="nonzero"/><path fill="#000000" d="M 320.078125 330.214844 L 328.738281 341.199219 L 332.789062 338.160156 L 325.378906 326.058594 Z M 328.628906 342.6875 C 328.441406 342.6875 328.261719 342.605469 328.136719 342.449219 L 318.710938 330.496094 C 318.609375 330.367188 318.5625 330.199219 318.582031 330.035156 C 318.601562 329.871094 318.683594 329.722656 318.816406 329.621094 L 325.164062 324.644531 C 325.300781 324.53125 325.480469 324.488281 325.65625 324.519531 C 325.832031 324.550781 325.984375 324.65625 326.078125 324.808594 L 334.148438 337.996094 C 334.320312 338.269531 334.246094 338.625 333.992188 338.820312 L 329.003906 342.5625 C 328.890625 342.648438 328.757812 342.6875 328.628906 342.6875 " fill-opacity="1" fill-rule="nonzero"/><path fill="#000000" d="M 318.664062 359.519531 C 322.984375 357.5 334.101562 351.84375 340.382812 344.460938 C 340.949219 343.796875 340.964844 342.824219 340.4375 342.125 C 339.101562 340.34375 336.386719 337.042969 333.621094 335.511719 C 333.621094 335.511719 327.988281 337.46875 329.496094 340.128906 L 327.445312 339.796875 C 327.445312 339.796875 318.375 350 317.039062 358.304688 C 316.894531 359.210938 317.832031 359.910156 318.664062 359.519531 " fill-opacity="1" fill-rule="nonzero"/><path fill="#ffffff" d="M 318.875 357.996094 C 318.65625 357.996094 318.445312 357.882812 318.328125 357.675781 C 318.160156 357.375 318.269531 356.996094 318.570312 356.828125 C 318.703125 356.753906 331.785156 349.425781 338.660156 342.105469 C 338.894531 341.851562 339.289062 341.839844 339.539062 342.078125 C 339.789062 342.3125 339.804688 342.707031 339.566406 342.960938 C 332.5625 350.421875 319.3125 357.84375 319.175781 357.921875 C 319.082031 357.972656 318.976562 357.996094 318.875 357.996094 " fill-opacity="1" fill-rule="nonzero"/><path fill="#5479f7" d="M 280.359375 259.589844 C 280.359375 259.589844 294.828125 301.261719 320.011719 333.535156 L 328.550781 326.78125 C 328.550781 326.78125 321.765625 304.796875 320.089844 301.96875 C 318.410156 299.140625 313.914062 291.828125 312.566406 287.988281 C 308.191406 275.523438 303.550781 251.75 303.550781 251.75 L 280.359375 259.589844 " fill-opacity="1" fill-rule="nonzero"/><path fill="#5479f7" d="M 259.878906 252.671875 C 259.878906 252.671875 264.496094 283.941406 267.136719 300.386719 C 269.777344 316.832031 275.453125 343.324219 275.453125 343.324219 L 283.613281 343.324219 C 283.613281 343.324219 286.300781 325.332031 286.949219 315.359375 C 287.59375 305.386719 284.304688 302.570312 283.652344 294.546875 C 283 286.519531 287.074219 260.574219 287.074219 260.574219 L 274.988281 248.75 L 259.878906 252.671875 " fill-opacity="1" fill-rule="nonzero"/><path fill="#ffffff" d="M 262.167969 197.453125 C 260.863281 196.144531 261.136719 195.320312 261.378906 195.261719 C 261.601562 195.207031 262.925781 194.554688 263.34375 194.1875 C 264.332031 193.320312 264.648438 192.066406 264.054688 191.386719 C 263.742188 191.027344 263.222656 190.902344 262.660156 191 C 262.8125 189.1875 262.292969 188.320312 261.859375 187.074219 C 260.363281 182.777344 256.617188 183.671875 255.261719 185.214844 C 254.078125 186.5625 254.160156 187.71875 251.601562 189.019531 C 251.351562 189.140625 251.359375 189.511719 251.492188 189.75 L 252.164062 191.121094 C 252.316406 191.386719 252.257812 192.046875 252.164062 192.347656 C 251.867188 193.261719 251.171875 195.183594 251.367188 195.554688 C 251.75 196.277344 254.757812 197.359375 254.757812 197.359375 L 260.085938 205.410156 C 259.867188 207.101562 258.898438 208.058594 258.175781 208.542969 C 257.726562 208.84375 257.722656 209.503906 258.179688 209.789062 C 259.039062 210.332031 260.777344 211.167969 264.261719 212.402344 C 268.875 214.03125 273.875 207.976562 273.875 207.976562 C 273.875 207.976562 272.472656 207.769531 262.167969 197.453125 " fill-opacity="1" fill-rule="nonzero"/><path fill="#000000" d="M 273.964844 207.359375 C 273.96875 207.359375 273.96875 207.359375 273.96875 207.359375 C 273.96875 207.359375 273.96875 207.359375 273.964844 207.359375 Z M 273.96875 207.359375 Z M 273.96875 207.359375 Z M 274.054688 207.378906 Z M 251.957031 195.304688 C 252.253906 195.617188 253.609375 196.285156 254.96875 196.773438 C 255.09375 196.820312 255.207031 196.902344 255.277344 197.015625 L 260.605469 205.066406 C 260.691406 205.191406 260.726562 205.339844 260.707031 205.488281 C 260.453125 207.398438 259.378906 208.484375 258.519531 209.0625 C 258.46875 209.097656 258.460938 209.148438 258.460938 209.175781 C 258.460938 209.230469 258.496094 209.253906 258.511719 209.257812 C 259.257812 209.726562 260.898438 210.550781 264.472656 211.8125 C 267.828125 212.996094 271.570312 209.523438 272.898438 208.128906 C 271.601562 207.25 268.601562 204.78125 261.730469 197.890625 C 260.425781 196.585938 260.507812 195.660156 260.601562 195.320312 C 260.699219 194.976562 260.929688 194.730469 261.226562 194.652344 C 261.445312 194.585938 262.617188 193.992188 262.929688 193.71875 C 263.710938 193.035156 263.902344 192.15625 263.585938 191.800781 C 263.429688 191.621094 263.132812 191.550781 262.765625 191.613281 C 262.574219 191.648438 262.378906 191.589844 262.238281 191.460938 C 262.097656 191.328125 262.023438 191.140625 262.039062 190.949219 C 262.152344 189.609375 261.875 188.878906 261.519531 187.953125 C 261.4375 187.738281 261.351562 187.511719 261.269531 187.277344 C 260.742188 185.761719 259.863281 184.835938 258.730469 184.617188 C 257.546875 184.382812 256.324219 184.949219 255.730469 185.628906 C 255.398438 186.003906 255.175781 186.367188 254.941406 186.75 C 254.398438 187.628906 253.84375 188.539062 252.054688 189.484375 L 252.726562 190.84375 C 252.996094 191.324219 252.863281 192.210938 252.757812 192.535156 C 252.710938 192.679688 252.65625 192.847656 252.59375 193.03125 C 252.40625 193.597656 251.976562 194.886719 251.957031 195.304688 Z M 265.917969 213.304688 C 265.300781 213.304688 264.675781 213.210938 264.054688 212.992188 C 261.101562 211.945312 259.011719 211.046875 257.851562 210.320312 C 257.457031 210.074219 257.21875 209.65625 257.214844 209.191406 C 257.207031 208.726562 257.433594 208.285156 257.828125 208.027344 C 258.4375 207.617188 259.195312 206.859375 259.433594 205.554688 L 254.351562 197.878906 C 253.296875 197.488281 251.234375 196.640625 250.816406 195.847656 C 250.566406 195.375 250.746094 194.632812 251.410156 192.636719 C 251.472656 192.460938 251.523438 192.296875 251.570312 192.152344 C 251.636719 191.941406 251.652344 191.519531 251.609375 191.402344 L 250.933594 190.027344 C 250.777344 189.75 250.730469 189.375 250.828125 189.054688 C 250.90625 188.789062 251.082031 188.578125 251.316406 188.460938 C 252.929688 187.644531 253.367188 186.929688 253.875 186.097656 C 254.128906 185.6875 254.390625 185.257812 254.792969 184.804688 C 255.597656 183.886719 257.246094 183.054688 258.96875 183.390625 C 260.078125 183.605469 261.585938 184.386719 262.449219 186.867188 C 262.527344 187.09375 262.605469 187.300781 262.683594 187.503906 C 262.992188 188.308594 263.308594 189.136719 263.3125 190.363281 C 263.800781 190.417969 264.226562 190.628906 264.523438 190.976562 C 265.359375 191.929688 265.019531 193.542969 263.753906 194.65625 C 263.363281 195 262.34375 195.535156 261.804688 195.765625 C 261.835938 195.972656 262.011719 196.410156 262.613281 197.011719 C 271.917969 206.332031 273.882812 207.304688 274.046875 207.375 C 274.230469 207.425781 274.386719 207.566406 274.457031 207.75 C 274.539062 207.960938 274.5 208.199219 274.355469 208.375 C 274.167969 208.601562 270.226562 213.304688 265.917969 213.304688 " fill-opacity="1" fill-rule="nonzero"/><path fill="#000000" d="M 256.761719 186.414062 C 256.761719 186.414062 252.046875 182.65625 253.359375 179.636719 C 253.480469 179.371094 253.832031 178.539062 254.640625 178.171875 C 256.308594 177.417969 258.460938 179.238281 258.941406 179.640625 C 263.121094 183.125 265.910156 183.464844 267.683594 185.292969 C 268.328125 185.953125 269.042969 187.179688 268.953125 189.628906 C 268.617188 191.375 267.894531 192.296875 267.300781 192.816406 C 266.082031 193.886719 265.027344 193.578125 264.160156 194.703125 C 263.1875 195.964844 263.796875 197.296875 263.121094 197.691406 C 262.597656 198 261.453125 197.660156 258.757812 194.988281 C 260.371094 193.1875 261.167969 191.410156 260.597656 190.515625 C 260.433594 190.265625 259.980469 189.835938 259.503906 189.839844 C 258.871094 189.84375 258.453125 190.515625 258.453125 190.515625 L 256.761719 186.414062 " fill-opacity="1" fill-rule="nonzero"/><path fill="#ffffff" d="M 206.980469 193.09375 L 201.109375 189.601562 C 200.5625 189.273438 200.117188 188.800781 199.820312 188.234375 L 198.355469 185.417969 C 198.140625 185.003906 198.648438 184.589844 199.011719 184.882812 L 202.277344 187.539062 C 202.734375 187.914062 203.273438 188.179688 203.851562 188.3125 L 208.566406 189.472656 L 209.648438 187.273438 C 209.964844 186.625 210.636719 186.226562 211.359375 186.261719 L 210.132812 191.578125 L 211.574219 196.558594 L 207.933594 197.730469 L 206.980469 193.09375 " fill-opacity="1" fill-rule="nonzero"/><path fill="#000000" d="M 199.339844 185.957031 L 200.375 187.945312 C 200.617188 188.410156 200.980469 188.796875 201.429688 189.0625 L 207.300781 192.558594 C 207.453125 192.648438 207.558594 192.796875 207.59375 192.96875 L 208.402344 196.925781 L 210.804688 196.152344 L 209.535156 191.753906 C 209.507812 191.648438 209.503906 191.539062 209.527344 191.4375 L 210.511719 187.160156 C 210.386719 187.265625 210.28125 187.398438 210.207031 187.550781 L 209.125 189.75 C 208.996094 190.011719 208.703125 190.152344 208.417969 190.082031 L 203.703125 188.917969 C 203.042969 188.765625 202.414062 188.453125 201.882812 188.023438 Z M 207.933594 198.355469 C 207.824219 198.355469 207.714844 198.328125 207.617188 198.269531 C 207.464844 198.179688 207.355469 198.027344 207.320312 197.855469 L 206.425781 193.488281 L 200.789062 190.136719 C 200.140625 189.75 199.617188 189.191406 199.269531 188.523438 L 197.804688 185.707031 C 197.570312 185.257812 197.679688 184.722656 198.070312 184.402344 C 198.464844 184.082031 199.011719 184.082031 199.40625 184.398438 L 202.667969 187.054688 C 203.054688 187.367188 203.511719 187.589844 203.992188 187.703125 L 208.226562 188.746094 L 209.085938 187 C 209.515625 186.128906 210.425781 185.59375 211.386719 185.640625 C 211.570312 185.648438 211.742188 185.738281 211.855469 185.882812 C 211.96875 186.035156 212.007812 186.222656 211.964844 186.402344 L 210.78125 191.558594 L 212.171875 196.386719 C 212.265625 196.710938 212.085938 197.050781 211.765625 197.152344 L 208.121094 198.324219 C 208.058594 198.347656 207.996094 198.355469 207.933594 198.355469 " fill-opacity="1" fill-rule="nonzero"/><path fill="#ffffff" d="M 278.085938 145.445312 C 278.085938 145.445312 276.363281 143.390625 274.503906 143.578125 C 272.644531 143.757812 271.089844 143.667969 271.089844 143.667969 C 271.089844 143.667969 271.1875 142.15625 272.210938 142.210938 C 273.234375 142.269531 273.234375 142.269531 273.234375 142.269531 L 274.230469 141.902344 L 270.335938 133.980469 L 272.894531 134.417969 C 273.40625 134.503906 273.871094 134.785156 274.191406 135.195312 L 280.65625 143.59375 L 278.085938 145.445312 " fill-opacity="1" fill-rule="nonzero"/><path fill="#000000" d="M 274.742188 142.9375 C 276.222656 142.9375 277.53125 144 278.164062 144.617188 L 279.769531 143.460938 L 273.699219 135.578125 C 273.472656 135.285156 273.152344 135.09375 272.789062 135.03125 L 271.433594 134.800781 L 274.792969 141.625 C 274.875 141.78125 274.878906 141.96875 274.8125 142.128906 C 274.746094 142.296875 274.617188 142.425781 274.449219 142.484375 L 273.449219 142.851562 C 273.371094 142.878906 273.289062 142.890625 273.203125 142.886719 L 272.179688 142.832031 C 272.054688 142.828125 271.960938 142.925781 271.890625 143.0625 C 272.503906 143.066406 273.429688 143.050781 274.445312 142.953125 C 274.542969 142.941406 274.644531 142.9375 274.742188 142.9375 Z M 278.085938 146.066406 C 277.90625 146.066406 277.730469 145.988281 277.609375 145.84375 C 277.1875 145.34375 275.820312 144.070312 274.566406 144.195312 C 272.679688 144.378906 271.125 144.289062 271.054688 144.285156 C 270.890625 144.277344 270.738281 144.199219 270.628906 144.078125 C 270.519531 143.953125 270.460938 143.789062 270.472656 143.625 C 270.539062 142.597656 271.125 141.527344 272.246094 141.582031 L 273.144531 141.632812 L 273.367188 141.554688 L 269.777344 134.257812 C 269.675781 134.046875 269.699219 133.792969 269.839844 133.605469 C 269.976562 133.417969 270.210938 133.324219 270.441406 133.363281 L 272.996094 133.796875 C 273.667969 133.914062 274.269531 134.273438 274.6875 134.8125 L 281.152344 143.210938 C 281.257812 143.347656 281.300781 143.515625 281.277344 143.683594 C 281.25 143.851562 281.160156 144 281.023438 144.101562 L 278.449219 145.949219 C 278.339844 146.027344 278.210938 146.066406 278.085938 146.066406 " fill-opacity="1" fill-rule="nonzero"/><path fill="#ffffff" d="M 249.910156 228.527344 L 253.535156 256.007812 C 253.535156 256.007812 262.980469 257.46875 272.613281 256.660156 C 272.613281 256.660156 260.386719 227.714844 249.910156 228.527344 " fill-opacity="1" fill-rule="nonzero"/><path fill="#000000" d="M 254.089844 255.457031 C 256.027344 255.71875 263.738281 256.660156 271.6875 256.105469 C 269.683594 251.597656 259.441406 229.570312 250.621094 229.140625 Z M 266.523438 257.527344 C 259.375 257.527344 253.511719 256.636719 253.4375 256.625 C 253.164062 256.582031 252.953125 256.363281 252.914062 256.089844 L 249.292969 228.609375 C 249.269531 228.441406 249.320312 228.269531 249.425781 228.136719 C 249.535156 228.003906 249.691406 227.917969 249.863281 227.90625 C 260.667969 227.070312 272.679688 255.21875 273.1875 256.417969 C 273.265625 256.601562 273.25 256.8125 273.148438 256.984375 C 273.042969 257.15625 272.863281 257.269531 272.664062 257.28125 C 270.582031 257.457031 268.503906 257.527344 266.523438 257.527344 " fill-opacity="1" fill-rule="nonzero"/><path fill="#000000" d="M 211.574219 196.558594 C 209.550781 197.988281 209.453125 196.136719 207.429688 197.566406 C 211.3125 212.96875 221.085938 227.515625 227.816406 229.871094 C 239.40625 233.921875 246.589844 227.71875 254.882812 233.5 C 264.234375 240.015625 258.9375 250.574219 269.457031 260.804688 C 278.886719 269.980469 291.753906 269.855469 294.339844 269.832031 C 296.972656 269.808594 311.933594 269.664062 316.027344 260.804688 C 317.46875 257.6875 317.050781 254.597656 316.753906 252.378906 C 316.195312 248.253906 314.273438 245.214844 307.140625 236.34375 C 301.9375 229.871094 301.222656 229.363281 299.632812 227.253906 C 296.179688 222.671875 292.234375 215.335938 290.832031 203.582031 C 293.175781 199.140625 297.835938 188.828125 296.875 175.261719 C 295.5625 156.722656 284.65625 144.910156 281.496094 141.714844 C 279.808594 142.957031 278.117188 144.199219 276.425781 145.441406 C 278.3125 148.652344 283.722656 158.804688 282.078125 172.359375 C 280.476562 185.546875 273.183594 193.800781 270.859375 196.359375 C 267.675781 199.863281 255.359375 212.28125 236.808594 211.191406 C 222.671875 210.359375 214.421875 199.273438 211.574219 196.558594 " fill-opacity="1" fill-rule="nonzero"/><path fill="#ffffff" d="M 251.195312 209.238281 C 251.195312 209.238281 249.824219 206.410156 251.195312 205.847656 C 252.566406 205.285156 267.785156 197.65625 270.238281 194.300781 C 272.6875 190.941406 284.183594 192.285156 286.5625 194.300781 C 288.9375 196.316406 285.617188 204.640625 280.3125 207.957031 C 275.011719 211.277344 263.738281 205.117188 251.195312 209.238281 " fill-opacity="1" fill-rule="nonzero"/><path fill="#000000" d="M 277.1875 192.878906 C 276.390625 192.878906 275.601562 192.917969 274.855469 193.007812 C 272.804688 193.253906 271.34375 193.84375 270.738281 194.667969 C 268.074219 198.316406 252.253906 206.089844 251.433594 206.425781 C 251.363281 206.453125 251.304688 206.496094 251.261719 206.605469 C 251.101562 207.035156 251.320312 207.863281 251.550781 208.46875 C 258.308594 206.398438 264.703125 207.195312 269.871094 207.839844 C 274.277344 208.386719 277.753906 208.824219 279.980469 207.429688 C 283.714844 205.089844 286.472656 200.097656 286.703125 196.894531 C 286.777344 195.890625 286.582031 195.136719 286.160156 194.777344 C 284.984375 193.785156 280.964844 192.878906 277.1875 192.878906 Z M 251.195312 209.863281 C 250.960938 209.863281 250.742188 209.730469 250.636719 209.511719 C 250.53125 209.296875 249.632812 207.378906 250.101562 206.160156 C 250.257812 205.742188 250.554688 205.433594 250.957031 205.269531 C 252.269531 204.730469 267.398438 197.132812 269.730469 193.933594 C 270.566406 192.789062 272.238281 192.0625 274.707031 191.765625 C 279.058594 191.25 285.132812 192.269531 286.964844 193.824219 C 287.710938 194.457031 288.050781 195.550781 287.949219 196.988281 C 287.695312 200.476562 284.828125 205.867188 280.644531 208.488281 C 278.039062 210.117188 274.367188 209.65625 269.71875 209.078125 C 264.535156 208.433594 258.089844 207.628906 251.390625 209.828125 C 251.328125 209.851562 251.261719 209.863281 251.195312 209.863281 " fill-opacity="1" fill-rule="nonzero"/></svg>