<svg width="348" height="89" viewBox="0 0 348 89" fill="none" xmlns="http://www.w3.org/2000/svg">
<path d="M33.276 50.2344H56.6927V76.8333H33.276V50.2344Z" fill="#769FCD"/>
<path d="M45 0.015625L0.96875 34.776V88.9948H45L33.276 76.8646H13.1719V40.6615L45 15.5052L76.8281 40.6615V76.8646H56.724L45 88.9948H89.0313V34.776L45 0.015625Z" fill="#769FCD"/>
<path d="M127.07 78.6318C135.169 78.6318 141.175 75.0433 141.175 67.6631C141.175 60.5485 135.758 58.5224 128.805 57.4756C123.024 56.5641 121.784 55.7464 121.784 53.2308C121.784 51.2099 123.284 49.512 126.68 49.512C130.336 49.512 132.294 51.2724 132.461 53.7568L140.195 53.8193C140.195 47.4235 134.747 43.0485 126.649 43.0485C118.456 43.0485 114.013 47.2256 114.013 53.3974C114.013 60.3506 119.565 62.9287 126.029 63.7777C130.596 64.4652 133.112 65.2777 133.112 68.1214C133.112 70.6683 131.221 72.3662 127.138 72.3662C122.633 72.3662 120.346 70.0485 120.216 66.9756L112.643 66.9443C112.643 72.8558 117.211 78.6318 127.07 78.6318Z" fill="#57779B"/>
<path d="M151.589 38.8349C154.787 38.8349 156.584 36.8454 156.584 34.2985C156.584 31.8506 154.787 29.7933 151.62 29.7933C148.521 29.7933 146.725 31.8506 146.725 34.2985C146.725 36.8089 148.553 38.8349 151.589 38.8349ZM155.605 77.6214V44.0589H147.704V77.6214H155.605Z" fill="#57779B"/>
<path d="M195.629 77.6214L183.781 57.3454L194.197 44.0589H184.562L172.744 59.7933V31.6526H164.843V77.6214H172.744V68.2829L178.036 62.5068L186.749 77.6214H195.629Z" fill="#57779B"/>
<path d="M215.873 78.6318C226.222 78.6318 233.634 70.7308 233.634 60.8402C233.634 51.012 226.222 43.0485 215.905 43.0485C205.618 43.0485 198.243 51.0433 198.243 60.8402C198.243 70.6995 205.649 78.6318 215.873 78.6318ZM215.936 71.2881C210.29 71.2881 206.076 66.9131 206.076 60.8402C206.076 54.7985 210.29 50.361 215.936 50.361C221.587 50.361 225.795 54.7985 225.795 60.8402C225.795 66.9131 221.587 71.2881 215.936 71.2881Z" fill="#57779B"/>
<path d="M252.595 78.6318C260.694 78.6318 266.699 75.0433 266.699 67.6631C266.699 60.5485 261.283 58.5224 254.329 57.4756C248.548 56.5641 247.309 55.7464 247.309 53.2308C247.309 51.2099 248.809 49.512 252.204 49.512C255.861 49.512 257.819 51.2724 257.986 53.7568L265.72 53.8193C265.72 47.4235 260.272 43.0485 252.173 43.0485C243.98 43.0485 239.538 47.2256 239.538 53.3974C239.538 60.3506 245.09 62.9287 251.553 63.7777C256.121 64.4652 258.637 65.2777 258.637 68.1214C258.637 70.6683 256.746 72.3662 252.663 72.3662C248.158 72.3662 245.871 70.0485 245.741 66.9756L238.168 66.9443C238.168 72.8558 242.736 78.6318 252.595 78.6318Z" fill="#57779B"/>
<path d="M286.645 78.6318C292.098 78.6318 296.541 76.1527 298.728 71.9756V77.6214H306.239V44.0589H298.728V49.7412C296.572 45.5589 292.098 43.0485 286.614 43.0485C277.635 43.0485 270.848 51.0433 270.848 60.8402C270.848 70.6995 277.572 78.6318 286.645 78.6318ZM288.541 71.3193C283.218 71.3193 278.681 67.3714 278.681 60.8402C278.681 54.5381 283.119 50.361 288.541 50.361C294.025 50.361 298.4 54.9964 298.4 60.8402C298.4 66.7829 294.056 71.3193 288.541 71.3193Z" fill="#57779B"/>
<path d="M323.406 77.6214V60.4808C323.406 53.9183 327.651 50.3297 332.286 50.3297C337.052 50.3297 340.057 53.0381 340.057 59.6995V77.6214H347.958V59.5329C347.958 48.986 343.484 43.0485 334.474 43.0485C329.318 43.0485 324.943 45.6266 323.016 49.2829V44.0589H315.505V77.6214H323.406Z" fill="#57779B"/>
</svg>
