<svg width="237" height="50" viewBox="0 0 237 50" fill="none" xmlns="http://www.w3.org/2000/svg">
<path d="M15.392 49.3475C23.4909 49.3475 29.4961 45.7589 29.4961 38.3787C29.4961 31.2641 24.0795 29.2381 17.1263 28.1912C11.3451 27.2798 10.1055 26.462 10.1055 23.9464C10.1055 21.9256 11.6055 20.2277 15.0013 20.2277C18.6576 20.2277 20.6159 21.9881 20.7826 24.4725L28.517 24.535C28.517 18.1391 23.069 13.7641 14.9701 13.7641C6.77738 13.7641 2.33467 17.9412 2.33467 24.1131C2.33467 31.0662 7.88676 33.6443 14.3503 34.4933C18.918 35.1808 21.4336 35.9933 21.4336 38.837C21.4336 41.3839 19.543 43.0818 15.4597 43.0818C10.9545 43.0818 8.66801 40.7641 8.5378 37.6912L0.964882 37.66C0.964882 43.5714 5.53259 49.3475 15.392 49.3475Z" fill="#57779B"/>
<path d="M39.9108 9.55059C43.1087 9.55059 44.9055 7.56101 44.9055 5.01413C44.9055 2.56622 43.1087 0.508926 39.942 0.508926C36.843 0.508926 35.0462 2.56622 35.0462 5.01413C35.0462 7.52455 36.8743 9.55059 39.9108 9.55059ZM43.9264 48.3371V14.7746H36.0253V48.3371H43.9264Z" fill="#57779B"/>
<path d="M83.9511 48.3371L72.1021 28.061L82.5188 14.7746H72.8833L61.0656 30.5089V2.3683H53.1646V48.3371H61.0656V38.9985L66.3573 33.2225L75.0708 48.3371H83.9511Z" fill="#57779B"/>
<path d="M104.195 49.3475C114.544 49.3475 121.955 41.4464 121.955 31.5558C121.955 21.7277 114.544 13.7641 104.226 13.7641C93.9396 13.7641 86.5646 21.7589 86.5646 31.5558C86.5646 41.4152 93.9709 49.3475 104.195 49.3475ZM104.257 42.0037C98.6115 42.0037 94.398 37.6287 94.398 31.5558C94.398 25.5141 98.6115 21.0766 104.257 21.0766C109.908 21.0766 114.117 25.5141 114.117 31.5558C114.117 37.6287 109.908 42.0037 104.257 42.0037Z" fill="#57779B"/>
<path d="M140.917 49.3475C149.016 49.3475 155.021 45.7589 155.021 38.3787C155.021 31.2641 149.604 29.2381 142.651 28.1912C136.87 27.2798 135.63 26.462 135.63 23.9464C135.63 21.9256 137.13 20.2277 140.526 20.2277C144.182 20.2277 146.141 21.9881 146.307 24.4725L154.042 24.535C154.042 18.1391 148.594 13.7641 140.495 13.7641C132.302 13.7641 127.859 17.9412 127.859 24.1131C127.859 31.0662 133.411 33.6443 139.875 34.4933C144.443 35.1808 146.958 35.9933 146.958 38.837C146.958 41.3839 145.068 43.0818 140.984 43.0818C136.479 43.0818 134.193 40.7641 134.062 37.6912L126.49 37.66C126.49 43.5714 131.057 49.3475 140.917 49.3475Z" fill="#57779B"/>
<path d="M174.967 49.3475C180.42 49.3475 184.862 46.8683 187.05 42.6912V48.337H194.56V14.7745H187.05V20.4568C184.894 16.2745 180.42 13.7641 174.935 13.7641C165.956 13.7641 159.17 21.7589 159.17 31.5558C159.17 41.4152 165.894 49.3475 174.967 49.3475ZM176.862 42.035C171.54 42.035 167.003 38.087 167.003 31.5558C167.003 25.2537 171.441 21.0766 176.862 21.0766C182.347 21.0766 186.722 25.712 186.722 31.5558C186.722 37.4985 182.378 42.035 176.862 42.035Z" fill="#57779B"/>
<path d="M211.728 48.337V31.1964C211.728 24.6339 215.973 21.0454 220.608 21.0454C225.374 21.0454 228.379 23.7537 228.379 30.4152V48.337H236.28V30.2485C236.28 19.7016 231.806 13.7641 222.796 13.7641C217.639 13.7641 213.264 16.3423 211.337 19.9985V14.7745H203.827V48.337H211.728Z" fill="#57779B"/>
</svg>
